<svg xmlns="http://www.w3.org/2000/svg" xmlns:xlink="http://www.w3.org/1999/xlink" viewBox="0 0 40 36.74"><defs><style>.cls-1{fill:none;}.cls-2{clip-path:url(#clip-path);}.cls-3{fill:#fff;}</style><clipPath id="clip-path" transform="translate(0 0)"><rect class="cls-1" width="40" height="36.74"/></clipPath></defs><g id="Layer_2" data-name="Layer 2"><g id="Layer_1-2" data-name="Layer 1"><g class="cls-2"><path class="cls-3" d="M31.72,7a2.55,2.55,0,0,0-1-2.31A18.72,18.72,0,0,0,16.07.11C6.91,1-.81,10.14.07,19.59c0,0,0,.22,0,.42a18.36,18.36,0,0,0,32.63,9.87,2.23,2.23,0,0,0,.66-1.55c-.16-4.27.24-8.51.39-12.77a3.15,3.15,0,0,0-.47-2.44C31.65,11.34,31.57,9.16,31.72,7ZM18.34,32.06a14,14,0,0,1-13.72-14C4.38,12.41,9.85,4.72,18.4,4.68A14,14,0,0,1,32.13,18.31,14,14,0,0,1,18.34,32.06Z" transform="translate(0 0)"/><path class="cls-3" d="M26.75,13.46c.15-.86.46-1.85-.88-2-.89-.07-1.72.18-1.42,1.42-.24.33-.6.23-.92.24.63-1.55-.88-2.91-.28-4.63.32-.94-1.39-1.82-3.24-1.4A.73.73,0,0,0,18.93,7c.1.16.21.31.32.47-.49.09-1.67,1.75-1.48,1.77,1.57.17.34,1,.27,1.37a6.88,6.88,0,0,0,.05,3.92l-.38.63-.88,0,0-.55c1.06-1.73.76-3.12-.94-4.49.29-.1.84,0,.71-.5-.08-.29-.53-.18-.79,0a2.78,2.78,0,0,0-.39.44c-.38-.08-.54-.84-1.14-.27a4.94,4.94,0,0,0-1.67,2.52,1.68,1.68,0,0,0-.23.38,1.5,1.5,0,0,0-.09.35.88.88,0,0,0-.31-.67L10.4,12c-.2-.46-.28-1-1.06-1.19a2.61,2.61,0,0,1,.39,1.84A1.9,1.9,0,0,0,9,15.11,1.82,1.82,0,0,0,11,16.24a1.88,1.88,0,0,0,2-1.66l1.23.61a.8.8,0,0,0,1.3-.06.56.56,0,0,0,.05-.08h0a.27.27,0,0,0-.07.08,3.44,3.44,0,0,0,4.1.38c1.28.84,2.4,0,3.57-.33.14.95-.59,1.17-1.23,1.32-1.76.41-.39,1.46-.33,2.07.09.91.77-.14,1.17.08l2-.28h.33c1.35-.6,1.52-.91.85-1.79a.93.93,0,0,0-.13-.15c-.42-.36-1-.69-.43-1.35.8-.35.16-.76.05-1.15l1.24,0c-.25.73-.37,1.46.37,2a.93.93,0,0,0,1.29-.14,1.4,1.4,0,0,0,.46-1.55c-.37-1.1-1.19-1-2-.79" transform="translate(0 0)"/><path class="cls-3" d="M38.92,1.68c-.54.06-.65.51-.66,1,0,1.28,0,2.56,0,3.84a5.55,5.55,0,0,1-.45,3.06c-.58-2.31-.17-4.41-.49-6.44-.09-.52.25-1.37-.66-1.35s-.7.93-.71,1.5a20.3,20.3,0,0,1-.62,6,2.8,2.8,0,0,1-.23-.71C35,6.65,35,4.73,35,2.81c0-.47,0-1-.63-1.1s-.75.55-.79,1c-.14,1.59-.23,3.19-.31,4.78a6.31,6.31,0,0,0,1.44,4.92,2.91,2.91,0,0,1,.66,2.08c0,1.34-.07,2.67-.13,4-.2,4.09-.6,8.19-.08,12.27.13,1,.06,2.62,1.54,2.6s1.37-1.57,1.53-2.61c.5-3.18.21-6.38.19-9.57,0-3.62-1.42-7.46,1.36-10.74a.71.71,0,0,0,.08-.31c.44-2.55,0-5.1-.1-7.65,0-.43-.25-.86-.8-.8" transform="translate(0 0)"/><path class="cls-3" d="M25.27,25a6.78,6.78,0,0,0-7.41.32c-1.37.88-2.28.87-3.35-.17h0c0-.1.09-.21.14-.31.3-.46.81,0,1.16-.25.67-.29,1.15-.94,1.93-1a.9.9,0,0,0,.95-.92A9.89,9.89,0,0,0,20.78,20a1.65,1.65,0,0,0-1.46-2.59,17.84,17.84,0,0,0-4.44.34c-2.44.53-3.94,2-4.16,4.16a1.92,1.92,0,0,0,.61,1.61,2.44,2.44,0,0,0,1.28,1.23,4.25,4.25,0,0,0,1.44.46c-.65.21-1,.65-.69,1.56a6,6,0,0,1,0,1.26c0,.5-.36,1.16.22,1.45s1-.33,1.33-.67a1.76,1.76,0,0,1,2.66-.17,7.1,7.1,0,0,0,7.7.54c2.05-1.11,2.05-3,0-4.2m-.49,2a.72.72,0,0,1-.64-.76.45.45,0,0,1,.51-.46c.45.05.58.39.67.76-.1.24-.21.52-.53.46Z" transform="translate(0 0)"/></g></g></g></svg>