<svg width="40" height="35" viewBox="0 0 40 35" fill="none" xmlns="http://www.w3.org/2000/svg">
<g clip-path="url(#clip0_6_51)">
<path d="M39.9907 4.35524C39.9794 3.0339 39.3816 2.25985 38.087 1.96611C34.5552 1.1469 30.9387 0.749712 27.3132 0.782876C24.6025 0.821012 22.0835 1.38686 19.9809 3.32146C18.2102 1.6033 16.0035 0.935418 13.6339 0.812766C9.63384 0.606628 5.69764 1.13949 1.79236 1.9929C0.673033 2.23615 0.00720849 3.03596 0.00720849 4.18415C0.0023986 12.7636 0.0023986 21.3434 0.00720849 29.9235C0.00720849 31.5438 1.26671 32.5054 2.84882 32.1601C6.08335 31.457 9.38495 31.109 12.695 31.1222C14.9769 31.1284 16.9497 31.752 18.472 33.5753C19.2966 34.5637 20.6509 34.5802 21.4713 33.6041C23.0493 31.7241 25.0962 31.1171 27.4411 31.1222C30.6845 31.1178 33.919 31.4633 37.0883 32.1529C38.2344 32.4034 39.2445 32.0406 39.665 31.1057C39.8796 30.5929 39.9866 30.0414 39.9794 29.4855C40 22.8554 40.0048 16.2247 39.9938 9.5932C39.9938 7.84103 40.0052 6.09814 39.9887 4.35009M18.4091 29.4628C17.0929 29.0505 15.8324 28.4187 14.5224 28.2981C12.5084 28.1136 10.4574 28.1951 8.42897 28.3136C6.70256 28.4167 4.98647 28.7259 3.18482 28.9526V28.294C3.18482 20.7009 3.19513 13.1048 3.16936 5.5158C3.16936 4.89017 3.40848 4.7366 3.95062 4.63044C6.87366 4.05737 9.8173 3.62242 12.7991 3.74301C13.9126 3.79635 15.0128 4.0084 16.0664 4.37276C17.7783 4.95717 18.4091 5.99507 18.4091 7.7895V29.4628ZM36.7482 28.3909C36.7427 28.5358 36.7293 28.6803 36.708 28.8238C33.8756 28.5878 31.1268 28.3002 28.3718 28.1456C26.095 28.0157 23.8563 28.2487 21.8691 29.5525C21.7808 29.5828 21.6891 29.6022 21.596 29.6102V28.8753C21.596 21.778 21.6104 14.6827 21.5826 7.58542C21.5775 6.09814 22.2567 5.12414 23.5358 4.51191C25.3096 3.66365 27.2246 3.5781 29.118 3.74714C31.4473 3.95327 33.7612 4.34494 36.0834 4.64281C36.576 4.70465 36.7595 4.91903 36.7575 5.42304C36.7465 13.0776 36.7434 20.7336 36.7482 28.3909Z" fill="#000003"/>
</g>
<defs>
<clipPath id="clip0_6_51">
<rect width="40" height="33.5582" fill="white" transform="translate(0 0.768433)"/>
</clipPath>
</defs>
</svg>
