<svg xmlns="http://www.w3.org/2000/svg" xmlns:xlink="http://www.w3.org/1999/xlink" viewBox="0 0 292 46"><defs><style>.cls-1{fill:none;}.cls-2{clip-path:url(#clip-path);}.cls-3{fill:#fff;}.cls-4{fill:#3aafb1;}.cls-5{fill:#aed036;}.cls-6{fill:#219869;}.cls-7{fill:#e34825;}.cls-8{fill:#2c5455;}.cls-9{fill:#a43429;}.cls-10{fill:#282834;}.cls-11{fill:#30302f;fill-rule:evenodd;}.cls-12{fill:#991f1f;}</style><clipPath id="clip-path" transform="translate(0 0)"><rect class="cls-1" width="292" height="46"/></clipPath></defs><g id="Layer_2" data-name="Layer 2"><g id="Layer_1-2" data-name="Layer 1"><g class="cls-2"><path class="cls-3" d="M292,25c0-3-1.32-5.57-5.56-5.57-4.73,0-5.71,3.66-5.71,6.57,0,3.44,1.09,6.2,6.13,6.2a14.67,14.67,0,0,0,4.28-.52l.56-2.76a10.27,10.27,0,0,1-4.17.7c-3,0-3.23-1.64-3.19-3.06h7.47A9.11,9.11,0,0,0,292,25m-7.66-.53c0-1.57.56-2.76,2.1-2.76,2,0,2,1.91,1.92,2.76ZM276,19.64l-2.51,8.63L271,19.64h-3.8l4.4,12.4h3.83l4.4-12.4Zm-10.85-3.55a2.06,2.06,0,0,0-.62-1.44A2.05,2.05,0,0,0,261,16.09a2.13,2.13,0,0,0,2.06,2.06,2.18,2.18,0,0,0,1.45-.62,2.1,2.1,0,0,0,.61-1.44Zm1.12,13.63a2.84,2.84,0,0,1-.71.11c-.49,0-.71-.19-.71-.63V19.64h-3.49V30a2.23,2.23,0,0,0,2.44,2.32,6.81,6.81,0,0,0,2.89-.56Zm-7.51-.37a3.45,3.45,0,0,1-1.38.29c-.87,0-1.13-.41-1.13-1.57v-6h2.7V19.64h-2.71V15.53l-3.53,1.2v2.91h-1.43l-.51,2.43h1.95v6.79c0,2.88,1.77,3.36,3.15,3.36a11.17,11.17,0,0,0,3.35-.48Zm-9,.37a2.85,2.85,0,0,1-.72.11c-.48,0-.71-.22-.71-.63V24.08c0-3.73-1.92-4.63-5.44-4.63a12.33,12.33,0,0,0-3.91.6l-.57,2.69a11.12,11.12,0,0,1,3.79-.67c1.73,0,2.63.22,2.63,1.76v.56c-.29,0-1.24-.11-1.69-.11-3,0-5.59,1.08-5.59,4.33,0,2.09,1,3.62,3.86,3.62a4,4,0,0,0,3.5-1.57,2.2,2.2,0,0,0,2.36,1.65,6.63,6.63,0,0,0,2.85-.56Zm-4.92-1.91c0,1.46-1.05,1.91-2.1,1.91-.79,0-1.69-.33-1.69-1.45,0-.9.41-1.95,2.32-1.95a10.28,10.28,0,0,1,1.47.11Zm-10-11.72a2.06,2.06,0,0,0-.62-1.44,2.09,2.09,0,0,0-1.45-.62,2.06,2.06,0,1,0,0,4.11,2.1,2.1,0,0,0,1.44-.61,2.06,2.06,0,0,0,.62-1.44ZM236,29.72a3.39,3.39,0,0,1-.71.11c-.49,0-.71-.19-.71-.64V19.64h-3.5V30a2.24,2.24,0,0,0,2.45,2.32,6.81,6.81,0,0,0,2.89-.56Zm-7.51-.37a3.55,3.55,0,0,1-1.4.29c-.86,0-1.12-.41-1.12-1.57v-6h2.7V19.64H226V15.53l-3.53,1.2v2.91H221l-.52,2.43h1.95v6.79c0,2.88,1.77,3.36,3.15,3.36a10.86,10.86,0,0,0,3.35-.48ZM218.28,16.09a2.06,2.06,0,0,0-.62-1.44,2.05,2.05,0,1,0,0,2.88,2.06,2.06,0,0,0,.62-1.44Zm1.13,13.63a3,3,0,0,1-.72.11c-.48,0-.71-.19-.71-.63V19.64h-3.49V30a2.23,2.23,0,0,0,2.44,2.32,6.81,6.81,0,0,0,2.89-.56Zm-7.06,0a2.36,2.36,0,0,1-.79.11.57.57,0,0,1-.64-.63V23.37c0-3.39-1.46-3.92-3.87-3.92A6.93,6.93,0,0,0,203,21V19.64H199.5V32H203V23.86a7.1,7.1,0,0,1,3.12-1.46c1,0,1.24.26,1.24,1.91V30a2.26,2.26,0,0,0,2.48,2.31,6.4,6.4,0,0,0,2.85-.56ZM196.2,16.09a2.06,2.06,0,0,0-.62-1.44,2.05,2.05,0,1,0,0,2.88,2.06,2.06,0,0,0,.62-1.44Zm1.13,13.63a3,3,0,0,1-.72.11c-.49,0-.71-.19-.71-.63V19.64h-3.49V30a2.23,2.23,0,0,0,2.44,2.32,6.81,6.81,0,0,0,2.89-.56Z" transform="translate(0 0)"/><path class="cls-3" d="M292,25c0-3-1.32-5.57-5.56-5.57-4.73,0-5.71,3.66-5.71,6.57,0,3.44,1.09,6.2,6.13,6.2a14.67,14.67,0,0,0,4.28-.52l.56-2.76a10.27,10.27,0,0,1-4.17.7c-3,0-3.23-1.64-3.19-3.06h7.47A9.11,9.11,0,0,0,292,25m-7.66-.53c0-1.57.56-2.76,2.1-2.76,2,0,2,1.91,1.92,2.76ZM276,19.64l-2.51,8.63L271,19.64h-3.8l4.4,12.4h3.83l4.4-12.4Zm-10.85-3.55a2.06,2.06,0,0,0-.62-1.44A2.05,2.05,0,0,0,261,16.09a2.13,2.13,0,0,0,2.06,2.06,2.18,2.18,0,0,0,1.45-.62,2.1,2.1,0,0,0,.61-1.44Zm1.12,13.63a2.84,2.84,0,0,1-.71.11c-.49,0-.71-.19-.71-.63V19.64h-3.49V30a2.23,2.23,0,0,0,2.44,2.32,6.81,6.81,0,0,0,2.89-.56Zm-7.51-.37a3.45,3.45,0,0,1-1.38.29c-.87,0-1.13-.41-1.13-1.57v-6h2.7V19.64h-2.71V15.53l-3.53,1.2v2.91h-1.43l-.51,2.43h1.95v6.79c0,2.88,1.77,3.36,3.15,3.36a11.17,11.17,0,0,0,3.35-.48Zm-9,.37a2.85,2.85,0,0,1-.72.11c-.48,0-.71-.22-.71-.63V24.08c0-3.73-1.92-4.63-5.44-4.63a12.33,12.33,0,0,0-3.91.6l-.57,2.69a11.12,11.12,0,0,1,3.79-.67c1.73,0,2.63.22,2.63,1.76v.56c-.29,0-1.24-.11-1.69-.11-3,0-5.59,1.08-5.59,4.33,0,2.09,1,3.62,3.86,3.62a4,4,0,0,0,3.5-1.57,2.2,2.2,0,0,0,2.36,1.65,6.63,6.63,0,0,0,2.85-.56Zm-4.92-1.91c0,1.46-1.05,1.91-2.1,1.91-.79,0-1.69-.33-1.69-1.45,0-.9.41-1.95,2.32-1.95a10.28,10.28,0,0,1,1.47.11Zm-10-11.72a2.06,2.06,0,0,0-.62-1.44,2.09,2.09,0,0,0-1.45-.62,2.06,2.06,0,1,0,0,4.11,2.1,2.1,0,0,0,1.44-.61,2.06,2.06,0,0,0,.62-1.44ZM236,29.72a3.39,3.39,0,0,1-.71.11c-.49,0-.71-.19-.71-.64V19.64h-3.5V30a2.24,2.24,0,0,0,2.45,2.32,6.81,6.81,0,0,0,2.89-.56Zm-7.51-.37a3.55,3.55,0,0,1-1.4.29c-.86,0-1.12-.41-1.12-1.57v-6h2.7V19.64H226V15.53l-3.53,1.2v2.91H221l-.52,2.43h1.95v6.79c0,2.88,1.77,3.36,3.15,3.36a10.86,10.86,0,0,0,3.35-.48ZM218.28,16.09a2.06,2.06,0,0,0-.62-1.44,2.05,2.05,0,1,0,0,2.88,2.06,2.06,0,0,0,.62-1.44Zm1.13,13.63a3,3,0,0,1-.72.11c-.48,0-.71-.19-.71-.63V19.64h-3.49V30a2.23,2.23,0,0,0,2.44,2.32,6.81,6.81,0,0,0,2.89-.56Zm-7.06,0a2.36,2.36,0,0,1-.79.11.57.57,0,0,1-.64-.63V23.37c0-3.39-1.46-3.92-3.87-3.92A6.93,6.93,0,0,0,203,21V19.64H199.5V32H203V23.86a7.1,7.1,0,0,1,3.12-1.46c1,0,1.24.26,1.24,1.91V30a2.26,2.26,0,0,0,2.48,2.31,6.4,6.4,0,0,0,2.85-.56ZM196.2,16.09a2.06,2.06,0,0,0-.62-1.44,2.05,2.05,0,1,0,0,2.88,2.06,2.06,0,0,0,.62-1.44Zm1.13,13.63a3,3,0,0,1-.72.11c-.49,0-.71-.19-.71-.63V19.64h-3.49V30a2.23,2.23,0,0,0,2.44,2.32,6.81,6.81,0,0,0,2.89-.56Z" transform="translate(0 0)"/><path class="cls-4" d="M59.43,20v-.09C67.65,14.05,72,6.15,69.13,2.15S57.34-.2,49.21,5.63A31.46,31.46,0,0,0,46,8.15a35.53,35.53,0,0,1,1.84,7A33,33,0,0,1,59.43,20" transform="translate(0 0)"/><path class="cls-5" d="M63,22.48A37.31,37.31,0,0,0,59.43,20a33.08,33.08,0,0,1-11.09,5.12A41,41,0,0,1,46.68,35q1.83,1.7,3.93,3.39c9.52,7.38,20.09,9.82,23.5,5.47S72.63,29.86,63,22.48" transform="translate(0 0)"/><path class="cls-6" d="M48.42,22.48c0,.87,0,1.74-.08,2.61A33.32,33.32,0,0,0,59.43,20a33.33,33.33,0,0,0-11.61-4.87A40.22,40.22,0,0,1,48.42,22.48Z" transform="translate(0 0)"/><path class="cls-7" d="M39.26,17.36c1-3,3.4-6.17,6.72-9.21-1.57-3.91-3.75-6.35-6.2-6.35-4.72,0-8.56,9.3-8.56,20.68s3.85,20.67,8.56,20.67c2.89,0,5.33-3.21,6.91-8.16C40,28.47,36.72,21.18,39.26,17.36Z" transform="translate(0 0)"/><path class="cls-8" d="M39.26,17.36l.17-.35c1.57-2,4.63-2.61,8.39-1.91A29.83,29.83,0,0,0,46,8.15C42.66,11.19,40.3,14.4,39.26,17.36Z" transform="translate(0 0)"/><path class="cls-9" d="M39.52,23.26c-1.14-1.48-1.14-3.56-.27-5.91C36.72,21.18,40,28.47,46.68,35a41,41,0,0,0,1.66-9.9c-4,.87-7.25.35-8.82-1.82" transform="translate(0 0)"/><path class="cls-10" d="M47.82,15.09C44.06,14.4,41,15,39.43,17l-.17.36c-.88,2.34-.88,4.42.26,5.9,1.48,2.17,4.8,2.69,8.82,1.83.08-.87.08-1.74.08-2.61A40.22,40.22,0,0,0,47.82,15.09Z" transform="translate(0 0)"/><path class="cls-3" d="M92.44,29.05H89.23V17.48h3.21c.91,0,3.85.45,3.85,5.83,0,5.19-2.65,5.74-3.85,5.74M92,14.65H86.12V31.87h6c2.29,0,7.42-.81,7.42-8.56C99.59,17.48,97.11,14.65,92,14.65Z" transform="translate(0 0)"/><path class="cls-3" d="M128,14.65h-3.84l-6,7.47V14.65H115V31.87h3.21V26.5l2.29-2.73,4.49,8.1h3.66l-6-10.75Z" transform="translate(0 0)"/><path class="cls-3" d="M162.56,27.14l-2.76-7.75h-6V14.11h-3v5.28H146V14.11h-3v5.28h-6.23v8.38a5.28,5.28,0,0,1-3.3,1.47c-.82,0-1.1-.09-1.1-1.64V19.39h-3v8.47c0,3.47,1.47,4.2,3.84,4.2a6.28,6.28,0,0,0,3.67-1.46,2,2,0,0,0,2.2,1.46,4.43,4.43,0,0,0,2-.46l.18-.09-.37-2-.27.18H140c-.28,0-.28-.18-.28-.28V21.94h3.21v6.75c0,2.37.82,3.38,2.84,3.38a5.52,5.52,0,0,0,2.66-.55l.27-.09L148.26,29l-.37.18a2.51,2.51,0,0,1-1.1.27c-.64,0-.83,0-.83-1V21.94h4.86v6.75c0,2.37.83,3.38,2.75,3.38a5.66,5.66,0,0,0,2.75-.55l.28-.09L156.05,29l-.37.18a1.85,1.85,0,0,1-1,.27c-.65,0-.83,0-.83-1V21.94h3.66l3.58,9.3C160.27,34,159.54,34,159,34a6,6,0,0,1-1.83-.27l-.37-.18-.54,2.64.18.09a7.59,7.59,0,0,0,2.56.45c2.38,0,3.58-1.18,4.77-4.64l4.4-12.67h-3.3Z" transform="translate(0 0)"/><path class="cls-3" d="M171.08,13.29a1.58,1.58,0,0,0-1.74,1.54,2.1,2.1,0,0,0,.55,1.37,1.09,1.09,0,0,1,.36.73c0,.28-.45.82-1.28,1.28l-.18.18.55,1.55.37-.09c.91-.46,3.11-1.73,3.11-4.19,0-1.37-.74-2.37-1.74-2.37" transform="translate(0 0)"/><path class="cls-3" d="M178,24c-1.1-.37-2-.73-2-1.28,0-.27,0-.91,2-.91a5.76,5.76,0,0,1,2.75.64l.37.18.55-2.64-.27-.09a8.15,8.15,0,0,0-3.49-.64c-3.11,0-4.94,1.28-4.94,3.55s2.19,3.19,3.84,3.83c1.19.46,2.2.82,2.2,1.55s-.27,1.37-2.47,1.37a9.26,9.26,0,0,1-2.93-.73l-.37-.19-.64,2.83.27.09a13.59,13.59,0,0,0,4.13.55c2.93,0,5-1.64,5-3.92C182.08,25.5,179.69,24.59,178,24Z" transform="translate(0 0)"/><path class="cls-3" d="M105.27,19.66a9.27,9.27,0,0,0-2.65.92,8.14,8.14,0,0,0-.92.63V31.87h3V23.4c.91-2.1,3.39-1.37,3.94-1.18l.46-2.19A9.13,9.13,0,0,0,105.27,19.66Z" transform="translate(0 0)"/><path class="cls-11" d="M10.22,13.73H6L0,32.13H4.32l1-3.43H10.9l1,3.43h4.36Zm-4,11.66,1.86-6.46L10,25.39Z" transform="translate(0 0)"/><path class="cls-4" d="M59.43,20v-.09C67.65,14.05,72,6.15,69.13,2.15S57.34-.2,49.21,5.63A31.46,31.46,0,0,0,46,8.15a35.53,35.53,0,0,1,1.84,7A33,33,0,0,1,59.43,20" transform="translate(0 0)"/><path class="cls-5" d="M63,22.48A37.31,37.31,0,0,0,59.43,20a33.08,33.08,0,0,1-11.09,5.12A41,41,0,0,1,46.68,35q1.83,1.7,3.93,3.39c9.52,7.38,20.09,9.82,23.5,5.47S72.63,29.86,63,22.48" transform="translate(0 0)"/><path class="cls-6" d="M48.42,22.48c0,.87,0,1.74-.08,2.61A33.32,33.32,0,0,0,59.43,20a33.33,33.33,0,0,0-11.61-4.87A40.22,40.22,0,0,1,48.42,22.48Z" transform="translate(0 0)"/><path class="cls-12" d="M39.26,17.36c1-3,3.4-6.17,6.72-9.21-1.57-3.91-3.75-6.35-6.2-6.35-4.72,0-8.56,9.3-8.56,20.68s3.85,20.67,8.56,20.67c2.89,0,5.33-3.21,6.91-8.16C40,28.47,36.72,21.18,39.26,17.36Z" transform="translate(0 0)"/><path class="cls-8" d="M39.26,17.36l.17-.35c1.57-2,4.63-2.61,8.39-1.91A29.83,29.83,0,0,0,46,8.15C42.66,11.19,40.3,14.4,39.26,17.36Z" transform="translate(0 0)"/><path class="cls-9" d="M39.52,23.26c-1.14-1.48-1.14-3.56-.27-5.91C36.72,21.18,40,28.47,46.68,35a41,41,0,0,0,1.66-9.9c-4,.87-7.25.35-8.82-1.82" transform="translate(0 0)"/><path class="cls-10" d="M47.82,15.09C44.06,14.4,41,15,39.43,17l-.17.36c-.88,2.34-.88,4.42.26,5.9,1.48,2.17,4.8,2.69,8.82,1.83.08-.87.08-1.74.08-2.61A40.22,40.22,0,0,0,47.82,15.09Z" transform="translate(0 0)"/><path class="cls-3" d="M92.44,29.05H89.23V17.48h3.21c.91,0,3.85.45,3.85,5.83,0,5.19-2.65,5.74-3.85,5.74M92,14.65H86.12V31.87h6c2.29,0,7.42-.81,7.42-8.56C99.59,17.48,97.11,14.65,92,14.65Z" transform="translate(0 0)"/><path class="cls-3" d="M128,14.65h-3.84l-6,7.47V14.65H115V31.87h3.21V26.5l2.29-2.73,4.49,8.1h3.66l-6-10.75Z" transform="translate(0 0)"/><path class="cls-3" d="M162.56,27.14l-2.76-7.75h-6V14.11h-3v5.28H146V14.11h-3v5.28h-6.23v8.38a5.28,5.28,0,0,1-3.3,1.47c-.82,0-1.1-.09-1.1-1.64V19.39h-3v8.47c0,3.47,1.47,4.2,3.84,4.2a6.28,6.28,0,0,0,3.67-1.46,2,2,0,0,0,2.2,1.46,4.43,4.43,0,0,0,2-.46l.18-.09-.37-2-.27.18H140c-.28,0-.28-.18-.28-.28V21.94h3.21v6.75c0,2.37.82,3.38,2.84,3.38a5.52,5.52,0,0,0,2.66-.55l.27-.09L148.26,29l-.37.18a2.51,2.51,0,0,1-1.1.27c-.64,0-.83,0-.83-1V21.94h4.86v6.75c0,2.37.83,3.38,2.75,3.38a5.66,5.66,0,0,0,2.75-.55l.28-.09L156.05,29l-.37.18a1.85,1.85,0,0,1-1,.27c-.65,0-.83,0-.83-1V21.94h3.66l3.58,9.3C160.27,34,159.54,34,159,34a6,6,0,0,1-1.83-.27l-.37-.18-.54,2.64.18.09a7.59,7.59,0,0,0,2.56.45c2.38,0,3.58-1.18,4.77-4.64l4.4-12.67h-3.3Z" transform="translate(0 0)"/><path class="cls-3" d="M171.08,13.29a1.58,1.58,0,0,0-1.74,1.54,2.1,2.1,0,0,0,.55,1.37,1.09,1.09,0,0,1,.36.73c0,.28-.45.82-1.28,1.28l-.18.18.55,1.55.37-.09c.91-.46,3.11-1.73,3.11-4.19,0-1.37-.74-2.37-1.74-2.37" transform="translate(0 0)"/><path class="cls-3" d="M178,24c-1.1-.37-2-.73-2-1.28,0-.27,0-.91,2-.91a5.76,5.76,0,0,1,2.75.64l.37.18.55-2.64-.27-.09a8.15,8.15,0,0,0-3.49-.64c-3.11,0-4.94,1.28-4.94,3.55s2.19,3.19,3.84,3.83c1.19.46,2.2.82,2.2,1.55s-.27,1.37-2.47,1.37a9.26,9.26,0,0,1-2.93-.73l-.37-.19-.64,2.83.27.09a13.59,13.59,0,0,0,4.13.55c2.93,0,5-1.64,5-3.92C182.08,25.5,179.69,24.59,178,24Z" transform="translate(0 0)"/><path class="cls-3" d="M105.27,19.66a9.27,9.27,0,0,0-2.65.92,8.14,8.14,0,0,0-.92.63V31.87h3V23.4c.91-2.1,3.39-1.37,3.94-1.18l.46-2.19A9.13,9.13,0,0,0,105.27,19.66Z" transform="translate(0 0)"/><path class="cls-3" d="M10.22,13.73H6L0,32.13H4.32l1-3.43H10.9l1,3.43h4.36Zm-4,11.66,1.86-6.46L10,25.39Z" transform="translate(0 0)"/></g></g></g></svg>