<?xml version="1.0" encoding="utf-8"?>
<!-- Generator: Adobe Illustrator 25.4.1, SVG Export Plug-In . SVG Version: 6.00 Build 0)  -->
<svg version="1.1" id="Layer_1" xmlns="http://www.w3.org/2000/svg" xmlns:xlink="http://www.w3.org/1999/xlink" x="0px" y="0px"
	 viewBox="0 0 40 37" style="enable-background:new 0 0 40 37;" xml:space="preserve">
<style type="text/css">
	.st0{clip-path:url(#SVGID_00000060718994319893657860000000028791201630411437_);}
	.st1{fill:#FFFFFF;}
</style>
<g>
	<defs>
		<rect id="SVGID_1_" x="45" y="5.5" width="40" height="36.7"/>
	</defs>
	<clipPath id="SVGID_00000104690816511450487980000005739656405657295536_">
		<use xlink:href="#SVGID_1_"  style="overflow:visible;"/>
	</clipPath>
	<g style="clip-path:url(#SVGID_00000104690816511450487980000005739656405657295536_);">
		<path class="st1" d="M76.7,12.5c0.1-1-0.3-1.7-1-2.3c-4.2-3.6-9.1-5.1-14.6-4.5c-9.2,0.9-16.9,10-16,19.5c0,0,0,0.2,0,0.4
			c0.5,7.3,5.8,13.8,12.8,15.9c7.3,2.2,15.3-0.2,19.8-6.1c0.4-0.5,0.7-0.9,0.7-1.6c-0.2-4.3,0.2-8.5,0.4-12.8c0-0.8,0.1-1.8-0.5-2.4
			C76.7,16.9,76.6,14.7,76.7,12.5z M63.4,37.6c-7.5-0.1-13.7-6.4-13.7-14c-0.2-5.7,5.2-13.4,13.8-13.4c7.4,0,13.7,6.3,13.7,13.6
			C77.2,31.2,70.7,37.6,63.4,37.6z"/>
		<path class="st1" d="M71.8,19c0.2-0.9,0.5-1.9-0.9-1.9c-0.9-0.1-1.7,0.2-1.4,1.4c-0.2,0.3-0.6,0.2-0.9,0.2
			c0.6-1.5-0.9-2.9-0.3-4.6c0.3-0.9-1.4-1.8-3.2-1.4c-0.3-0.4-0.7-0.4-1.1-0.2c0.1,0.2,0.2,0.3,0.3,0.5c-0.5,0.1-1.7,1.7-1.5,1.8
			c1.6,0.2,0.3,1,0.3,1.4c-0.2,1.3-0.5,2.6,0,3.9c-0.1,0.2-0.2,0.4-0.4,0.6c-0.3,0-0.6,0-0.9,0c0-0.2,0-0.4,0-0.6
			c1.1-1.7,0.8-3.1-0.9-4.5c0.3-0.1,0.8,0,0.7-0.5c-0.1-0.3-0.5-0.2-0.8,0c-0.2,0.1-0.3,0.3-0.4,0.4c-0.4-0.1-0.5-0.8-1.1-0.3
			c-0.8,0.7-1.4,1.5-1.7,2.5c-0.1,0.1-0.2,0.2-0.2,0.4c0,0.1-0.1,0.2-0.1,0.3c0-0.3-0.1-0.5-0.3-0.7c-0.5-0.1-1-0.2-1.5-0.4
			c-0.2-0.5-0.3-1-1.1-1.2c0.3,0.6,0.5,1.2,0.4,1.8c-0.9,0.7-1.1,1.5-0.7,2.5c0.4,0.8,1.1,1.2,1.9,1.1c1-0.1,1.8-0.5,2-1.7
			c0.4,0.2,0.8,0.4,1.2,0.6c0.5,0.4,0.9,0.4,1.3-0.1c0,0,0-0.1,0-0.1l0,0c0,0,0,0.1-0.1,0.1c1.3,1,2.6,1.2,4.1,0.4
			c1.3,0.8,2.4,0,3.6-0.3c0.1,0.9-0.6,1.2-1.2,1.3c-1.8,0.4-0.4,1.5-0.3,2.1c0.1,0.9,0.8-0.1,1.2,0.1c0.7-0.1,1.3-0.2,2-0.3
			c0.1,0,0.2,0,0.3,0c1.3-0.6,1.5-0.9,0.8-1.8c0-0.1-0.1-0.1-0.1-0.2c-0.4-0.4-1-0.7-0.4-1.3c0.8-0.3,0.2-0.8,0.1-1.1
			c0.4,0,0.8,0,1.2,0c-0.2,0.7-0.4,1.5,0.4,2c0.4,0.3,0.9,0.2,1.3-0.1c0.4-0.4,0.7-0.9,0.5-1.6C73.4,18.7,72.6,18.8,71.8,19"/>
		<path class="st1" d="M83.9,7.2c-0.5,0.1-0.6,0.5-0.7,0.9c0,1.3,0,2.6,0,3.8c0,0.9,0.2,1.9-0.4,3.1c-0.6-2.3-0.2-4.4-0.5-6.4
			c-0.1-0.5,0.3-1.4-0.7-1.4c-1,0-0.7,0.9-0.7,1.5c0,2,0,4-0.6,6c-0.1-0.2-0.2-0.5-0.2-0.7c-0.1-1.9-0.1-3.8-0.1-5.8
			c0-0.5,0-1.1-0.6-1.1c-0.7-0.1-0.7,0.6-0.8,1c-0.1,1.6-0.2,3.2-0.3,4.8c-0.1,1.8,0.1,3.5,1.4,4.9c0.5,0.6,0.7,1.3,0.7,2.1
			c0,1.3-0.1,2.7-0.1,4c-0.2,4.1-0.6,8.2-0.1,12.3c0.1,1,0.1,2.6,1.5,2.6c1.4,0,1.4-1.6,1.5-2.6c0.5-3.2,0.2-6.4,0.2-9.6
			c0-3.6-1.4-7.5,1.4-10.7c0.1-0.1,0.1-0.2,0.1-0.3c0.4-2.6,0-5.1-0.1-7.6C84.7,7.6,84.5,7.2,83.9,7.2"/>
		<path class="st1" d="M70.3,30.5c-2.5-1.5-5.1-1.2-7.4,0.3c-1.4,0.9-2.3,0.9-3.4-0.2v0c0,0,0,0,0,0v0c0-0.1,0.1-0.2,0.1-0.3
			c0.3-0.5,0.8,0,1.2-0.3c0.7-0.3,1.1-0.9,1.9-1c0.6,0,0.9-0.3,0.9-0.9c0.8-0.8,1.5-1.6,2.1-2.6c0.7-1.3,0-2.5-1.5-2.6
			c-1.5,0-3,0-4.4,0.3c-2.4,0.5-3.9,2-4.2,4.2c-0.1,0.6,0.2,1.2,0.6,1.6c0.3,0.5,0.7,1,1.3,1.2c0.5,0.2,0.9,0.5,1.4,0.5
			c-0.6,0.2-1,0.7-0.7,1.6c0.1,0.4-0.1,0.8,0,1.3c0,0.5-0.4,1.2,0.2,1.4c0.6,0.3,1-0.3,1.3-0.7c0.9-0.8,1.5-0.9,2.7-0.2
			c2.4,1.6,5.1,1.9,7.7,0.5C72.3,33.6,72.3,31.7,70.3,30.5 M69.8,32.5c-0.4-0.1-0.6-0.4-0.6-0.8c0-0.3,0.2-0.5,0.5-0.5
			c0.4,0,0.6,0.4,0.7,0.8C70.2,32.3,70.1,32.5,69.8,32.5L69.8,32.5z"/>
	</g>
</g>
</svg>
