<svg width="292" height="46" viewBox="0 0 292 46" fill="none" xmlns="http://www.w3.org/2000/svg">
<g clip-path="url(#clip0_11_1494)">
<path d="M292 25.0154C292 22.0293 290.685 19.4527 286.442 19.4527C281.709 19.4527 280.734 23.1108 280.734 26.0235C280.734 29.46 281.823 32.223 286.855 32.223C288.957 32.223 290.273 31.9604 291.135 31.7007L291.697 28.9376C290.871 29.3103 289.558 29.6449 287.528 29.6449C284.525 29.6449 284.299 28.0029 284.336 26.584H291.81C291.918 26.0675 291.981 25.5427 291.999 25.0154M284.336 24.493C284.336 22.9244 284.9 21.73 286.441 21.73C288.432 21.73 288.432 23.6376 288.359 24.493H284.336ZM275.972 19.639L273.463 28.2656L270.946 19.639H267.154L271.547 32.0367H275.384L279.778 19.639H275.972ZM265.119 16.091C265.108 15.5496 264.886 15.0333 264.501 14.6504C264.116 14.2675 263.597 14.0476 263.053 14.0367C262 14.0367 260.986 14.9699 260.986 16.091C260.986 17.212 262.002 18.1453 263.053 18.1453C263.596 18.1322 264.113 17.9113 264.496 17.5287C264.88 17.146 265.1 16.631 265.111 16.091H265.119ZM266.245 29.7212C266.012 29.7867 265.773 29.8241 265.532 29.8327C265.043 29.8327 264.818 29.6449 264.818 29.1974V19.639H261.326V29.9824C261.326 31.9985 263.014 32.2964 263.765 32.2964C264.742 32.2964 265.831 32.1497 266.658 31.7373L266.245 29.7212ZM258.733 29.3485C258.295 29.5376 257.823 29.6374 257.346 29.642C256.481 29.642 256.218 29.2326 256.218 28.0748V22.0587H258.922V19.639H256.211V15.5305L252.681 16.7278V19.6405H251.254L250.736 22.066H252.688V28.8613C252.688 31.7373 254.459 32.223 255.842 32.223C256.975 32.2334 258.103 32.0695 259.186 31.7373L258.733 29.3485ZM249.759 29.7212C249.526 29.7868 249.286 29.8242 249.044 29.8327C248.556 29.8327 248.332 29.6082 248.332 29.1974V24.0822C248.332 20.3478 246.413 19.4527 242.887 19.4527C241.561 19.4355 240.241 19.6373 238.981 20.0499L238.41 22.7439C239.624 22.2972 240.908 22.0691 242.203 22.0704C243.931 22.0704 244.832 22.2935 244.832 23.8313V24.3918C244.537 24.3551 243.593 24.2788 243.141 24.2788C240.175 24.2788 237.547 25.3617 237.547 28.6104C237.547 30.7014 238.599 32.2333 241.415 32.2333C243.066 32.2333 243.968 31.7476 244.906 30.6647C245.17 31.4116 245.657 32.3067 247.268 32.3067C248.243 32.3067 249.295 32.1599 250.12 31.7476L249.759 29.7212ZM244.84 27.8136C244.84 29.2693 243.788 29.7212 242.735 29.7212C241.947 29.7212 241.047 29.3852 241.047 28.2656C241.047 27.369 241.459 26.3228 243.374 26.3228C243.865 26.3235 244.355 26.3607 244.84 26.4343V27.8136ZM234.887 16.088C234.877 15.5465 234.656 15.0301 234.27 14.6471C233.885 14.2641 233.366 14.0443 232.821 14.0338C231.769 14.0338 230.755 14.967 230.755 16.088C230.755 17.2091 231.77 18.1423 232.821 18.1423C233.364 18.1296 233.881 17.9093 234.264 17.5272C234.648 17.1451 234.868 16.6306 234.88 16.091L234.887 16.088ZM236.015 29.7183C235.782 29.7837 235.542 29.8212 235.3 29.8298C234.812 29.8298 234.586 29.642 234.586 29.1944V19.639H231.093V29.9824C231.093 31.9985 232.784 32.2964 233.535 32.2964C234.511 32.2964 235.601 32.1497 236.426 31.7373L236.015 29.7183ZM228.496 29.347C228.057 29.5361 227.584 29.6359 227.105 29.6405C226.242 29.6405 225.979 29.2311 225.979 28.0734V22.0572H228.683V19.639H225.979V15.5305L222.449 16.7278V19.6405H221.022L220.497 22.0675H222.449V28.8628C222.449 31.7388 224.22 32.2245 225.603 32.2245C226.736 32.235 227.863 32.0711 228.946 31.7388L228.496 29.347ZM218.28 16.0895C218.27 15.548 218.049 15.0315 217.663 14.6485C217.278 14.2655 216.759 14.0457 216.214 14.0352C215.162 14.0352 214.148 14.9685 214.148 16.0895C214.148 17.2106 215.16 18.1438 216.214 18.1438C216.758 18.1329 217.277 17.9132 217.662 17.5306C218.048 17.148 218.269 16.6321 218.28 16.091V16.0895ZM219.406 29.7197C219.174 29.7854 218.935 29.8228 218.693 29.8313C218.205 29.8313 217.981 29.6434 217.981 29.1959V19.639H214.489V29.9824C214.489 31.9985 216.177 32.2964 216.928 32.2964C217.905 32.2964 218.994 32.1497 219.819 31.7373L219.406 29.7197ZM212.348 29.7197C212.093 29.802 211.826 29.8398 211.558 29.8313C211.145 29.8313 210.92 29.6068 210.92 29.1959V23.3734C210.92 19.9751 209.456 19.4527 207.052 19.4527C205.429 19.4527 204.048 20.2729 203.034 21.0213V19.639H199.504V32.0367H203.034V23.8577C203.859 23.2238 205.363 22.4035 206.151 22.4035C207.203 22.4035 207.389 22.6632 207.389 24.3111V29.9868C207.389 32.0029 209.119 32.3008 209.868 32.3008C210.882 32.3008 211.934 32.1541 212.722 31.7417L212.348 29.7197ZM196.2 16.0895C196.189 15.5481 195.967 15.0319 195.582 14.6489C195.197 14.266 194.678 14.0461 194.133 14.0352C193.083 14.0352 192.067 14.9685 192.067 16.0895C192.067 17.2106 193.081 18.1438 194.133 18.1438C194.678 18.1326 195.196 17.9127 195.581 17.5302C195.966 17.1477 196.188 16.632 196.2 16.091V16.0895ZM197.327 29.7197C197.094 29.7851 196.854 29.8225 196.613 29.8313C196.123 29.8313 195.898 29.6434 195.898 29.1959V19.639H192.407V29.9824C192.407 31.9985 194.095 32.2964 194.846 32.2964C195.825 32.2964 196.912 32.1497 197.74 31.7373L197.327 29.7197Z" fill="#231F20"/>
<path d="M292 25.0154C292 22.0293 290.685 19.4527 286.442 19.4527C281.709 19.4527 280.734 23.1108 280.734 26.0235C280.734 29.46 281.823 32.223 286.855 32.223C288.957 32.223 290.273 31.9604 291.135 31.7007L291.697 28.9376C290.871 29.3103 289.558 29.6449 287.528 29.6449C284.525 29.6449 284.299 28.0029 284.336 26.584H291.81C291.918 26.0675 291.981 25.5427 291.999 25.0154M284.336 24.493C284.336 22.9244 284.9 21.73 286.441 21.73C288.432 21.73 288.432 23.6376 288.359 24.493H284.336ZM275.972 19.639L273.463 28.2656L270.946 19.639H267.154L271.547 32.0367H275.384L279.778 19.639H275.972ZM265.119 16.091C265.108 15.5496 264.886 15.0333 264.501 14.6504C264.116 14.2675 263.597 14.0476 263.053 14.0367C262 14.0367 260.986 14.9699 260.986 16.091C260.986 17.212 262.002 18.1453 263.053 18.1453C263.596 18.1322 264.113 17.9113 264.496 17.5287C264.88 17.146 265.1 16.631 265.111 16.091H265.119ZM266.245 29.7212C266.012 29.7867 265.773 29.8241 265.532 29.8327C265.043 29.8327 264.818 29.6449 264.818 29.1974V19.639H261.326V29.9824C261.326 31.9985 263.014 32.2964 263.765 32.2964C264.742 32.2964 265.831 32.1497 266.658 31.7373L266.245 29.7212ZM258.733 29.3485C258.295 29.5376 257.823 29.6374 257.346 29.642C256.481 29.642 256.218 29.2326 256.218 28.0748V22.0587H258.922V19.639H256.211V15.5305L252.681 16.7278V19.6405H251.254L250.736 22.066H252.688V28.8613C252.688 31.7373 254.459 32.223 255.842 32.223C256.975 32.2334 258.103 32.0695 259.186 31.7373L258.733 29.3485ZM249.759 29.7212C249.526 29.7868 249.286 29.8242 249.044 29.8327C248.556 29.8327 248.332 29.6082 248.332 29.1974V24.0822C248.332 20.3478 246.413 19.4527 242.887 19.4527C241.561 19.4355 240.241 19.6373 238.981 20.0499L238.41 22.7439C239.624 22.2972 240.908 22.0691 242.203 22.0704C243.931 22.0704 244.832 22.2935 244.832 23.8313V24.3918C244.537 24.3551 243.593 24.2788 243.141 24.2788C240.175 24.2788 237.547 25.3617 237.547 28.6104C237.547 30.7014 238.599 32.2333 241.415 32.2333C243.066 32.2333 243.968 31.7476 244.906 30.6647C245.17 31.4116 245.657 32.3067 247.268 32.3067C248.243 32.3067 249.295 32.1599 250.12 31.7476L249.759 29.7212ZM244.84 27.8136C244.84 29.2693 243.788 29.7212 242.735 29.7212C241.947 29.7212 241.047 29.3852 241.047 28.2656C241.047 27.369 241.459 26.3228 243.374 26.3228C243.865 26.3235 244.355 26.3607 244.84 26.4343V27.8136ZM234.887 16.088C234.877 15.5465 234.656 15.0301 234.27 14.6471C233.885 14.2641 233.366 14.0443 232.821 14.0338C231.769 14.0338 230.755 14.967 230.755 16.088C230.755 17.2091 231.77 18.1423 232.821 18.1423C233.364 18.1296 233.881 17.9093 234.264 17.5272C234.648 17.1451 234.868 16.6306 234.88 16.091L234.887 16.088ZM236.015 29.7183C235.782 29.7837 235.542 29.8212 235.3 29.8298C234.812 29.8298 234.586 29.642 234.586 29.1944V19.639H231.093V29.9824C231.093 31.9985 232.784 32.2964 233.535 32.2964C234.511 32.2964 235.601 32.1497 236.426 31.7373L236.015 29.7183ZM228.496 29.347C228.057 29.5361 227.584 29.6359 227.105 29.6405C226.242 29.6405 225.979 29.2311 225.979 28.0734V22.0572H228.683V19.639H225.979V15.5305L222.449 16.7278V19.6405H221.022L220.497 22.0675H222.449V28.8628C222.449 31.7388 224.22 32.2245 225.603 32.2245C226.736 32.235 227.863 32.0711 228.946 31.7388L228.496 29.347ZM218.28 16.0895C218.27 15.548 218.049 15.0315 217.663 14.6485C217.278 14.2655 216.759 14.0457 216.214 14.0352C215.162 14.0352 214.148 14.9685 214.148 16.0895C214.148 17.2106 215.16 18.1438 216.214 18.1438C216.758 18.1329 217.277 17.9132 217.662 17.5306C218.048 17.148 218.269 16.6321 218.28 16.091V16.0895ZM219.406 29.7197C219.174 29.7854 218.935 29.8228 218.693 29.8313C218.205 29.8313 217.981 29.6434 217.981 29.1959V19.639H214.489V29.9824C214.489 31.9985 216.177 32.2964 216.928 32.2964C217.905 32.2964 218.994 32.1497 219.819 31.7373L219.406 29.7197ZM212.348 29.7197C212.093 29.802 211.826 29.8398 211.558 29.8313C211.145 29.8313 210.92 29.6068 210.92 29.1959V23.3734C210.92 19.9751 209.456 19.4527 207.052 19.4527C205.429 19.4527 204.048 20.2729 203.034 21.0213V19.639H199.504V32.0367H203.034V23.8577C203.859 23.2238 205.363 22.4035 206.151 22.4035C207.203 22.4035 207.389 22.6632 207.389 24.3111V29.9868C207.389 32.0029 209.119 32.3008 209.868 32.3008C210.882 32.3008 211.934 32.1541 212.722 31.7417L212.348 29.7197ZM196.2 16.0895C196.189 15.5481 195.967 15.0319 195.582 14.6489C195.197 14.266 194.678 14.0461 194.133 14.0352C193.083 14.0352 192.067 14.9685 192.067 16.0895C192.067 17.2106 193.081 18.1438 194.133 18.1438C194.678 18.1326 195.196 17.9127 195.581 17.5302C195.966 17.1477 196.188 16.632 196.2 16.091V16.0895ZM197.327 29.7197C197.094 29.7851 196.854 29.8225 196.613 29.8313C196.123 29.8313 195.898 29.6434 195.898 29.1959V19.639H192.407V29.9824C192.407 31.9985 194.095 32.2964 194.846 32.2964C195.825 32.2964 196.912 32.1497 197.74 31.7373L197.327 29.7197Z" fill="#231F20"/>
<path d="M59.4342 19.956V19.8709C67.647 14.0513 72.0182 6.14672 69.1316 2.15259C66.3365 -1.75497 57.3386 -0.195177 49.2085 5.62727C48.079 6.39687 47.0004 7.23794 45.9795 8.14525C46.7661 10.1453 47.3727 12.4901 47.8154 15.0961C51.3042 15.7021 55.3301 17.3558 59.4328 19.9589" fill="#3AAFB1"/>
<path d="M63.016 22.4798C61.8714 21.5713 60.6756 20.7286 59.4342 19.956C55.6784 22.5605 51.7484 24.2993 48.3422 25.0829C48.1932 28.4377 47.6352 31.762 46.6805 34.9831C47.9025 36.111 49.212 37.2404 50.609 38.3712C60.1323 45.7535 70.7004 48.1863 74.1094 43.843C77.6056 39.413 72.6336 29.8577 63.0174 22.4754" fill="#AED036"/>
<path d="M48.4249 22.4798C48.4249 23.347 48.4249 24.2157 48.3422 25.0873C51.7483 24.3037 55.6783 22.5649 59.4327 19.9604C55.3301 17.3558 51.3071 15.7051 47.8154 15.0946C48.2507 17.3558 48.4249 19.8723 48.4249 22.4798Z" fill="#219869"/>
<path d="M39.2559 17.3558C40.3022 14.3991 42.6649 11.193 45.9825 8.14526C44.4122 4.23771 42.2266 1.80484 39.7842 1.80484C35.0617 1.80484 31.2246 11.102 31.2246 22.4784C31.2246 33.9413 35.0705 43.1533 39.7842 43.1533C42.6708 43.1533 45.1147 39.9384 46.6879 34.989C39.9524 28.4666 36.719 21.1768 39.2559 17.3558Z" fill="#E34825"/>
<path d="M39.2558 17.3558L39.43 17.0051C41.0017 15.0081 44.0639 14.3991 47.8169 15.0976C47.4885 12.7167 46.8726 10.3839 45.9824 8.14966C42.6634 11.1871 40.3007 14.3991 39.2558 17.3558Z" fill="#2C5455"/>
<path d="M39.5171 23.2619C38.3792 21.7843 38.3792 19.6992 39.2544 17.3544C36.719 21.1768 39.9524 28.4725 46.6805 34.9875C47.6359 31.7682 48.1934 28.4451 48.3408 25.0917C44.3178 25.9589 41.0858 25.4365 39.5171 23.2663" fill="#A43429"/>
<path d="M47.8154 15.0946C44.0639 14.4006 41.0017 15.0081 39.427 17.0022L39.2558 17.3558C38.3792 19.7036 38.3792 21.7843 39.5156 23.2604C41.0017 25.4321 44.3178 25.9545 48.3422 25.0873C48.4249 24.2157 48.4249 23.347 48.4249 22.4798C48.4249 19.8723 48.2522 17.3558 47.8154 15.0946Z" fill="#282834"/>
<path d="M92.4401 29.0535H89.2288V17.4776H92.4401C93.3536 17.4776 96.2919 17.9325 96.2919 23.3103C96.2919 28.5018 93.6355 29.0491 92.4401 29.0491M91.9826 14.6515H86.1164V31.8738H92.1671C94.4605 31.8738 99.5903 31.055 99.5903 23.3103C99.5873 17.4776 97.1066 14.6515 91.9826 14.6515Z" fill="#231F20"/>
<path d="M128.004 14.6515H124.156L118.197 22.1247V14.6515H114.986V31.8738H118.197V26.4989L120.49 23.7667L124.978 31.8738H128.644L122.593 21.121L128.004 14.6515Z" fill="#231F20"/>
<path d="M162.558 27.1357L159.805 19.391H153.846V14.1086H150.825V19.391H145.967V14.1086H142.94V19.391H136.709V27.774C136.252 28.3228 134.695 29.2414 133.411 29.2414C132.586 29.2414 132.311 29.1504 132.311 27.5979V19.391H129.286V27.865C129.286 31.328 130.762 32.0587 133.133 32.0587C134.51 32.0587 135.884 31.325 136.801 30.6016C136.982 31.237 137.539 32.0587 139.001 32.0587C139.739 32.0587 140.56 31.8738 141.02 31.6023L141.2 31.5114L140.834 29.5084L140.56 29.6904H140.008C139.733 29.6904 139.733 29.5084 139.733 29.4145V21.9428H142.94V28.6926C142.94 31.0624 143.763 32.0675 145.784 32.0675C147.065 32.0675 147.615 31.8826 148.44 31.5202L148.712 31.4277L148.256 28.967L147.888 29.1533C147.611 29.3324 147.06 29.4233 146.786 29.4233C146.147 29.4233 145.962 29.4233 145.962 28.4197V21.9428H150.825V28.6926C150.825 31.0624 151.652 32.0675 153.573 32.0675C154.951 32.0675 155.499 31.8826 156.324 31.5202L156.6 31.4277L156.052 28.967L155.685 29.1533C155.499 29.3324 154.947 29.4233 154.675 29.4233C154.03 29.4233 153.847 29.4233 153.847 28.4197V21.9428H157.513L161.089 31.237C160.267 33.9721 159.535 33.9721 158.983 33.9721C158.361 33.976 157.741 33.8834 157.147 33.6977L156.781 33.5158L156.235 36.157L156.417 36.248C156.781 36.4285 157.974 36.7043 158.983 36.7043C161.364 36.7043 162.559 35.5158 163.748 32.0558L168.148 19.3881H164.845L162.558 27.1357Z" fill="#231F20"/>
<path d="M171.077 13.2854C169.886 13.2854 169.34 14.1042 169.34 14.8349C169.34 15.4732 169.618 15.8357 169.886 16.1996C170.097 16.3897 170.228 16.6515 170.254 16.9332C170.254 17.2076 169.796 17.752 168.974 18.2098L168.791 18.3918L169.34 19.9398L169.706 19.8503C170.62 19.394 172.822 18.1174 172.822 15.6596C172.822 14.2905 172.084 13.2883 171.077 13.2883" fill="#231F20"/>
<path d="M178.043 23.9487C176.943 23.5818 176.03 23.215 176.03 22.6721C176.03 22.3977 176.03 21.7594 178.043 21.7594C178.962 21.7594 179.961 21.9428 180.795 22.3977L181.16 22.5811L181.71 19.9398L181.436 19.8489C180.429 19.3911 179.327 19.2106 177.951 19.2106C174.836 19.2106 173.005 20.4857 173.005 22.7645C173.005 25.1343 175.204 25.9545 176.853 26.5914C178.043 27.0462 179.055 27.4131 179.055 28.1379C179.055 28.8628 178.779 29.5099 176.582 29.5099C175.661 29.5099 174.287 29.0506 173.647 28.7762L173.281 28.5928L172.64 31.4189L172.912 31.5099C174.106 31.8753 175.391 32.0558 177.035 32.0558C179.969 32.0558 182.078 30.4153 182.078 28.1365C182.078 25.4952 179.694 24.5855 178.043 23.9487Z" fill="#231F20"/>
<path d="M105.274 19.6625C104.346 19.8296 103.45 20.1374 102.617 20.5752C102.253 20.7572 101.978 21.0301 101.702 21.2106V31.8723H104.726V23.3999C105.644 21.303 108.12 22.0338 108.671 22.2172L109.127 20.0279C107.93 19.6625 106.552 19.482 105.274 19.6625Z" fill="#231F20"/>
<path fill-rule="evenodd" clip-rule="evenodd" d="M10.2213 13.73H6.02267L0 32.1262H4.31667L5.34971 28.6985H10.8957L11.9288 32.1262H16.2853L10.2213 13.73ZM6.2588 25.3852L8.11681 18.9288L9.97925 25.3852H6.2588Z" fill="#30302F"/>
<path d="M59.4342 19.956V19.8709C67.647 14.0513 72.0182 6.14672 69.1316 2.15259C66.3365 -1.75497 57.3386 -0.195177 49.2085 5.62727C48.079 6.39687 47.0004 7.23794 45.9795 8.14525C46.7661 10.1453 47.3727 12.4901 47.8154 15.0961C51.3042 15.7021 55.3301 17.3558 59.4328 19.9589" fill="#3AAFB1"/>
<path d="M63.016 22.4798C61.8714 21.5713 60.6756 20.7286 59.4342 19.956C55.6784 22.5605 51.7484 24.2993 48.3422 25.0829C48.1932 28.4377 47.6352 31.762 46.6805 34.9831C47.9025 36.111 49.212 37.2404 50.609 38.3712C60.1323 45.7535 70.7004 48.1863 74.1094 43.843C77.6056 39.413 72.6336 29.8577 63.0174 22.4754" fill="#AED036"/>
<path d="M48.4249 22.4798C48.4249 23.347 48.4249 24.2157 48.3422 25.0873C51.7483 24.3037 55.6783 22.5649 59.4327 19.9604C55.3301 17.3558 51.3071 15.7051 47.8154 15.0946C48.2507 17.3558 48.4249 19.8723 48.4249 22.4798Z" fill="#219869"/>
<path d="M39.2559 17.3558C40.3022 14.3991 42.6649 11.193 45.9825 8.14526C44.4122 4.23771 42.2266 1.80484 39.7842 1.80484C35.0617 1.80484 31.2246 11.102 31.2246 22.4784C31.2246 33.9413 35.0705 43.1533 39.7842 43.1533C42.6708 43.1533 45.1147 39.9384 46.6879 34.989C39.9524 28.4666 36.719 21.1768 39.2559 17.3558Z" fill="#991F1F"/>
<path d="M39.2558 17.3558L39.43 17.0051C41.0017 15.0081 44.0639 14.3991 47.8169 15.0976C47.4885 12.7167 46.8726 10.3839 45.9824 8.14966C42.6634 11.1871 40.3007 14.3991 39.2558 17.3558Z" fill="#2C5455"/>
<path d="M39.5171 23.2619C38.3792 21.7843 38.3792 19.6992 39.2544 17.3544C36.719 21.1768 39.9524 28.4725 46.6805 34.9875C47.6359 31.7682 48.1934 28.4451 48.3408 25.0917C44.3178 25.9589 41.0858 25.4365 39.5171 23.2663" fill="#A43429"/>
<path d="M47.8154 15.0946C44.0639 14.4006 41.0017 15.0081 39.427 17.0022L39.2558 17.3558C38.3792 19.7036 38.3792 21.7843 39.5156 23.2604C41.0017 25.4321 44.3178 25.9545 48.3422 25.0873C48.4249 24.2157 48.4249 23.347 48.4249 22.4798C48.4249 19.8723 48.2522 17.3558 47.8154 15.0946Z" fill="#282834"/>
<path d="M92.4401 29.0535H89.2288V17.4776H92.4401C93.3536 17.4776 96.2919 17.9325 96.2919 23.3103C96.2919 28.5018 93.6355 29.0491 92.4401 29.0491M91.9826 14.6515H86.1164V31.8738H92.1671C94.4605 31.8738 99.5903 31.055 99.5903 23.3103C99.5873 17.4776 97.1066 14.6515 91.9826 14.6515Z" fill="#231F20"/>
<path d="M128.004 14.6515H124.156L118.197 22.1247V14.6515H114.986V31.8738H118.197V26.4989L120.49 23.7667L124.978 31.8738H128.644L122.593 21.121L128.004 14.6515Z" fill="#231F20"/>
<path d="M162.558 27.1357L159.805 19.391H153.846V14.1086H150.825V19.391H145.967V14.1086H142.94V19.391H136.709V27.774C136.252 28.3228 134.695 29.2414 133.411 29.2414C132.586 29.2414 132.311 29.1504 132.311 27.5979V19.391H129.286V27.865C129.286 31.328 130.762 32.0587 133.133 32.0587C134.51 32.0587 135.884 31.325 136.801 30.6016C136.982 31.237 137.539 32.0587 139.001 32.0587C139.739 32.0587 140.56 31.8738 141.02 31.6023L141.2 31.5114L140.834 29.5084L140.56 29.6904H140.008C139.733 29.6904 139.733 29.5084 139.733 29.4145V21.9428H142.94V28.6926C142.94 31.0624 143.763 32.0675 145.784 32.0675C147.065 32.0675 147.615 31.8826 148.44 31.5202L148.712 31.4277L148.256 28.967L147.888 29.1533C147.611 29.3324 147.06 29.4233 146.786 29.4233C146.147 29.4233 145.962 29.4233 145.962 28.4197V21.9428H150.825V28.6926C150.825 31.0624 151.652 32.0675 153.573 32.0675C154.951 32.0675 155.499 31.8826 156.324 31.5202L156.6 31.4277L156.052 28.967L155.685 29.1533C155.499 29.3324 154.947 29.4233 154.675 29.4233C154.03 29.4233 153.847 29.4233 153.847 28.4197V21.9428H157.513L161.089 31.237C160.267 33.9721 159.535 33.9721 158.983 33.9721C158.361 33.976 157.741 33.8834 157.147 33.6977L156.781 33.5158L156.235 36.157L156.417 36.248C156.781 36.4285 157.974 36.7043 158.983 36.7043C161.364 36.7043 162.559 35.5158 163.748 32.0558L168.148 19.3881H164.845L162.558 27.1357Z" fill="#231F20"/>
<path d="M171.077 13.2854C169.886 13.2854 169.34 14.1042 169.34 14.8349C169.34 15.4732 169.618 15.8357 169.886 16.1996C170.097 16.3897 170.228 16.6515 170.254 16.9332C170.254 17.2076 169.796 17.752 168.974 18.2098L168.791 18.3918L169.34 19.9398L169.706 19.8503C170.62 19.394 172.822 18.1174 172.822 15.6596C172.822 14.2905 172.084 13.2883 171.077 13.2883" fill="#231F20"/>
<path d="M178.043 23.9487C176.943 23.5818 176.03 23.215 176.03 22.6721C176.03 22.3977 176.03 21.7594 178.043 21.7594C178.962 21.7594 179.961 21.9428 180.795 22.3977L181.16 22.5811L181.71 19.9398L181.436 19.8489C180.429 19.3911 179.327 19.2106 177.951 19.2106C174.836 19.2106 173.005 20.4857 173.005 22.7645C173.005 25.1343 175.204 25.9545 176.853 26.5914C178.043 27.0462 179.055 27.4131 179.055 28.1379C179.055 28.8628 178.779 29.5099 176.582 29.5099C175.661 29.5099 174.287 29.0506 173.647 28.7762L173.281 28.5928L172.64 31.4189L172.912 31.5099C174.106 31.8753 175.391 32.0558 177.035 32.0558C179.969 32.0558 182.078 30.4153 182.078 28.1365C182.078 25.4952 179.694 24.5855 178.043 23.9487Z" fill="#231F20"/>
<path d="M105.274 19.6625C104.346 19.8296 103.45 20.1374 102.617 20.5752C102.253 20.7572 101.978 21.0301 101.702 21.2106V31.8723H104.726V23.3999C105.644 21.303 108.12 22.0338 108.671 22.2172L109.127 20.0279C107.93 19.6625 106.552 19.482 105.274 19.6625Z" fill="#231F20"/>
<path d="M10.2213 13.73H6.02267L0 32.1262H4.31667L5.34971 28.6985H10.8957L11.9288 32.1262H16.2853L10.2213 13.73ZM6.2588 25.3852L8.11681 18.9288L9.97925 25.3852H6.2588Z" fill="#231F20"/>
</g>
<defs>
<clipPath id="clip0_11_1494">
<rect width="292" height="46" fill="white"/>
</clipPath>
</defs>
</svg>
