<svg width="40" height="27" viewBox="0 0 40 27" fill="none" xmlns="http://www.w3.org/2000/svg">
<g clip-path="url(#clip0_6_46)">
<path d="M22.7856 10.2178C22.7856 10.8516 22.8159 11.4863 22.7752 12.1228C22.731 12.8449 22.6548 13.5706 22.5388 14.2876C22.3812 15.2756 22.2054 16.2618 21.9812 17.2386C21.7146 18.3884 21.3421 19.5111 20.8685 20.5923C20.587 21.2417 20.2987 21.8911 19.9541 22.5129C19.5566 23.2272 19.1436 23.9451 18.6457 24.5911C18.1763 25.1972 17.4914 25.5366 16.7233 25.6639C15.9076 25.7981 15.15 25.6388 14.4027 25.2812C13.3094 24.7698 12.2617 24.1664 11.2707 23.4775C10.5684 22.9796 9.88521 22.4471 9.22538 21.8955C8.67432 21.4386 8.14851 20.9521 7.65029 20.4381C7.05627 19.8173 6.47698 19.1748 5.94704 18.4985C5.27769 17.6464 4.63518 16.7667 4.03597 15.8679C3.52508 15.0989 3.08346 14.2832 2.62453 13.4788C1.97076 12.2984 1.3999 11.0739 0.91608 9.81425C0.597424 9.00462 0.324661 8.17767 0.0475692 7.35506C-0.149859 6.76277 0.291757 6.03973 0.933398 5.92197C1.26071 5.86309 1.60881 5.92197 1.94652 5.92197C1.99241 5.92197 2.03744 5.94448 2.08333 5.94448C2.5769 5.95834 3.07394 5.98691 3.56751 5.97999C4.16152 5.9696 4.75727 5.95834 5.34956 5.90119C6.17391 5.82066 6.99479 5.69856 7.81828 5.58946C8.87983 5.43499 9.9258 5.18784 10.9442 4.85084C11.4248 4.69497 11.9288 4.59885 12.3981 4.41788C13.3766 4.03515 14.3516 3.63856 15.3084 3.2004C16.4552 2.66621 17.5528 2.03223 18.5885 1.30579C18.9565 1.05381 19.3306 0.813081 19.6709 0.526464C20.3229 -0.0173294 21.4521 0.278813 21.6374 1.21919C21.8357 2.215 22.0972 3.19521 22.2972 4.18928C22.4141 4.77723 22.4704 5.37731 22.5457 5.97306C22.6211 6.56881 22.6834 7.14204 22.7432 7.72653C22.7683 7.97505 22.7795 8.22617 22.7839 8.47728C22.7891 9.05658 22.7839 9.6376 22.7839 10.2186M19.4328 16.0861C16.7121 18.5106 13.561 19.4484 9.92418 18.8509C11.4889 20.5195 13.7723 21.1352 16.2679 20.0944C18.1504 19.3099 19.2327 17.6334 19.4345 16.0852L19.4328 16.0861ZM7.73775 9.66791C7.59574 9.68523 7.45113 9.70082 7.30479 9.72333C6.85315 9.78758 6.44117 10.0164 6.14793 10.3658C5.84824 10.7381 5.62995 11.1691 5.50715 11.6309C5.28548 12.3592 5.82061 12.9298 6.47698 12.8614C6.69259 12.8398 6.90993 12.8051 7.12208 12.7861C7.61219 12.7436 8.1023 12.7107 8.59413 12.6631C9.20027 12.6034 9.80641 12.5263 10.4082 12.4691C10.5817 12.4565 10.7473 12.3919 10.8835 12.2838C11.0197 12.1757 11.1202 12.029 11.172 11.863C11.2776 11.4751 11.1564 11.0638 10.8368 10.8785C10.3249 10.5669 9.79622 10.2839 9.25309 10.0307C8.77852 9.80626 8.26252 9.68272 7.73775 9.66791ZM17.5018 6.8104C17.3699 6.80962 17.2382 6.81888 17.1078 6.83811C16.6557 6.94831 16.2428 7.18113 15.9146 7.51092C15.2149 8.17421 14.7568 9.00289 14.368 9.86967C14.1949 10.2489 14.4009 10.7105 14.7785 10.9218C15.1145 11.1097 15.4392 11.0568 15.7639 10.8828C16.3657 10.5693 16.9718 10.2602 17.5693 9.9528C18.1097 9.6757 18.65 9.40121 19.1903 9.12239C19.3796 9.01905 19.525 8.85056 19.5995 8.64817C19.6741 8.44578 19.6727 8.22323 19.5956 8.02181C19.496 7.7681 19.3037 7.60877 19.102 7.45031C18.6327 7.08403 18.133 6.78355 17.5018 6.81213V6.8104Z" fill="#000003"/>
<path d="M22.183 19.7457C24.4897 20.1787 26.4051 21.3979 28.0547 23.0934C28.0487 21.2646 26.4026 18.4174 22.6575 18.1308C22.7155 17.8944 22.7796 17.6658 22.8307 17.4312C23.0038 16.58 23.1978 15.7279 23.3407 14.8707C23.4541 14.1883 23.5139 13.4956 23.5823 12.8055C23.623 12.4149 23.6342 12.0192 23.6689 11.6269C23.6787 11.594 23.6956 11.5635 23.7183 11.5377C23.741 11.5118 23.769 11.4912 23.8005 11.4771C24.4687 11.1768 25.0892 10.78 25.6423 10.2995C25.7768 10.1916 25.8721 10.0424 25.9134 9.87494C25.9548 9.70748 25.9398 9.53108 25.8709 9.37297C25.7029 8.95733 25.4518 8.79281 25.0188 8.77289C24.5859 8.75298 24.133 8.7677 23.6654 8.7677C23.5757 6.85595 23.3442 4.9535 22.9727 3.07605C23.3978 3.367 23.784 3.64322 24.1849 3.90127C25.1331 4.5074 26.0943 5.09882 27.1291 5.55083C27.8149 5.8487 28.5015 6.14658 29.1995 6.41674C30.0117 6.72847 30.8222 7.04366 31.6569 7.28266C32.4717 7.52078 33.3099 7.6879 34.1464 7.8481C34.7984 7.97279 35.4617 8.04986 36.1207 8.12865C36.59 8.1858 37.0611 8.22044 37.5321 8.24815C37.9651 8.2724 38.4032 8.2724 38.8379 8.29145C39.0303 8.30017 39.2178 8.35459 39.385 8.4502C39.5521 8.54581 39.6941 8.67986 39.7991 8.84126C39.9041 9.00265 39.9692 9.18675 39.9889 9.37829C40.0087 9.56984 39.9825 9.76333 39.9125 9.94274C39.3101 11.4144 38.6064 12.8425 37.8066 14.2169C37.0928 15.4785 36.2889 16.687 35.4011 17.8329C34.8738 18.5092 34.3127 19.163 33.7472 19.8081C33.3342 20.2932 32.8955 20.7556 32.4328 21.1936C31.7851 21.7997 31.1192 22.3859 30.423 22.9323C29.6866 23.517 28.9213 24.0644 28.13 24.5723C27.2136 25.1617 26.2435 25.663 25.2327 26.0695C24.6266 26.312 24.0204 26.5847 23.3866 26.7423C22.512 26.9614 21.6625 26.8081 20.8798 26.331C20.3442 25.998 19.9086 25.5265 19.619 24.9663C19.6062 24.9298 19.6015 24.8909 19.6051 24.8524C19.6087 24.8138 19.6205 24.7765 19.6398 24.7429C20.0589 24.0216 20.5221 23.3237 20.8971 22.5781C21.3603 21.6629 21.7491 20.7095 22.183 19.744M34.0001 14.2827C34.0035 14.1701 33.981 14.0582 33.9343 13.9556C33.8876 13.8531 33.818 13.7626 33.7308 13.6913C33.0761 13.0898 32.4209 12.4891 31.7652 11.8893C31.4101 11.5672 31.056 11.2433 30.6888 10.9368C30.4048 10.6944 30.0446 10.6944 29.6679 10.9238C29.3951 11.0892 29.2159 11.4373 29.2782 11.7031C29.4182 12.3633 29.5916 13.0158 29.7978 13.6584C29.9808 14.2357 30.328 14.7472 30.7971 15.1304C31.1847 15.45 31.6819 15.6054 32.1825 15.5634C32.6563 15.5105 33.1148 15.3633 33.5308 15.1304C33.685 15.0526 33.8123 14.9301 33.896 14.7789C33.9797 14.6277 34.016 14.4548 34.0001 14.2827Z" fill="#000003"/>
</g>
<defs>
<clipPath id="clip0_6_46">
<rect width="40" height="26.5853" fill="white" transform="translate(0 0.254883)"/>
</clipPath>
</defs>
</svg>
