<svg width="40" height="39" viewBox="0 0 40 39" fill="none" xmlns="http://www.w3.org/2000/svg">
<g clip-path="url(#clip0_6_68)">
<path d="M38.2391 6.16952C34.5618 6.16183 30.8839 6.16013 27.2055 6.1644C26.2105 6.16653 25.5936 6.87086 25.5966 7.97431C25.5966 9.04148 26.2075 9.70867 27.1957 9.70867C29.0255 9.71123 30.8551 9.71209 32.6843 9.71123C34.5318 9.71123 36.3797 9.71593 38.2298 9.70867C39.3913 9.70611 40.0051 9.08758 40 7.95382C39.9953 6.80128 39.3866 6.17123 38.2391 6.16952Z" fill="#000003"/>
<path d="M37.4495 34.0665C34.0428 34.0636 30.637 34.0636 27.232 34.0665C26.2075 34.0665 25.6056 34.7251 25.5958 35.8341C25.5864 36.9222 26.2148 37.6112 27.2252 37.6112C28.9369 37.6137 30.6498 37.6137 32.3638 37.6112H37.4435C38.605 37.6112 39.2684 36.9922 39.2837 35.8986C39.2982 34.7072 38.6648 34.0686 37.4482 34.0665" fill="#000003"/>
<path d="M14.747 6.17002C13.988 6.1602 13.229 6.16703 12.4696 6.16703H10.2073V5.52374C10.2073 4.25979 10.2124 2.99242 10.2026 1.72761C10.1966 0.636541 9.47262 -0.0169923 8.30642 8.2402e-05C7.19656 0.0154496 6.52937 0.651055 6.52297 1.70755C6.51827 2.95443 6.52297 4.20216 6.52297 5.44605V6.1602C4.85178 6.1602 3.27579 6.14739 1.69937 6.1649C0.658668 6.17514 -0.00809834 6.90722 1.21322e-05 7.98335C0.00513454 9.01381 0.682999 9.69978 1.71431 9.7049C3.1345 9.71259 4.55767 9.72497 5.97828 9.69978C6.42308 9.69253 6.54132 9.83595 6.53321 10.2675C6.50717 11.5524 6.51016 12.8377 6.53065 14.1226C6.54815 15.3063 7.19187 15.9222 8.35294 15.9154C9.5422 15.9056 10.1885 15.264 10.2064 14.0726C10.2111 13.761 10.2064 13.4494 10.2064 13.1369V9.7096H10.9095C12.1977 9.7096 13.4818 9.72027 14.7666 9.7096C16.0045 9.69679 16.7345 9.03856 16.7323 7.96713C16.7298 6.84319 16.0109 6.18709 14.7461 6.17002" fill="#000003"/>
<path d="M14.2313 28.4668C15.0308 27.6289 14.9996 26.6108 14.2065 25.8894C13.4198 25.1753 12.505 25.2107 11.6671 26.0328C10.5833 27.0962 9.52464 28.1821 8.40838 29.309C7.30536 28.2017 6.25441 27.1619 5.2214 26.1054C4.83124 25.7059 4.37406 25.5526 3.8456 25.6457C3.02644 25.7865 2.48518 26.3013 2.19405 27.0543C1.92513 27.751 2.17698 28.3294 2.70629 28.8348C3.7423 29.8298 4.75526 30.8483 5.82242 31.8988C4.64299 33.0706 3.51948 34.1715 2.41133 35.2903C1.64297 36.0616 1.68224 37.0276 2.48048 37.8088C3.20616 38.52 4.18368 38.52 4.9196 37.7939C5.91762 36.8082 6.90325 35.8141 7.897 34.822C8.0289 34.6914 8.1719 34.5732 8.3499 34.4148C9.41109 35.4931 10.4219 36.5466 11.466 37.5672C12.1751 38.2609 12.9942 38.2959 13.7284 37.7311C14.8144 36.894 14.9049 35.8149 13.9419 34.8417C12.9438 33.8347 11.9206 32.8503 10.7963 31.7452C11.0404 31.5744 11.2364 31.4681 11.3875 31.3183C12.342 30.3732 13.3058 29.4362 14.233 28.4655" fill="#000003"/>
<path d="M27.2465 30.2115C28.9587 30.2192 30.6704 30.2141 32.3826 30.2141V30.2064C34.0947 30.2064 35.8073 30.2192 37.5182 30.2017C38.6528 30.188 39.2684 29.5614 39.276 28.472C39.2859 27.3225 38.6929 26.6634 37.5464 26.6582C34.103 26.6415 30.6596 26.6425 27.2162 26.6612C26.1571 26.6612 25.5766 27.3579 25.5971 28.504C25.612 29.543 26.2455 30.2064 27.2461 30.2115" fill="#000003"/>
</g>
<defs>
<clipPath id="clip0_6_68">
<rect width="40" height="38.3399" fill="white"/>
</clipPath>
</defs>
</svg>
