<svg width="355" height="92" viewBox="0 0 355 92" fill="none" xmlns="http://www.w3.org/2000/svg">
<g clip-path="url(#clip0_11_1424)">
<path d="M161.072 0.5H162.352L162.382 20.7835H161.103L161.072 2.87637L154.763 13.5911H153.99L147.59 2.87637L147.621 20.7835H146.371L146.341 0.5H147.59L154.406 11.83L161.072 0.5Z" fill="#221F1F"/>
<path d="M183.037 0.5L174.614 11.5947L174.644 20.7835H173.365L173.335 11.5947L164.912 0.5H166.609L173.93 10.4216L181.37 0.5H183.037Z" fill="#221F1F"/>
<path d="M149.521 57.9127C150.528 59.2631 151.837 60.3664 153.347 61.1365C154.926 61.9364 156.68 62.3423 158.455 62.3187C159.534 62.3211 160.607 62.1578 161.635 61.8346C162.593 61.5413 163.501 61.1061 164.326 60.5439C165.073 60.0385 165.7 59.3789 166.162 58.6109C166.604 57.8815 166.837 57.0477 166.835 56.1983C166.835 55.3684 166.613 54.5532 166.193 53.834C165.743 53.054 165.152 52.3616 164.45 51.7909C163.672 51.1553 162.808 50.6305 161.882 50.2318C160.889 49.7996 159.839 49.5107 158.763 49.3738C157.079 49.1777 155.431 48.753 153.866 48.1117C152.432 47.5278 151.1 46.726 149.918 45.7354C148.841 44.8391 147.939 43.7562 147.258 42.5402C146.613 41.3858 146.276 40.0886 146.279 38.7706C146.27 37.3356 146.628 35.9215 147.319 34.6587C148.02 33.3791 148.989 32.2615 150.163 31.3807C151.442 30.4334 152.878 29.7115 154.408 29.2471C156.09 28.7188 157.846 28.4552 159.611 28.466C162.059 28.466 164.261 28.8872 166.216 29.7296C168.201 30.5866 170.008 31.7976 171.547 33.3017L167.874 35.8816C166.842 34.7569 165.593 33.8442 164.202 33.1961C161.719 32.0891 158.908 31.9279 156.311 32.7438C155.308 33.0551 154.358 33.5169 153.497 34.1129C152.716 34.6498 152.05 35.3346 151.54 36.1274C151.063 36.8562 150.808 37.7044 150.805 38.5716C150.81 39.4405 151.03 40.2951 151.447 41.0611C151.89 41.8857 152.493 42.6167 153.222 43.2127C154.02 43.8665 154.918 44.3921 155.883 44.7704C156.936 45.1901 158.051 45.4352 159.185 45.4956C160.862 45.6554 162.503 46.0721 164.049 46.7306C165.455 47.3261 166.763 48.1233 167.933 49.0964C168.996 49.9827 169.87 51.0695 170.502 52.293C171.103 53.4492 171.417 54.729 171.42 56.0279C171.428 57.4278 171.07 58.8061 170.38 60.0297C169.673 61.2823 168.717 62.381 167.568 63.2596C166.315 64.2088 164.909 64.9443 163.409 65.4354C161.773 65.9785 160.058 66.2506 158.331 66.2406C155.867 66.2647 153.434 65.703 151.237 64.603C149.075 63.5104 147.341 62.103 146.034 60.3811L149.521 57.9127Z" fill="#221F1F"/>
<path d="M205.18 36.9024C203.692 35.5101 201.976 34.3749 200.104 33.5444C198.316 32.7496 196.376 32.3384 194.414 32.3382C192.438 32.325 190.479 32.7179 188.665 33.4917C186.903 34.2389 185.305 35.3141 183.956 36.6581C181.15 39.4726 179.588 43.2675 179.613 47.2131C179.605 51.142 181.114 54.927 183.834 57.7997C185.161 59.1765 186.752 60.2813 188.514 61.0506C190.37 61.8641 192.383 62.2754 194.414 62.2568C196.357 62.2606 198.277 61.849 200.043 61.0506C201.895 60.2067 203.606 59.0924 205.12 57.7454L208.181 60.4308C206.281 62.1853 204.101 63.6198 201.728 64.6769C199.432 65.7083 196.938 66.242 194.414 66.2421C191.886 66.251 189.384 65.7374 187.069 64.7342C184.778 63.755 182.693 62.3608 180.923 60.6238C179.141 58.8741 177.7 56.8163 176.672 54.5533C175.612 52.2494 175.069 49.7472 175.081 47.2176C175.073 44.7505 175.583 42.3084 176.579 40.0448C177.554 37.8056 178.957 35.7718 180.711 34.0541C182.483 32.3204 184.567 30.9266 186.856 29.9437C189.226 28.9286 191.783 28.407 194.368 28.4116C196.952 28.4163 199.507 28.9471 201.873 29.9708C204.257 30.993 206.435 32.431 208.3 34.2154L205.18 36.9024Z" fill="#221F1F"/>
<path d="M216.803 48.0258V65.7565H212.337V28.6273H216.803V44.1039H236.988V28.6273H241.39V65.7565H236.988V48.0258H216.803Z" fill="#221F1F"/>
<path d="M278.09 61.0295C276.36 62.6976 274.312 64.0125 272.065 64.8986C269.718 65.8079 267.215 66.2635 264.694 66.2406C262.164 66.2482 259.658 65.7544 257.325 64.7885C255.026 63.8545 252.93 62.4967 251.147 60.7882C249.356 59.0618 247.923 57.0087 246.927 54.7432C245.878 52.3706 245.346 49.8071 245.367 47.2191C245.349 44.6956 245.87 42.1966 246.898 39.8849C247.883 37.6592 249.285 35.6361 251.03 33.9214C252.788 32.2032 254.867 30.8348 257.151 29.8909C259.54 28.8972 262.11 28.3944 264.703 28.4132C267.337 28.3865 269.95 28.8893 272.38 29.8909C274.651 30.8282 276.717 32.1874 278.466 33.8943C280.192 35.6023 281.56 37.6274 282.494 39.8548C283.481 42.1864 283.98 44.6901 283.962 47.2161C283.962 50.0106 283.452 52.574 282.431 54.9061C281.423 57.2184 279.945 59.3028 278.088 61.031M274.843 36.3113C273.525 35.0509 271.964 34.0644 270.252 33.4102C268.478 32.7262 266.589 32.3798 264.684 32.3894C262.708 32.3775 260.751 32.7708 258.937 33.5444C257.175 34.2923 255.576 35.3674 254.226 36.7109C252.874 38.0663 251.794 39.6621 251.045 41.4139C250.262 43.2502 249.867 45.2244 249.885 47.2161C249.871 49.225 250.265 51.2164 251.045 53.0726C251.784 54.8461 252.853 56.4682 254.196 57.8554C255.527 59.2213 257.117 60.317 258.875 61.0807C260.707 61.8761 262.689 62.2786 264.691 62.2614C266.721 62.2798 268.732 61.8776 270.595 61.0807C274.194 59.5423 277.031 56.6636 278.485 53.0726C279.246 51.2119 279.631 49.2223 279.617 47.2161C279.634 45.1206 279.207 43.0446 278.362 41.1214C277.557 39.2856 276.356 37.6444 274.843 36.3113Z" fill="#221F1F"/>
<path d="M320.293 61.0294C318.562 62.697 316.515 64.0118 314.268 64.8986C311.921 65.8078 309.418 66.2634 306.896 66.2406C304.366 66.248 301.86 65.7542 299.526 64.7885C297.231 63.8534 295.138 62.4958 293.359 60.7882C291.568 59.0622 290.134 57.009 289.139 54.7432C288.09 52.3706 287.558 49.8071 287.579 47.2191C287.56 44.6955 288.082 42.1964 289.11 39.8849C290.095 37.6592 291.497 35.6361 293.241 33.9214C295.001 32.2033 297.079 30.8349 299.363 29.8909C301.752 28.8972 304.322 28.3944 306.915 28.4132C309.463 28.384 311.992 28.8535 314.354 29.7943C316.717 30.7352 318.866 32.1288 320.678 33.8943C322.401 35.6028 323.766 37.6279 324.697 39.8548C325.685 42.1861 326.184 44.6899 326.166 47.2161C326.166 50.0106 325.656 52.574 324.636 54.9061C323.627 57.2176 322.149 59.3013 320.293 61.0294ZM317.052 36.3113C315.734 35.0508 314.173 34.0642 312.461 33.4102C310.687 32.7263 308.798 32.3799 306.893 32.3894C304.917 32.3775 302.959 32.7708 301.146 33.5444C299.384 34.2923 297.785 35.3674 296.435 36.7109C295.082 38.0659 294.002 39.6618 293.254 41.4139C292.471 43.2502 292.076 45.2244 292.094 47.2161C292.079 49.225 292.474 51.2164 293.254 53.0726C293.992 54.8464 295.061 56.4686 296.405 57.8554C297.735 59.2216 299.324 60.3174 301.083 61.0807C302.914 61.8758 304.897 62.2782 306.898 62.2614C308.928 62.2797 310.939 61.8774 312.8 61.0807C316.401 59.5439 319.238 56.6647 320.691 53.0726C321.452 51.2119 321.837 49.2223 321.823 47.2161C321.841 45.1196 321.414 43.0426 320.57 41.1183C319.765 39.2832 318.565 37.6428 317.052 36.3113Z" fill="#221F1F"/>
<path d="M334.912 61.8346H354.607V65.7565H330.507V28.6273H334.912V61.8346Z" fill="#221F1F"/>
<path d="M149.847 82.468C149.569 82.258 149.253 82.1015 148.915 82.0066C148.812 81.9592 148.703 81.9234 148.591 81.8995L148.452 81.8694C148.411 81.8588 148.37 81.8512 148.328 81.8468C148.214 81.813 148.098 81.7883 147.98 81.7729C147.602 81.7012 147.234 81.5842 146.885 81.4246C146.579 81.2999 146.325 81.0767 146.164 80.7913C146.038 80.5514 145.998 80.2769 146.049 80.0117C146.104 79.7398 146.239 79.49 146.438 79.294C146.641 79.0773 146.894 78.9114 147.176 78.81C147.461 78.7028 147.764 78.6516 148.069 78.6592C148.605 78.6742 149.127 78.8304 149.581 79.1115C149.645 79.1414 149.715 79.1579 149.786 79.1598C149.878 79.1598 149.966 79.1301 150.039 79.0752C150.111 79.0204 150.163 78.9435 150.187 78.8565C150.211 78.7695 150.204 78.6773 150.169 78.5941C150.134 78.511 150.072 78.4416 149.993 78.3968C149.417 78.0421 148.753 77.8516 148.074 77.8464C147.662 77.8428 147.254 77.9134 146.868 78.0545C146.474 78.2013 146.118 78.4332 145.827 78.7331C145.516 79.0479 145.31 79.4487 145.237 79.882C145.14 80.3241 145.206 80.7853 145.42 81.1848C145.666 81.623 146.052 81.969 146.517 82.1694C146.927 82.362 147.361 82.4995 147.808 82.5781C148.603 82.759 149.102 82.9354 149.33 83.1164C149.526 83.2765 149.68 83.4801 149.78 83.7104C149.884 83.9477 149.919 84.2086 149.883 84.4644C149.862 84.7184 149.784 84.9647 149.655 85.1855C149.526 85.4063 149.348 85.5962 149.136 85.7415C148.727 86.0466 148.225 86.2061 147.713 86.1939H147.635C147.296 86.186 146.962 86.1109 146.653 85.9731C146.344 85.8353 146.066 85.6375 145.837 85.3917C145.788 85.3434 145.728 85.3074 145.662 85.2869C145.596 85.2664 145.526 85.2619 145.458 85.2739C145.39 85.2859 145.326 85.3141 145.271 85.3558C145.217 85.3976 145.173 85.4518 145.145 85.5138C145.114 85.5865 145.106 85.6665 145.121 85.7437C145.136 85.821 145.174 85.8921 145.231 85.9481C145.533 86.2742 145.899 86.5369 146.307 86.7203C146.715 86.9038 147.156 87.0042 147.604 87.0157C148.337 87.0408 149.058 86.8214 149.649 86.3929C149.953 86.1766 150.206 85.8973 150.389 85.5746C150.573 85.2519 150.682 84.8935 150.711 84.5247C150.746 84.1409 150.69 83.7544 150.548 83.3953C150.394 83.0382 150.154 82.7232 149.849 82.477" fill="#221F1F"/>
<path d="M158.664 77.8525C158.466 77.8186 158.266 77.8014 158.065 77.8012C157.199 77.804 156.36 78.1006 155.69 78.6411C155.484 78.8014 155.297 78.9834 155.132 79.1839V73.7723C155.132 73.6635 155.088 73.5592 155.01 73.4822C154.932 73.4053 154.826 73.3621 154.715 73.3621C154.605 73.3621 154.499 73.4053 154.421 73.4822C154.343 73.5592 154.299 73.6635 154.299 73.7723V86.598C154.299 86.7068 154.343 86.8111 154.421 86.888C154.499 86.9649 154.605 87.0081 154.715 87.0081C154.826 87.0081 154.932 86.9649 155.01 86.888C155.088 86.8111 155.132 86.7068 155.132 86.598V81.3718C155.132 79.9258 156.53 78.6109 158.065 78.6109C158.219 78.6108 158.373 78.6244 158.524 78.6516C159.218 78.7565 159.849 79.1039 160.304 79.6302C160.774 80.1444 161.032 80.8127 161.028 81.5045V86.598C161.028 86.7068 161.072 86.8111 161.15 86.888C161.228 86.9649 161.334 87.0081 161.444 87.0081C161.554 87.0081 161.66 86.9649 161.738 86.888C161.816 86.8111 161.86 86.7068 161.86 86.598V81.5045C161.85 80.6221 161.524 79.7717 160.939 79.1035C160.354 78.4352 159.548 77.9922 158.664 77.8525Z" fill="#221F1F"/>
<path d="M171.63 79.0482C171.316 78.6153 170.88 78.2825 170.376 78.0907C169.96 77.9302 169.517 77.8478 169.07 77.848H168.884C167.883 77.8615 166.925 78.254 166.209 78.9442C166.168 78.9829 166.134 79.0296 166.112 79.0815C166.089 79.1334 166.078 79.1893 166.078 79.2457C166.079 79.354 166.124 79.4574 166.202 79.534C166.279 79.6106 166.384 79.6543 166.494 79.6559C166.55 79.6591 166.606 79.6512 166.658 79.6325C166.711 79.6139 166.759 79.5849 166.8 79.5473C167.37 79.0064 168.125 78.6951 168.917 78.6743C169.312 78.6562 169.707 78.7193 170.077 78.8597C170.432 78.992 170.742 79.223 170.967 79.5247C171.229 79.8715 171.385 80.3751 171.426 81.0235C171.44 81.2632 171.454 81.5482 171.458 81.892C170.984 81.7975 170.487 81.7126 169.968 81.6372C169.618 81.5889 169.265 81.5613 168.912 81.5542C168.54 81.543 168.169 81.5769 167.806 81.6553C167.427 81.7328 167.065 81.873 166.734 82.0699C166.384 82.2735 166.087 82.5549 165.867 82.8917C165.566 83.3489 165.435 83.8942 165.495 84.4357C165.538 84.9754 165.752 85.488 166.107 85.9014C166.44 86.3079 166.877 86.6201 167.373 86.8061C167.767 86.9546 168.187 87.0282 168.609 87.0232C168.705 87.0232 168.805 87.0232 168.915 87.0127C169.394 86.982 169.861 86.8553 170.288 86.6404C170.715 86.4254 171.093 86.1267 171.399 85.7627C171.42 85.7415 171.439 85.7204 171.457 85.6993V86.6176C171.463 86.7223 171.51 86.8206 171.588 86.8924C171.665 86.9643 171.767 87.0043 171.874 87.0043C171.98 87.0043 172.083 86.9643 172.16 86.8924C172.238 86.8206 172.284 86.7223 172.291 86.6176V82.8133C172.291 81.7156 172.266 81.1547 172.257 80.9662C172.22 80.284 172.003 79.6231 171.628 79.0482M167.682 86.0326C167.323 85.8969 167.007 85.672 166.763 85.3797C166.518 85.0938 166.368 84.7397 166.335 84.3664C166.295 84 166.386 83.6312 166.594 83.3245C166.737 83.0985 166.934 82.9101 167.167 82.7756C167.42 82.6234 167.697 82.5134 167.986 82.4499C168.247 82.3891 168.514 82.3633 168.782 82.373C168.82 82.373 168.858 82.373 168.9 82.373C169.174 82.3799 169.448 82.4025 169.72 82.4409L169.862 82.4559C170.458 82.5374 170.982 82.6309 171.463 82.7349V83.5702C171.454 84.1864 171.214 84.7773 170.788 85.2289C170.299 85.7859 169.607 86.13 168.861 86.1864C168.462 86.2254 168.059 86.1727 167.683 86.0326H167.682Z" fill="#221F1F"/>
<path d="M180.1 77.8827H179.903C179.385 77.8736 178.87 77.9654 178.389 78.1527C177.907 78.3401 177.468 78.6193 177.096 78.9743C176.929 79.1325 176.775 79.304 176.637 79.487V78.2928C176.636 78.2379 176.624 78.1838 176.602 78.1335C176.58 78.0832 176.547 78.0377 176.507 77.9996C176.467 77.9616 176.42 77.9316 176.368 77.9115C176.316 77.8915 176.261 77.8817 176.205 77.8827C176.152 77.8836 176.099 77.895 176.05 77.9162C176 77.9373 175.956 77.9678 175.919 78.0059C175.881 78.044 175.852 78.0889 175.833 78.1381C175.813 78.1874 175.803 78.2399 175.804 78.2928V91.1004C175.804 91.2092 175.848 91.3135 175.926 91.3904C176.004 91.4674 176.11 91.5106 176.221 91.5106C176.331 91.5106 176.437 91.4674 176.515 91.3904C176.593 91.3135 176.637 91.2092 176.637 91.1004V85.5697C176.7 85.6466 176.769 85.7204 176.844 85.8079C177.445 86.476 178.268 86.9121 179.165 87.0383C179.751 87.1248 180.349 87.0907 180.92 86.9381C181.492 86.7855 182.026 86.5177 182.487 86.1517C183.41 85.4237 184.023 84.3827 184.207 83.2325C184.415 81.9836 184.119 80.7041 183.381 79.6679C182.556 78.5657 181.303 77.8827 180.106 77.8827M179.909 78.7029H180.072C181.029 78.7029 182.034 79.2563 182.695 80.1429C183.001 80.5669 183.218 81.046 183.336 81.5528C183.453 82.0596 183.468 82.5843 183.379 83.0968C183.241 84.049 182.741 84.914 181.981 85.5169C181.607 85.8102 181.177 86.0253 180.716 86.1489C180.256 86.2726 179.774 86.3023 179.301 86.2361C178.589 86.1392 177.936 85.791 177.465 85.256C176.92 84.6695 176.643 84.0497 176.643 83.4029V81.88C176.647 81.4474 176.741 81.0201 176.918 80.6241C177.094 80.2281 177.351 79.8715 177.671 79.576C177.966 79.2921 178.315 79.0687 178.698 78.9189C179.081 78.769 179.491 78.6956 179.903 78.7029H179.909Z" fill="#221F1F"/>
<path d="M188.641 77.8329C188.531 77.8344 188.425 77.8781 188.348 77.9546C188.27 78.0312 188.225 78.1346 188.223 78.243V86.598C188.229 86.7027 188.276 86.801 188.354 86.8728C188.431 86.9447 188.533 86.9847 188.64 86.9847C188.746 86.9847 188.849 86.9447 188.926 86.8728C189.004 86.801 189.05 86.7027 189.057 86.598V78.2445C189.058 78.1905 189.047 78.1369 189.026 78.0869C189.006 78.0368 188.975 77.9914 188.936 77.9532C188.898 77.915 188.851 77.8848 188.801 77.8644C188.75 77.844 188.695 77.8338 188.641 77.8344" fill="#221F1F"/>
<path d="M196.929 77.8675C196.732 77.8337 196.532 77.8166 196.332 77.8163C195.467 77.8235 194.629 78.1196 193.957 78.6562C193.751 78.8161 193.564 78.9981 193.398 79.199V78.2611C193.398 78.1523 193.355 78.048 193.276 77.9711C193.198 77.8942 193.093 77.851 192.982 77.851C192.872 77.851 192.766 77.8942 192.688 77.9711C192.61 78.048 192.566 78.1523 192.566 78.2611V86.6131C192.566 86.7218 192.61 86.8261 192.688 86.9031C192.766 86.98 192.872 87.0232 192.982 87.0232C193.093 87.0232 193.198 86.98 193.276 86.9031C193.355 86.8261 193.398 86.7218 193.398 86.6131V81.3884C193.398 79.9454 194.799 78.629 196.338 78.629C196.492 78.6288 196.646 78.642 196.797 78.6682C197.495 78.7698 198.132 79.1169 198.591 79.6453C199.055 80.1622 199.307 80.8309 199.298 81.5211V86.6131C199.304 86.7177 199.351 86.816 199.428 86.8879C199.506 86.9598 199.608 86.9998 199.715 86.9998C199.821 86.9998 199.924 86.9598 200.001 86.8879C200.079 86.816 200.125 86.7177 200.132 86.6131V81.5211C200.122 80.6389 199.796 79.7887 199.211 79.1203C198.627 78.4518 197.822 78.0082 196.938 77.8675" fill="#221F1F"/>
<path d="M211.62 77.9444C211.566 77.9422 211.511 77.9508 211.461 77.9698C211.41 77.9887 211.364 78.0176 211.325 78.0546C211.286 78.0917 211.255 78.1362 211.234 78.1854C211.212 78.2347 211.202 78.2876 211.202 78.341V79.5352C211.061 79.3526 210.905 79.1821 210.735 79.0256C209.978 78.3094 208.964 77.9161 207.915 77.9309H207.734C206.501 77.9309 205.277 78.6004 204.459 79.7192C203.72 80.7535 203.423 82.0325 203.632 83.2807C203.789 84.4376 204.402 85.4871 205.338 86.2029C205.802 86.5683 206.338 86.8355 206.911 86.9878C207.485 87.1401 208.085 87.1742 208.672 87.088C209.572 86.9597 210.397 86.521 211 85.8501C211.073 85.7656 211.141 85.6842 211.202 85.6058V86.6779C211.202 87.9475 210.4 89.1417 209.157 89.7222C208.484 90.0289 207.731 90.1199 207.002 89.9825C206.274 89.8451 205.608 89.4862 205.098 88.9562C205.044 88.9162 204.982 88.8887 204.916 88.8756C204.85 88.8626 204.782 88.8644 204.717 88.8809C204.652 88.8974 204.592 88.9283 204.54 88.9711C204.489 89.0139 204.448 89.0676 204.421 89.1281C204.39 89.1978 204.382 89.2751 204.398 89.3495C204.413 89.4239 204.451 89.4919 204.507 89.5443C205.133 90.1975 205.956 90.6338 206.854 90.7883C207.131 90.8401 207.413 90.8663 207.694 90.8667C208.319 90.8653 208.935 90.7278 209.499 90.4641C211.04 89.7645 212.036 88.2853 212.036 86.6945V78.341C212.036 78.2877 212.025 78.2349 212.004 78.1858C211.983 78.1367 211.953 78.0923 211.914 78.0552C211.875 78.0182 211.829 77.9893 211.778 77.9702C211.728 77.9512 211.674 77.9424 211.62 77.9444ZM211.202 81.9237V83.4466C211.202 84.0904 210.926 84.7132 210.382 85.2997C209.905 85.8286 209.255 86.1751 208.545 86.2783C208.386 86.3033 208.225 86.3154 208.063 86.3145C207.268 86.3073 206.497 86.0423 205.87 85.5606C205.1 84.9624 204.592 84.0955 204.452 83.139C204.281 82.1041 204.526 81.0443 205.136 80.1851C205.771 79.3075 206.799 78.7451 207.757 78.7451H207.922C208.759 78.7315 209.566 79.0455 210.167 79.6182C210.488 79.9142 210.745 80.271 210.923 80.6671C211.101 81.0632 211.196 81.4906 211.202 81.9237Z" fill="#221F1F"/>
<path d="M229.4 79.0482C229.086 78.6153 228.651 78.2825 228.147 78.0907C227.73 77.9302 227.287 77.8478 226.84 77.848H226.656C225.656 77.8609 224.699 78.2529 223.985 78.9427C223.942 78.9808 223.908 79.0273 223.885 79.0793C223.861 79.1313 223.85 79.1875 223.85 79.2442C223.851 79.3526 223.895 79.4563 223.973 79.5329C224.051 79.6096 224.156 79.6532 224.266 79.6544C224.32 79.6565 224.375 79.648 224.426 79.6293C224.476 79.6107 224.523 79.5823 224.563 79.5458C225.133 79.0049 225.888 78.6935 226.679 78.6728C227.075 78.6547 227.47 78.7178 227.839 78.8582C228.195 78.9912 228.505 79.222 228.732 79.5232C228.992 79.87 229.149 80.3736 229.191 81.0235C229.204 81.224 229.22 81.5211 229.224 81.8905C228.753 81.7955 228.253 81.7111 227.734 81.6357C227.384 81.5874 227.031 81.5597 226.678 81.5527C226.306 81.5414 225.934 81.5753 225.57 81.6538C225.191 81.7308 224.829 81.8711 224.499 82.0684C224.148 82.2718 223.851 82.5532 223.631 82.8902C223.33 83.3471 223.198 83.8925 223.258 84.4342C223.3 84.974 223.515 85.4868 223.87 85.8999C224.202 86.3063 224.639 86.6185 225.134 86.8046C225.528 86.9527 225.948 87.0264 226.37 87.0217C226.468 87.0217 226.568 87.0217 226.676 87.0111C227.155 86.9805 227.622 86.8538 228.049 86.6389C228.476 86.4239 228.854 86.1252 229.16 85.7611C229.18 85.74 229.2 85.7189 229.217 85.6978V86.6161C229.217 86.7249 229.26 86.8292 229.339 86.9061C229.417 86.983 229.522 87.0262 229.633 87.0262C229.743 87.0262 229.849 86.983 229.927 86.9061C230.005 86.8292 230.049 86.7249 230.049 86.6161V82.8133C230.049 81.693 230.028 81.1547 230.017 80.9662C229.979 80.284 229.763 79.6231 229.388 79.0482M225.441 86.0326C225.083 85.8967 224.767 85.6718 224.523 85.3797C224.277 85.094 224.126 84.7399 224.093 84.3664C224.053 83.9998 224.146 83.6311 224.353 83.3245C224.496 83.0985 224.693 82.9101 224.926 82.7756C225.179 82.6227 225.456 82.5126 225.746 82.4499C226.006 82.3891 226.274 82.3633 226.542 82.373C226.58 82.373 226.618 82.373 226.658 82.373C226.933 82.3799 227.207 82.4025 227.48 82.4409L227.622 82.4559C228.216 82.5374 228.741 82.6309 229.221 82.7349V83.5702C229.213 84.1862 228.973 84.7773 228.548 85.2289C228.059 85.7862 227.365 86.1304 226.62 86.1864C226.224 86.2235 225.825 86.1709 225.454 86.0326H225.441Z" fill="#221F1F"/>
<path d="M245.461 77.8827H245.262C244.744 77.8739 244.23 77.9658 243.748 78.1531C243.267 78.3404 242.827 78.6195 242.455 78.9743C242.289 79.133 242.136 79.3039 241.996 79.4855V78.2928C241.994 78.1819 241.947 78.0764 241.866 77.9995C241.784 77.9227 241.676 77.8806 241.563 77.8827C241.455 77.885 241.352 77.9295 241.277 78.0064C241.203 78.0833 241.162 78.1863 241.164 78.2928V91.1004C241.164 91.2092 241.208 91.3135 241.286 91.3904C241.364 91.4674 241.47 91.5106 241.58 91.5106C241.69 91.5106 241.796 91.4674 241.874 91.3904C241.952 91.3135 241.996 91.2092 241.996 91.1004V85.5697C242.059 85.6466 242.128 85.7204 242.203 85.8079C242.804 86.476 243.627 86.9121 244.524 87.0383C245.11 87.1248 245.708 87.0907 246.28 86.9381C246.852 86.7855 247.385 86.5177 247.847 86.1517C248.77 85.4245 249.383 84.3831 249.567 83.2325C249.774 81.9836 249.478 80.7041 248.74 79.6679C247.915 78.5657 246.662 77.8827 245.465 77.8827M245.266 78.7029H245.432C246.388 78.7029 247.394 79.2563 248.055 80.1429C248.36 80.5669 248.578 81.046 248.695 81.5528C248.812 82.0596 248.827 82.5843 248.739 83.0968C248.601 84.0494 248.1 84.9146 247.338 85.5169C246.965 85.8101 246.535 86.0252 246.075 86.1489C245.614 86.2726 245.133 86.3022 244.66 86.2361C243.948 86.1392 243.296 85.791 242.824 85.256C242.279 84.6695 242.002 84.0497 242.002 83.4029V81.88C242.007 81.4474 242.1 81.0201 242.277 80.6241C242.454 80.2281 242.71 79.8715 243.031 79.576C243.326 79.2915 243.676 79.0677 244.059 78.9179C244.443 78.768 244.854 78.6949 245.266 78.7029Z" fill="#221F1F"/>
<path d="M258.067 78.056C257.656 77.9062 257.22 77.8311 256.78 77.8344H256.514C255.645 77.8344 254.831 78.2083 254.105 78.9442C254.036 79.0134 253.971 79.0864 253.91 79.1628V78.2445C253.903 78.1399 253.856 78.0416 253.779 77.9697C253.701 77.8978 253.599 77.8578 253.493 77.8578C253.386 77.8578 253.284 77.8978 253.206 77.9697C253.129 78.0416 253.082 78.1399 253.076 78.2445V86.598C253.082 86.7027 253.129 86.801 253.206 86.8728C253.284 86.9447 253.386 86.9847 253.493 86.9847C253.599 86.9847 253.701 86.9447 253.779 86.8728C253.856 86.801 253.903 86.7027 253.91 86.598V81.3718C253.909 81.0276 253.978 80.6867 254.112 80.369C254.247 80.0513 254.444 79.7633 254.693 79.5217C255.176 79.0064 255.842 78.6951 256.552 78.6532C256.962 78.6376 257.37 78.6996 257.755 78.8356C257.809 78.8593 257.868 78.8702 257.927 78.8673C258.037 78.8657 258.142 78.8218 258.22 78.7449C258.298 78.668 258.342 78.5642 258.343 78.4556C258.346 78.3689 258.32 78.2836 258.271 78.2118C258.221 78.1401 258.15 78.0856 258.067 78.056Z" fill="#221F1F"/>
<path d="M263.944 77.8977C263.35 77.894 262.762 78.0128 262.218 78.2465C261.674 78.4802 261.185 78.8237 260.784 79.2548C259.943 80.1274 259.474 81.2849 259.474 82.4884C259.474 83.6918 259.943 84.8493 260.784 85.7219C261.192 86.142 261.683 86.4762 262.226 86.7046C262.768 86.9329 263.353 87.0507 263.943 87.0507C264.533 87.0507 265.118 86.9329 265.661 86.7046C266.204 86.4762 266.694 86.142 267.102 85.7219C267.943 84.8493 268.412 83.6918 268.412 82.4884C268.412 81.2849 267.943 80.1274 267.102 79.2548C266.701 78.8237 266.213 78.4803 265.669 78.2465C265.125 78.0128 264.537 77.894 263.944 77.8977ZM263.944 86.2512C263.461 86.259 262.982 86.1652 262.538 85.9762C262.095 85.7872 261.698 85.5072 261.373 85.155C260.689 84.4328 260.309 83.482 260.309 82.4944C260.309 81.5068 260.689 80.556 261.373 79.8338C261.7 79.4831 262.097 79.203 262.539 79.0115C262.982 78.8199 263.46 78.721 263.943 78.721C264.426 78.721 264.904 78.8199 265.347 79.0115C265.789 79.203 266.186 79.4831 266.513 79.8338C267.197 80.5557 267.578 81.5066 267.578 82.4944C267.578 83.4822 267.197 84.4331 266.513 85.155C266.188 85.507 265.791 85.7869 265.348 85.9759C264.905 86.1649 264.427 86.2588 263.944 86.2512Z" fill="#221F1F"/>
<path d="M278.912 77.8766C278.857 77.8748 278.803 77.8838 278.753 77.9031C278.702 77.9223 278.656 77.9515 278.617 77.9888C278.578 78.0261 278.547 78.0708 278.526 78.1202C278.504 78.1696 278.494 78.2226 278.494 78.2762V83.5024C278.488 83.8691 278.405 84.2306 278.25 84.5642C278.096 84.8979 277.873 85.1965 277.596 85.4415C277.308 85.7157 276.966 85.9291 276.591 86.0684C276.217 86.2077 275.817 86.27 275.417 86.2515C275.017 86.233 274.625 86.1341 274.265 85.9608C273.905 85.7875 273.585 85.5436 273.325 85.2439C272.856 84.7291 272.599 84.0611 272.602 83.3697V78.2762C272.596 78.1715 272.549 78.0732 272.472 78.0013C272.394 77.9295 272.292 77.8895 272.185 77.8895C272.079 77.8895 271.976 77.9295 271.899 78.0013C271.821 78.0732 271.775 78.1715 271.768 78.2762V83.3697C271.765 84.2574 272.091 85.1157 272.686 85.7822C273.261 86.4589 274.075 86.8946 274.964 87.0006C275.153 87.0282 275.344 87.0424 275.536 87.0428C276.405 87.0456 277.249 86.7586 277.931 86.2286C278.137 86.0682 278.324 85.8862 278.489 85.6857V86.6236C278.496 86.7283 278.543 86.8266 278.62 86.8985C278.698 86.9703 278.8 87.0104 278.906 87.0104C279.013 87.0104 279.115 86.9703 279.193 86.8985C279.27 86.8266 279.317 86.7283 279.323 86.6236V78.2762C279.324 78.2228 279.313 78.1698 279.292 78.1205C279.271 78.0713 279.24 78.0267 279.201 77.9894C279.162 77.9521 279.116 77.9229 279.066 77.9035C279.015 77.8841 278.961 77.875 278.907 77.8766" fill="#221F1F"/>
<path d="M291.023 73.3772C290.912 73.3788 290.807 73.4227 290.729 73.4996C290.652 73.5765 290.608 73.6803 290.606 73.7888V79.4523C290.467 79.2701 290.314 79.0992 290.147 78.9411C289.394 78.2289 288.386 77.8364 287.342 77.848H287.143C285.919 77.848 284.695 78.5174 283.87 79.6378C283.131 80.6723 282.835 81.9513 283.044 83.1993C283.201 84.3553 283.812 85.4042 284.747 86.12C285.506 86.722 286.449 87.0527 287.423 87.0579C287.644 87.0577 287.864 87.0401 288.081 87.0051C288.982 86.8794 289.808 86.4416 290.41 85.7702C290.484 85.6842 290.553 85.6028 290.614 85.5244V86.6116C290.62 86.7158 290.667 86.8138 290.744 86.8854C290.821 86.957 290.923 86.9968 291.029 86.9968C291.135 86.9968 291.238 86.957 291.315 86.8854C291.392 86.8138 291.438 86.7158 291.445 86.6116V73.7949C291.444 73.6866 291.4 73.583 291.322 73.5061C291.245 73.4293 291.14 73.3852 291.03 73.3832M290.605 81.8468V83.3697C290.605 84.0105 290.329 84.6348 289.785 85.2243C289.305 85.7532 288.653 86.0996 287.941 86.2029C287.468 86.2663 286.988 86.2354 286.528 86.1121C286.067 85.9888 285.637 85.7756 285.262 85.4852C284.495 84.889 283.988 84.0257 283.845 83.0726C283.675 82.0371 283.921 80.9769 284.531 80.1173C285.165 79.2427 286.194 78.6788 287.152 78.6788H287.316C288.152 78.665 288.96 78.9791 289.561 79.5518C289.883 79.8456 290.141 80.2003 290.32 80.5946C290.499 80.9889 290.596 81.4148 290.605 81.8468Z" fill="#221F1F"/>
<path d="M306.511 73.3124H306.378C306.006 73.317 305.639 73.4001 305.302 73.5561C304.966 73.7122 304.667 73.9376 304.426 74.2171C304.18 74.4862 303.99 74.8012 303.868 75.1434C303.747 75.4857 303.696 75.8485 303.718 76.2104V77.8314H302.526C302.415 77.8314 302.31 77.8746 302.232 77.9515C302.153 78.0284 302.11 78.1327 302.11 78.2415C302.11 78.3503 302.153 78.4546 302.232 78.5315C302.31 78.6084 302.415 78.6516 302.526 78.6516H303.718V86.598C303.724 86.7027 303.771 86.801 303.849 86.8728C303.926 86.9447 304.029 86.9847 304.135 86.9847C304.241 86.9847 304.344 86.9447 304.421 86.8728C304.499 86.801 304.546 86.7027 304.552 86.598V78.6547H306.228C306.282 78.6536 306.336 78.6419 306.386 78.6203C306.436 78.5987 306.482 78.5675 306.52 78.5287C306.557 78.4898 306.587 78.444 306.607 78.3938C306.627 78.3436 306.637 78.2901 306.635 78.2362C306.634 78.1824 306.623 78.1293 306.601 78.0799C306.579 78.0306 306.547 77.986 306.508 77.9487C306.468 77.9113 306.422 77.882 306.371 77.8624C306.32 77.8428 306.265 77.8333 306.211 77.8344H304.552V76.1758C304.53 75.6655 304.705 75.166 305.042 74.778C305.212 74.5844 305.421 74.4271 305.655 74.3159C305.889 74.2046 306.144 74.1418 306.404 74.1311C306.689 74.1085 306.975 74.1512 307.241 74.2558C307.506 74.3605 307.743 74.5242 307.934 74.7343C307.987 74.7781 308.049 74.8091 308.116 74.8247C308.183 74.8403 308.253 74.8401 308.32 74.8241C308.387 74.8081 308.449 74.7767 308.501 74.7326C308.554 74.6884 308.595 74.6327 308.621 74.5699C308.652 74.5017 308.661 74.4259 308.646 74.3526C308.632 74.2793 308.596 74.212 308.541 74.1598C308.284 73.8833 307.969 73.6641 307.619 73.5167C307.268 73.3693 306.89 73.2971 306.509 73.3048" fill="#221F1F"/>
<path d="M317.708 77.8766C317.654 77.8748 317.6 77.8838 317.549 77.9031C317.498 77.9224 317.452 77.9516 317.413 77.9889C317.374 78.0262 317.344 78.0709 317.323 78.1203C317.302 78.1697 317.291 78.2227 317.292 78.2762V83.5024C317.286 83.8693 317.202 84.2309 317.048 84.5646C316.893 84.8983 316.669 85.1968 316.392 85.4415C316.104 85.7156 315.762 85.9287 315.387 86.0677C315.012 86.2068 314.613 86.2688 314.212 86.2501C313.812 86.2313 313.42 86.1321 313.061 85.9585C312.701 85.785 312.381 85.5408 312.121 85.2409C311.653 84.7259 311.396 84.0579 311.4 83.3667V78.2762C311.394 78.1715 311.347 78.0732 311.269 78.0013C311.192 77.9295 311.09 77.8895 310.983 77.8895C310.877 77.8895 310.774 77.9295 310.697 78.0013C310.619 78.0732 310.573 78.1715 310.566 78.2762V83.3697C310.562 84.2575 310.889 85.1158 311.484 85.7822C312.058 86.4589 312.873 86.8946 313.761 87.0006C313.951 87.0283 314.143 87.0424 314.335 87.0428C315.204 87.0454 316.048 86.7584 316.73 86.2286C316.936 86.0679 317.123 85.8859 317.289 85.6857V86.6236C317.289 86.7324 317.333 86.8367 317.411 86.9136C317.489 86.9905 317.595 87.0338 317.705 87.0338C317.815 87.0338 317.921 86.9905 317.999 86.9136C318.077 86.8367 318.121 86.7324 318.121 86.6236V78.2762C318.122 78.2227 318.111 78.1697 318.09 78.1203C318.069 78.0709 318.038 78.0262 318 77.9889C317.961 77.9516 317.915 77.9224 317.864 77.9031C317.813 77.8838 317.759 77.8748 317.705 77.8766" fill="#221F1F"/>
<path d="M325.649 86.1456C325.427 86.248 325.177 86.2735 324.939 86.218C324.685 86.1673 324.457 86.0319 324.293 85.8346C324.129 85.6373 324.039 85.3904 324.039 85.1354V78.6878H325.617C325.727 78.6878 325.834 78.6445 325.912 78.5673C325.99 78.4901 326.034 78.3854 326.034 78.2762C326.034 78.167 325.99 78.0623 325.912 77.9851C325.834 77.9079 325.727 77.8646 325.617 77.8646H324.039V76.1305C324.039 76.0765 324.029 76.0229 324.008 75.9729C323.988 75.9228 323.957 75.8774 323.918 75.8392C323.88 75.801 323.833 75.7708 323.783 75.7504C323.732 75.73 323.677 75.7198 323.623 75.7204C323.513 75.722 323.408 75.7657 323.33 75.8422C323.252 75.9188 323.208 76.0222 323.206 76.1305V77.8646H321.913C321.802 77.8646 321.696 77.9079 321.618 77.9851C321.54 78.0623 321.496 78.167 321.496 78.2762C321.496 78.3854 321.54 78.4901 321.618 78.5673C321.696 78.6445 321.802 78.6878 321.913 78.6878H323.206V85.155C323.21 85.5911 323.365 86.0129 323.646 86.3495C323.928 86.6861 324.318 86.9171 324.752 87.0036C324.898 87.0337 325.047 87.0494 325.196 87.0503C325.466 87.0502 325.734 86.9943 325.981 86.886C326.061 86.869 326.133 86.8237 326.182 86.7584C326.231 86.6932 326.254 86.6125 326.247 86.5316C326.249 86.461 326.233 86.3909 326.2 86.3282C326.167 86.2655 326.118 86.2122 326.058 86.1735C325.998 86.1348 325.928 86.1119 325.857 86.107C325.785 86.1021 325.714 86.1154 325.649 86.1456Z" fill="#221F1F"/>
<path d="M336.234 77.8766C336.18 77.8748 336.126 77.8838 336.075 77.9031C336.024 77.9224 335.978 77.9516 335.939 77.9889C335.9 78.0262 335.87 78.0709 335.849 78.1203C335.828 78.1697 335.817 78.2227 335.818 78.2762V83.5024C335.811 83.869 335.728 84.2305 335.573 84.5641C335.419 84.8977 335.196 85.1964 334.919 85.4415C334.631 85.7157 334.29 85.9291 333.915 86.0684C333.54 86.2077 333.141 86.27 332.741 86.2515C332.34 86.233 331.949 86.1341 331.589 85.9608C331.229 85.7875 330.909 85.5436 330.648 85.2439C330.18 84.7291 329.923 84.0611 329.926 83.3697V78.2762C329.92 78.1715 329.873 78.0732 329.795 78.0013C329.718 77.9295 329.615 77.8895 329.509 77.8895C329.403 77.8895 329.3 77.9295 329.223 78.0013C329.145 78.0732 329.098 78.1715 329.092 78.2762V83.3697C329.087 84.2576 329.414 85.1163 330.01 85.7822C330.584 86.4589 331.399 86.8946 332.287 87.0006C332.477 87.0282 332.668 87.0424 332.86 87.0428C333.728 87.0456 334.572 86.7586 335.255 86.2286C335.46 86.0684 335.647 85.8869 335.813 85.6873V86.6236C335.819 86.7283 335.866 86.8266 335.944 86.8985C336.021 86.9703 336.124 87.0104 336.23 87.0104C336.337 87.0104 336.439 86.9703 336.516 86.8985C336.594 86.8266 336.641 86.7283 336.647 86.6236V78.2762C336.647 78.2226 336.637 78.1696 336.616 78.1202C336.594 78.0708 336.563 78.0261 336.524 77.9888C336.485 77.9515 336.439 77.9223 336.388 77.9031C336.338 77.8838 336.284 77.8748 336.229 77.8766" fill="#221F1F"/>
<path d="M345.149 78.0561C344.738 77.9061 344.301 77.831 343.862 77.8344H343.596C342.727 77.8344 341.913 78.2083 341.186 78.9442C341.117 79.0131 341.052 79.0861 340.992 79.1628V78.2445C340.985 78.1399 340.938 78.0416 340.861 77.9697C340.783 77.8978 340.681 77.8578 340.575 77.8578C340.468 77.8578 340.366 77.8978 340.288 77.9697C340.211 78.0416 340.164 78.1399 340.158 78.2445V86.598C340.164 86.7027 340.211 86.801 340.288 86.8728C340.366 86.9447 340.468 86.9847 340.575 86.9847C340.681 86.9847 340.783 86.9447 340.861 86.8728C340.938 86.801 340.985 86.7027 340.992 86.598V81.3718C340.99 81.0277 341.059 80.6868 341.193 80.3691C341.328 80.0514 341.525 79.7633 341.774 79.5217C342.257 79.006 342.923 78.6948 343.634 78.6532C344.043 78.6375 344.452 78.6995 344.837 78.8356C344.891 78.8595 344.95 78.8703 345.009 78.8673C345.119 78.8653 345.224 78.8213 345.301 78.7445C345.379 78.6676 345.423 78.5641 345.425 78.4556C345.427 78.3689 345.402 78.2836 345.353 78.2119C345.303 78.1401 345.232 78.0856 345.149 78.0561Z" fill="#221F1F"/>
<path d="M354.062 79.0588C353.707 78.6404 353.265 78.3025 352.766 78.0682C352.266 77.834 351.721 77.709 351.168 77.7017C351.125 77.7017 351.079 77.7017 351.032 77.7017C350.384 77.731 349.751 77.9064 349.182 78.2144C348.625 78.5307 348.143 78.9604 347.768 79.4749C347.027 80.4852 346.749 81.6824 346.94 83.0319C347.043 83.8651 347.363 84.6581 347.867 85.3344C348.374 86.0354 349.088 86.5652 349.912 86.8513C350.351 86.9934 350.811 87.0672 351.274 87.0699C351.63 87.0689 351.986 87.0238 352.331 86.9357C353.131 86.7227 353.843 86.2669 354.365 85.633C354.403 85.5968 354.433 85.5532 354.453 85.5049C354.473 85.4566 354.483 85.4047 354.481 85.3525C354.48 85.2441 354.435 85.1405 354.358 85.0637C354.28 84.9868 354.175 84.9428 354.065 84.9409C354.002 84.939 353.939 84.9516 353.882 84.9778C353.824 85.004 353.774 85.0429 353.734 85.0916C353.428 85.4529 353.045 85.7435 352.612 85.9431C352.179 86.1426 351.707 86.2463 351.229 86.2466C350.874 86.2471 350.521 86.189 350.186 86.0748C349.527 85.8346 348.954 85.4108 348.536 84.8549C348.119 84.2823 347.856 83.6153 347.771 82.9158C347.741 82.7226 347.724 82.5277 347.719 82.3323H354.911L354.966 81.9794C355.039 81.4571 354.996 80.9256 354.841 80.4211C354.686 79.9166 354.422 79.4509 354.068 79.0557M351.119 78.5174C351.544 78.5207 351.963 78.6088 352.352 78.7765C352.74 78.9442 353.091 79.188 353.381 79.493C353.892 80.0434 354.17 80.766 354.157 81.512H347.804C347.898 80.9482 348.124 80.4138 348.464 79.9514C348.754 79.5246 349.143 79.1725 349.6 78.9246C350.048 78.675 350.551 78.5354 351.066 78.5174H351.119Z" fill="#221F1F"/>
<path d="M58.1087 53.5927L20.6423 62.2885C21.32 63.7462 21.6956 65.3225 21.7472 66.9251L59.2121 58.2294C58.5347 56.7716 58.1596 55.1952 58.1087 53.5927Z" fill="#D2D0CF"/>
<path d="M73.5158 26.8466C72.4366 28.0338 71.2015 29.0739 69.8431 29.9392L101.81 70.0117C102.864 68.7918 104.152 67.7886 105.6 67.0593L73.5158 26.8466Z" fill="#D2D0CF"/>
<path d="M79.8559 53.1811C79.8544 55.0191 79.2998 56.8154 78.2624 58.3429C77.2249 59.8704 75.7511 61.0605 74.0272 61.7627C72.3034 62.465 70.4069 62.6479 68.5776 62.2883C66.7483 61.9287 65.0682 61.0428 63.7499 59.7425C62.4315 58.4422 61.534 56.7859 61.1708 54.9831C60.8076 53.1803 60.9951 51.3118 61.7095 49.614C62.4239 47.9161 63.6332 46.4651 65.1844 45.4443C66.7357 44.4236 68.5593 43.8789 70.4246 43.8792C71.6638 43.8798 72.8906 44.1209 74.0352 44.5887C75.1798 45.0565 76.2197 45.7418 77.0954 46.6055C77.9712 47.4693 78.6657 48.4946 79.1394 49.6228C79.613 50.7511 79.8565 51.9602 79.8559 53.1811Z" fill="#1F9BD7"/>
<path d="M74.8028 14.9979C74.8001 17.8622 73.9356 20.6613 72.3186 23.0415C70.7016 25.4217 68.4047 27.276 65.7183 28.3702C63.0319 29.4644 60.0765 29.7492 57.2258 29.1887C54.3752 28.6281 51.7572 27.2474 49.7028 25.221C47.6483 23.1947 46.2498 20.6136 45.6839 17.8042C45.1179 14.9948 45.4101 12.0831 46.5233 9.43726C47.6366 6.79141 49.521 4.53017 51.9383 2.93938C54.3556 1.3486 57.1973 0.499703 60.1042 0.5C62.0355 0.500792 63.9478 0.876442 65.7317 1.6055C67.5157 2.33455 69.1364 3.40273 70.5013 4.74903C71.8662 6.09533 72.9486 7.69337 73.6867 9.45189C74.4247 11.2104 74.804 13.095 74.8028 14.9979Z" fill="#E2097F"/>
<path d="M120.625 77.8827C120.623 79.7206 120.069 81.5168 119.031 83.0443C117.994 84.5717 116.52 85.7618 114.796 86.4641C113.073 87.1665 111.176 87.3494 109.347 86.99C107.518 86.6305 105.838 85.7447 104.519 84.4446C103.201 83.1444 102.303 81.4883 101.94 79.6856C101.576 77.8829 101.764 76.0145 102.478 74.3166C103.192 72.6187 104.401 71.1676 105.952 70.1466C107.503 69.1257 109.327 68.5808 111.192 68.5807C112.431 68.5811 113.658 68.8221 114.803 69.2898C115.948 69.7575 116.988 70.4428 117.864 71.3066C118.74 72.1703 119.434 73.1957 119.908 74.324C120.382 75.4523 120.625 76.6616 120.625 77.8827Z" fill="#00A099"/>
<path d="M18.8641 67.3368C18.8626 69.1748 18.308 70.9711 17.2705 72.4986C16.2331 74.026 14.7592 75.2161 13.0354 75.9184C11.3116 76.6207 9.4151 76.8036 7.58577 76.444C5.75645 76.0844 4.07641 75.1984 2.75804 73.8981C1.43966 72.5979 0.542156 70.9416 0.178982 69.1388C-0.184192 67.336 0.00327311 65.4675 0.717678 63.7697C1.43208 62.0718 2.64135 60.6208 4.1926 59.6C5.74385 58.5792 7.56743 58.0346 9.4328 58.0349C10.672 58.0353 11.899 58.2762 13.0436 58.7439C14.1883 59.2116 15.2282 59.897 16.1041 60.7608C16.9799 61.6246 17.6744 62.6499 18.148 63.7783C18.6215 64.9066 18.8649 66.1158 18.8641 67.3368Z" fill="#952780"/>
<path d="M19.5879 60.4459L49.9277 29.6512C48.5939 28.7471 47.389 27.671 46.3453 26.4515L16.1218 57.1287C17.4863 58.0008 18.6644 59.1278 19.5894 60.4459" fill="#D2D0CF"/>
</g>
<defs>
<clipPath id="clip0_11_1424">
<rect width="355" height="91" fill="white" transform="translate(0 0.5)"/>
</clipPath>
</defs>
</svg>
