<svg width="355" height="91" viewBox="0 0 355 91" fill="none" xmlns="http://www.w3.org/2000/svg">
<g clip-path="url(#clip0_11_1530)">
<path d="M161.072 0H162.352L162.382 20.2835H161.103L161.072 2.37637L154.763 13.0911H153.99L147.59 2.37637L147.621 20.2835H146.371L146.341 0H147.59L154.406 11.33L161.072 0Z" fill="#221F1F"/>
<path d="M183.037 0L174.614 11.0947L174.644 20.2835H173.365L173.335 11.0947L164.912 0H166.609L173.93 9.92163L181.37 0H183.037Z" fill="#221F1F"/>
<path d="M149.521 57.4129C150.528 58.7633 151.837 59.8665 153.347 60.6366C154.926 61.4365 156.68 61.8425 158.455 61.8188C159.534 61.8212 160.607 61.6579 161.635 61.3348C162.593 61.0415 163.501 60.6063 164.326 60.044C165.073 59.5387 165.7 58.879 166.162 58.111C166.604 57.3816 166.837 56.5478 166.835 55.6984C166.835 54.8685 166.613 54.0533 166.193 53.3341C165.743 52.5541 165.152 51.8617 164.45 51.291C163.672 50.6554 162.808 50.1306 161.882 49.7319C160.889 49.2998 159.839 49.0108 158.763 48.8739C157.079 48.6778 155.431 48.2531 153.866 47.6119C152.432 47.0279 151.1 46.2261 149.918 45.2355C148.841 44.3392 147.939 43.2564 147.258 42.0404C146.613 40.8859 146.276 39.5888 146.279 38.2708C146.27 36.8358 146.628 35.4217 147.319 34.1589C148.02 32.8792 148.989 31.7616 150.163 30.8808C151.442 29.9335 152.878 29.2117 154.408 28.7472C156.09 28.2189 157.846 27.9554 159.611 27.9661C162.059 27.9661 164.261 28.3873 166.216 29.2297C168.201 30.0867 170.008 31.2978 171.547 32.8018L167.874 35.3817C166.842 34.257 165.593 33.3444 164.202 32.6962C161.719 31.5892 158.908 31.428 156.311 32.2439C155.308 32.5553 154.358 33.017 153.497 33.613C152.716 34.15 152.05 34.8348 151.54 35.6275C151.063 36.3563 150.808 37.2046 150.805 38.0717C150.81 38.9406 151.03 39.7953 151.447 40.5612C151.89 41.3858 152.493 42.1168 153.222 42.7129C154.02 43.3666 154.918 43.8922 155.883 44.2705C156.936 44.6903 158.051 44.9353 159.185 44.9957C160.862 45.1555 162.503 45.5722 164.049 46.2307C165.455 46.8262 166.763 47.6234 167.933 48.5965C168.996 49.4829 169.87 50.5697 170.502 51.7931C171.103 52.9493 171.417 54.2291 171.42 55.5281C171.428 56.928 171.07 58.3063 170.38 59.5299C169.673 60.7824 168.717 61.8811 167.568 62.7597C166.315 63.709 164.909 64.4444 163.409 64.9355C161.773 65.4787 160.058 65.7508 158.331 65.7407C155.867 65.7649 153.434 65.2032 151.237 64.1032C149.075 63.0105 147.341 61.6032 146.034 59.8812L149.521 57.4129Z" fill="#221F1F"/>
<path d="M205.18 36.4024C203.692 35.0101 201.976 33.8749 200.104 33.0445C198.316 32.2496 196.376 31.8384 194.414 31.8382C192.438 31.825 190.479 32.2179 188.665 32.9917C186.903 33.7389 185.305 34.8141 183.956 36.1582C181.15 38.9727 179.588 42.7675 179.613 46.7131C179.605 50.642 181.114 54.427 183.834 57.2997C185.161 58.6765 186.752 59.7814 188.514 60.5506C190.37 61.3641 192.383 61.7755 194.414 61.7569C196.357 61.7606 198.277 61.3491 200.043 60.5506C201.895 59.7067 203.606 58.5925 205.12 57.2454L208.181 59.9309C206.281 61.6853 204.101 63.1198 201.728 64.177C199.432 65.2083 196.938 65.742 194.414 65.7421C191.886 65.7511 189.384 65.2374 187.069 64.2343C184.778 63.2551 182.693 61.8608 180.923 60.1239C179.141 58.3741 177.7 56.3164 176.672 54.0533C175.612 51.7494 175.069 49.2472 175.081 46.7176C175.073 44.2505 175.583 41.8084 176.579 39.5448C177.554 37.3056 178.957 35.2718 180.711 33.5541C182.483 31.8204 184.567 30.4266 186.856 29.4437C189.226 28.4286 191.783 27.907 194.368 27.9117C196.952 27.9163 199.507 28.4472 201.873 29.4709C204.257 30.4931 206.435 31.931 208.3 33.7155L205.18 36.4024Z" fill="#221F1F"/>
<path d="M216.803 47.5259V65.2566H212.337V28.1274H216.803V43.604H236.988V28.1274H241.39V65.2566H236.988V47.5259H216.803Z" fill="#221F1F"/>
<path d="M278.09 60.5293C276.36 62.1975 274.312 63.5124 272.065 64.3985C269.718 65.3078 267.215 65.7634 264.694 65.7404C262.164 65.748 259.658 65.2542 257.325 64.2884C255.026 63.3543 252.93 61.9966 251.147 60.2881C249.356 58.5617 247.923 56.5086 246.927 54.2431C245.878 51.8705 245.346 49.307 245.367 46.719C245.349 44.1955 245.87 41.6965 246.898 39.3848C247.883 37.1591 249.285 35.136 251.03 33.4213C252.788 31.7031 254.867 30.3347 257.151 29.3908C259.54 28.3971 262.11 27.8943 264.703 27.9131C267.337 27.8864 269.95 28.3892 272.38 29.3908C274.651 30.3281 276.717 31.6873 278.466 33.3941C280.192 35.1022 281.56 37.1273 282.494 39.3547C283.481 41.6863 283.98 44.1899 283.962 46.716C283.962 49.5105 283.452 52.0738 282.431 54.406C281.423 56.7183 279.945 58.8027 278.088 60.5308M274.843 35.8112C273.525 34.5508 271.964 33.5642 270.252 32.9101C268.478 32.2261 266.589 31.8797 264.684 31.8893C262.708 31.8773 260.751 32.2707 258.937 33.0443C257.175 33.7922 255.576 34.8672 254.226 36.2108C252.874 37.5661 251.794 39.162 251.045 40.9138C250.262 42.75 249.867 44.7243 249.885 46.716C249.871 48.7249 250.265 50.7163 251.045 52.5724C251.784 54.346 252.853 55.9681 254.196 57.3553C255.527 58.7212 257.117 59.8169 258.875 60.5806C260.707 61.376 262.689 61.7785 264.691 61.7612C266.721 61.7797 268.732 61.3775 270.595 60.5806C274.194 59.0422 277.031 56.1634 278.485 52.5724C279.246 50.7117 279.631 48.7222 279.617 46.716C279.634 44.6204 279.207 42.5445 278.362 40.6212C277.557 38.7855 276.356 37.1442 274.843 35.8112Z" fill="#221F1F"/>
<path d="M320.293 60.5294C318.562 62.1969 316.515 63.5117 314.268 64.3985C311.921 65.3077 309.418 65.7633 306.896 65.7405C304.366 65.7479 301.86 65.2541 299.526 64.2884C297.231 63.3534 295.138 61.9957 293.359 60.2881C291.568 58.5621 290.134 56.5089 289.139 54.2431C288.09 51.8705 287.558 49.307 287.579 46.719C287.56 44.1954 288.082 41.6963 289.11 39.3848C290.095 37.1591 291.497 35.136 293.241 33.4213C295.001 31.7032 297.079 30.3348 299.363 29.3908C301.752 28.3971 304.322 27.8943 306.915 27.9131C309.463 27.8839 311.992 28.3534 314.354 29.2942C316.717 30.2351 318.866 31.6287 320.678 33.3942C322.401 35.1027 323.766 37.1278 324.697 39.3547C325.685 41.686 326.184 44.1898 326.166 46.716C326.166 49.5105 325.656 52.0739 324.636 54.406C323.627 56.7175 322.149 58.8013 320.293 60.5294ZM317.052 35.8112C315.734 34.5507 314.173 33.5641 312.461 32.9101C310.687 32.2262 308.798 31.8799 306.893 31.8893C304.917 31.8774 302.959 32.2707 301.146 33.0443C299.384 33.7922 297.785 34.8673 296.435 36.2108C295.082 37.5658 294.002 39.1617 293.254 40.9138C292.471 42.7501 292.076 44.7243 292.094 46.716C292.079 48.7249 292.474 50.7163 293.254 52.5725C293.992 54.3463 295.061 55.9685 296.405 57.3553C297.735 58.7215 299.324 59.8173 301.083 60.5806C302.914 61.3757 304.897 61.7781 306.898 61.7613C308.928 61.7796 310.939 61.3773 312.8 60.5806C316.401 59.0438 319.238 56.1646 320.691 52.5725C321.452 50.7118 321.837 48.7222 321.823 46.716C321.841 44.6196 321.414 42.5425 320.57 40.6183C319.765 38.7831 318.565 37.1427 317.052 35.8112Z" fill="#221F1F"/>
<path d="M334.912 61.3347H354.607V65.2566H330.507V28.1274H334.912V61.3347Z" fill="#221F1F"/>
<path d="M149.847 81.9681C149.569 81.7581 149.253 81.6016 148.915 81.5067C148.812 81.4594 148.703 81.4235 148.591 81.3997L148.452 81.3695C148.411 81.3589 148.37 81.3514 148.328 81.3469C148.214 81.3131 148.098 81.2884 147.98 81.273C147.602 81.2013 147.234 81.0844 146.885 80.9247C146.579 80.8001 146.325 80.5768 146.164 80.2914C146.038 80.0515 145.998 79.777 146.049 79.5118C146.104 79.2399 146.239 78.9901 146.438 78.7941C146.641 78.5774 146.894 78.4115 147.176 78.3101C147.461 78.2029 147.764 78.1517 148.069 78.1593C148.605 78.1743 149.127 78.3305 149.581 78.6116C149.645 78.6416 149.715 78.658 149.786 78.6599C149.878 78.6599 149.966 78.6302 150.039 78.5753C150.111 78.5205 150.163 78.4436 150.187 78.3566C150.211 78.2696 150.204 78.1774 150.169 78.0943C150.134 78.0111 150.072 77.9418 149.993 77.8969C149.417 77.5422 148.753 77.3517 148.074 77.3466C147.662 77.343 147.254 77.4135 146.868 77.5547C146.474 77.7014 146.118 77.9333 145.827 78.2332C145.516 78.548 145.31 78.9488 145.237 79.3822C145.14 79.8242 145.206 80.2855 145.42 80.6849C145.666 81.1231 146.052 81.4692 146.517 81.6696C146.927 81.8621 147.361 81.9996 147.808 82.0782C148.603 82.2591 149.102 82.4355 149.33 82.6165C149.526 82.7766 149.68 82.9803 149.78 83.2106C149.884 83.4479 149.919 83.7087 149.883 83.9645C149.862 84.2185 149.784 84.4648 149.655 84.6856C149.526 84.9064 149.348 85.0963 149.136 85.2416C148.727 85.5467 148.225 85.7062 147.713 85.694H147.635C147.296 85.6861 146.962 85.611 146.653 85.4732C146.344 85.3354 146.066 85.1377 145.837 84.8918C145.788 84.8435 145.728 84.8075 145.662 84.787C145.596 84.7665 145.526 84.762 145.458 84.7741C145.39 84.7861 145.326 84.8142 145.271 84.856C145.217 84.8978 145.173 84.952 145.145 85.014C145.114 85.0866 145.106 85.1666 145.121 85.2438C145.136 85.3211 145.174 85.3922 145.231 85.4482C145.533 85.7744 145.899 86.037 146.307 86.2205C146.715 86.4039 147.156 86.5043 147.604 86.5158C148.337 86.5409 149.058 86.3215 149.649 85.893C149.953 85.6767 150.206 85.3974 150.389 85.0747C150.573 84.752 150.682 84.3937 150.711 84.0248C150.746 83.6411 150.69 83.2545 150.548 82.8954C150.394 82.5384 150.154 82.2233 149.849 81.9772" fill="#221F1F"/>
<path d="M158.664 77.3524C158.466 77.3185 158.266 77.3014 158.065 77.3012C157.199 77.3039 156.36 77.6005 155.69 78.141C155.484 78.3013 155.297 78.4834 155.132 78.6839V73.2722C155.132 73.1634 155.088 73.0591 155.01 72.9822C154.932 72.9053 154.826 72.8621 154.715 72.8621C154.605 72.8621 154.499 72.9053 154.421 72.9822C154.343 73.0591 154.299 73.1634 154.299 73.2722V86.0979C154.299 86.2067 154.343 86.311 154.421 86.3879C154.499 86.4649 154.605 86.5081 154.715 86.5081C154.826 86.5081 154.932 86.4649 155.01 86.3879C155.088 86.311 155.132 86.2067 155.132 86.0979V80.8717C155.132 79.4257 156.53 78.1109 158.065 78.1109C158.219 78.1107 158.373 78.1243 158.524 78.1516C159.218 78.2564 159.849 78.6038 160.304 79.1302C160.774 79.6444 161.032 80.3127 161.028 81.0044V86.0979C161.028 86.2067 161.072 86.311 161.15 86.3879C161.228 86.4649 161.334 86.5081 161.444 86.5081C161.554 86.5081 161.66 86.4649 161.738 86.3879C161.816 86.311 161.86 86.2067 161.86 86.0979V81.0044C161.85 80.122 161.524 79.2716 160.939 78.6034C160.354 77.9352 159.548 77.4921 158.664 77.3524Z" fill="#221F1F"/>
<path d="M171.63 78.5481C171.316 78.1153 170.88 77.7824 170.376 77.5907C169.96 77.4301 169.517 77.3478 169.07 77.3479H168.884C167.883 77.3614 166.925 77.7539 166.209 78.4441C166.168 78.4828 166.134 78.5295 166.112 78.5814C166.089 78.6333 166.078 78.6892 166.078 78.7457C166.079 78.854 166.124 78.9574 166.202 79.034C166.279 79.1105 166.384 79.1543 166.494 79.1558C166.55 79.1591 166.606 79.1511 166.658 79.1325C166.711 79.1138 166.759 79.0848 166.8 79.0472C167.37 78.5064 168.125 78.195 168.917 78.1742C169.312 78.1561 169.707 78.2193 170.077 78.3597C170.432 78.4919 170.742 78.7229 170.967 79.0246C171.229 79.3714 171.385 79.8751 171.426 80.5234C171.44 80.7632 171.454 81.0482 171.458 81.3919C170.984 81.2975 170.487 81.2125 169.968 81.1371C169.618 81.0889 169.265 81.0612 168.912 81.0542C168.54 81.0429 168.169 81.0768 167.806 81.1552C167.427 81.2327 167.065 81.3729 166.734 81.5699C166.384 81.7735 166.087 82.0549 165.867 82.3916C165.566 82.8488 165.435 83.3942 165.495 83.9357C165.538 84.4753 165.752 84.9879 166.107 85.4013C166.44 85.8078 166.877 86.12 167.373 86.306C167.767 86.4545 168.187 86.5282 168.609 86.5231C168.705 86.5231 168.805 86.5231 168.915 86.5126C169.394 86.482 169.861 86.3553 170.288 86.1403C170.715 85.9254 171.093 85.6267 171.399 85.2626C171.42 85.2415 171.439 85.2204 171.457 85.1993V86.1175C171.463 86.2222 171.51 86.3205 171.588 86.3924C171.665 86.4643 171.767 86.5043 171.874 86.5043C171.98 86.5043 172.083 86.4643 172.16 86.3924C172.238 86.3205 172.284 86.2222 172.291 86.1175V82.3132C172.291 81.2155 172.266 80.6546 172.257 80.4661C172.22 79.7839 172.003 79.123 171.628 78.5481M167.682 85.5325C167.323 85.3969 167.007 85.1719 166.763 84.8796C166.518 84.5937 166.368 84.2397 166.335 83.8663C166.295 83.4999 166.386 83.1312 166.594 82.8244C166.737 82.5984 166.934 82.4101 167.167 82.2755C167.42 82.1233 167.697 82.0133 167.986 81.9498C168.247 81.8891 168.514 81.8632 168.782 81.8729C168.82 81.8729 168.858 81.8729 168.9 81.8729C169.174 81.8798 169.448 81.9025 169.72 81.9408L169.862 81.9559C170.458 82.0373 170.982 82.1308 171.463 82.2348V83.0702C171.454 83.6863 171.214 84.2773 170.788 84.7288C170.299 85.2858 169.607 85.6299 168.861 85.6863C168.462 85.7253 168.059 85.6727 167.683 85.5325H167.682Z" fill="#221F1F"/>
<path d="M180.1 77.3827H179.903C179.385 77.3737 178.87 77.4654 178.389 77.6528C177.907 77.8401 177.468 78.1193 177.096 78.4744C176.929 78.6326 176.775 78.804 176.637 78.987V77.7928C176.636 77.738 176.624 77.6838 176.602 77.6335C176.58 77.5832 176.547 77.5378 176.507 77.4997C176.467 77.4616 176.42 77.4316 176.368 77.4116C176.316 77.3915 176.261 77.3817 176.205 77.3827C176.152 77.3837 176.099 77.3951 176.05 77.4162C176 77.4373 175.956 77.4678 175.919 77.5059C175.881 77.544 175.852 77.5889 175.833 77.6382C175.813 77.6874 175.803 77.7399 175.804 77.7928V90.6005C175.804 90.7092 175.848 90.8136 175.926 90.8905C176.004 90.9674 176.11 91.0106 176.221 91.0106C176.331 91.0106 176.437 90.9674 176.515 90.8905C176.593 90.8136 176.637 90.7092 176.637 90.6005V85.0697C176.7 85.1466 176.769 85.2205 176.844 85.3079C177.445 85.9761 178.268 86.4121 179.165 86.5383C179.751 86.6249 180.349 86.5908 180.92 86.4382C181.492 86.2856 182.026 86.0178 182.487 85.6517C183.41 84.9237 184.023 83.8827 184.207 82.7325C184.415 81.4836 184.119 80.2041 183.381 79.168C182.556 78.0657 181.303 77.3827 180.106 77.3827M179.909 78.203H180.072C181.029 78.203 182.034 78.7563 182.695 79.6429C183.001 80.0669 183.218 80.546 183.336 81.0528C183.453 81.5597 183.468 82.0843 183.379 82.5968C183.241 83.549 182.741 84.414 181.981 85.0169C181.607 85.3102 181.177 85.5253 180.716 85.649C180.256 85.7727 179.774 85.8023 179.301 85.7361C178.589 85.6392 177.936 85.291 177.465 84.756C176.92 84.1695 176.643 83.5498 176.643 82.9029V81.38C176.647 80.9474 176.741 80.5201 176.918 80.1241C177.094 79.7281 177.351 79.3715 177.671 79.076C177.966 78.7921 178.315 78.5688 178.698 78.4189C179.081 78.269 179.491 78.1956 179.903 78.203H179.909Z" fill="#221F1F"/>
<path d="M188.641 77.333C188.531 77.3346 188.425 77.3782 188.348 77.4548C188.27 77.5313 188.225 77.6347 188.223 77.7431V86.0981C188.229 86.2028 188.276 86.3011 188.354 86.373C188.431 86.4448 188.533 86.4849 188.64 86.4849C188.746 86.4849 188.849 86.4448 188.926 86.373C189.004 86.3011 189.05 86.2028 189.057 86.0981V77.7446C189.058 77.6906 189.047 77.637 189.026 77.587C189.006 77.537 188.975 77.4915 188.936 77.4533C188.898 77.4151 188.851 77.3849 188.801 77.3645C188.75 77.3441 188.695 77.3339 188.641 77.3345" fill="#221F1F"/>
<path d="M196.929 77.3677C196.732 77.3338 196.532 77.3167 196.332 77.3164C195.467 77.3237 194.629 77.6197 193.957 78.1563C193.751 78.3162 193.564 78.4983 193.398 78.6991V77.7612C193.398 77.6524 193.355 77.5481 193.276 77.4712C193.198 77.3943 193.093 77.3511 192.982 77.3511C192.872 77.3511 192.766 77.3943 192.688 77.4712C192.61 77.5481 192.566 77.6524 192.566 77.7612V86.1132C192.566 86.2219 192.61 86.3263 192.688 86.4032C192.766 86.4801 192.872 86.5233 192.982 86.5233C193.093 86.5233 193.198 86.4801 193.276 86.4032C193.355 86.3263 193.398 86.2219 193.398 86.1132V80.8885C193.398 79.4455 194.799 78.1291 196.338 78.1291C196.492 78.129 196.646 78.1421 196.797 78.1683C197.495 78.2699 198.132 78.617 198.591 79.1454C199.055 79.6623 199.307 80.3311 199.298 81.0212V86.1132C199.304 86.2178 199.351 86.3162 199.428 86.388C199.506 86.4599 199.608 86.4999 199.715 86.4999C199.821 86.4999 199.924 86.4599 200.001 86.388C200.079 86.3162 200.125 86.2178 200.132 86.1132V81.0212C200.122 80.1391 199.796 79.2888 199.211 78.6204C198.627 77.952 197.822 77.5083 196.938 77.3677" fill="#221F1F"/>
<path d="M211.62 77.4444C211.566 77.4421 211.511 77.4508 211.461 77.4697C211.41 77.4886 211.364 77.5175 211.325 77.5546C211.286 77.5917 211.255 77.6362 211.234 77.6854C211.212 77.7346 211.202 77.7875 211.202 77.841V79.0352C211.061 78.8525 210.905 78.682 210.735 78.5255C209.978 77.8093 208.964 77.416 207.915 77.4308H207.734C206.501 77.4308 205.277 78.1003 204.459 79.2191C203.72 80.2535 203.423 81.5324 203.632 82.7807C203.789 83.9375 204.402 84.987 205.338 85.7029C205.802 86.0683 206.338 86.3354 206.911 86.4877C207.485 86.64 208.085 86.6741 208.672 86.588C209.572 86.4596 210.397 86.021 211 85.35C211.073 85.2656 211.141 85.1842 211.202 85.1058V86.1778C211.202 87.4474 210.4 88.6416 209.157 89.2222C208.484 89.5288 207.731 89.6198 207.002 89.4824C206.274 89.345 205.608 88.9861 205.098 88.4562C205.044 88.4162 204.982 88.3886 204.916 88.3755C204.85 88.3625 204.782 88.3643 204.717 88.3808C204.652 88.3974 204.592 88.4282 204.54 88.471C204.489 88.5138 204.448 88.5675 204.421 88.6281C204.39 88.6978 204.382 88.775 204.398 88.8494C204.413 88.9239 204.451 88.9919 204.507 89.0442C205.133 89.6974 205.956 90.1338 206.854 90.2882C207.131 90.34 207.413 90.3663 207.694 90.3666C208.319 90.3652 208.935 90.2278 209.499 89.964C211.04 89.2644 212.036 87.7852 212.036 86.1944V77.841C212.036 77.7877 212.025 77.7349 212.004 77.6857C211.983 77.6366 211.953 77.5922 211.914 77.5551C211.875 77.5181 211.829 77.4892 211.778 77.4702C211.728 77.4511 211.674 77.4424 211.62 77.4444ZM211.202 81.4236V82.9465C211.202 83.5904 210.926 84.2131 210.382 84.7997C209.905 85.3286 209.255 85.6751 208.545 85.7783C208.386 85.8032 208.225 85.8153 208.063 85.8144C207.268 85.8072 206.497 85.5423 205.87 85.0605C205.1 84.4623 204.592 83.5955 204.452 82.6389C204.281 81.6041 204.526 80.5443 205.136 79.685C205.771 78.8075 206.799 78.2451 207.757 78.2451H207.922C208.759 78.2315 209.566 78.5455 210.167 79.1181C210.488 79.4142 210.745 79.7709 210.923 80.167C211.101 80.5632 211.196 80.9905 211.202 81.4236Z" fill="#221F1F"/>
<path d="M229.4 78.5481C229.086 78.1153 228.651 77.7824 228.147 77.5907C227.73 77.4301 227.287 77.3478 226.84 77.3479H226.656C225.656 77.3608 224.699 77.7529 223.985 78.4426C223.942 78.4807 223.908 78.5273 223.885 78.5792C223.861 78.6312 223.85 78.6874 223.85 78.7442C223.851 78.8526 223.895 78.9562 223.973 79.0329C224.051 79.1095 224.156 79.1531 224.266 79.1543C224.32 79.1564 224.375 79.1479 224.426 79.1293C224.476 79.1106 224.523 79.0822 224.563 79.0457C225.133 78.5049 225.888 78.1935 226.679 78.1727C227.075 78.1546 227.47 78.2178 227.839 78.3582C228.195 78.4912 228.505 78.722 228.732 79.0231C228.992 79.3699 229.149 79.8736 229.191 80.5234C229.204 80.724 229.22 81.021 229.224 81.3904C228.753 81.2954 228.253 81.211 227.734 81.1356C227.384 81.0873 227.031 81.0596 226.678 81.0527C226.306 81.0413 225.934 81.0753 225.57 81.1537C225.191 81.2308 224.829 81.371 224.499 81.5684C224.148 81.7717 223.851 82.0532 223.631 82.3901C223.33 82.847 223.198 83.3925 223.258 83.9342C223.3 84.474 223.515 84.9867 223.87 85.3998C224.202 85.8063 224.639 86.1184 225.134 86.3045C225.528 86.4527 225.948 86.5263 226.37 86.5216C226.468 86.5216 226.568 86.5216 226.676 86.5111C227.155 86.4804 227.622 86.3538 228.049 86.1388C228.476 85.9239 228.854 85.6252 229.16 85.2611C229.18 85.24 229.2 85.2189 229.217 85.1978V86.116C229.217 86.2248 229.26 86.3291 229.339 86.406C229.417 86.483 229.522 86.5262 229.633 86.5262C229.743 86.5262 229.849 86.483 229.927 86.406C230.005 86.3291 230.049 86.2248 230.049 86.116V82.3132C230.049 81.1929 230.028 80.6546 230.017 80.4661C229.979 79.7839 229.763 79.123 229.388 78.5481M225.441 85.5325C225.083 85.3966 224.767 85.1717 224.523 84.8796C224.277 84.5939 224.126 84.2398 224.093 83.8663C224.053 83.4997 224.146 83.131 224.353 82.8244C224.496 82.5984 224.693 82.4101 224.926 82.2755C225.179 82.1226 225.456 82.0125 225.746 81.9498C226.006 81.8891 226.274 81.8632 226.542 81.8729C226.58 81.8729 226.618 81.8729 226.658 81.8729C226.933 81.8798 227.207 81.9025 227.48 81.9408L227.622 81.9559C228.216 82.0373 228.741 82.1308 229.221 82.2348V83.0702C229.213 83.6862 228.973 84.2772 228.548 84.7288C228.059 85.2862 227.365 85.6303 226.62 85.6863C226.224 85.7234 225.825 85.6708 225.454 85.5325H225.441Z" fill="#221F1F"/>
<path d="M245.461 77.3827H245.262C244.744 77.3739 244.23 77.4658 243.748 77.6531C243.267 77.8404 242.827 78.1195 242.455 78.4743C242.289 78.633 242.136 78.8039 241.996 78.9855V77.7928C241.994 77.6819 241.947 77.5764 241.866 77.4995C241.784 77.4227 241.676 77.3806 241.563 77.3827C241.455 77.385 241.352 77.4295 241.277 77.5064C241.203 77.5833 241.162 77.6863 241.164 77.7928V90.6004C241.164 90.7092 241.208 90.8135 241.286 90.8904C241.364 90.9674 241.47 91.0106 241.58 91.0106C241.69 91.0106 241.796 90.9674 241.874 90.8904C241.952 90.8135 241.996 90.7092 241.996 90.6004V85.0697C242.059 85.1466 242.128 85.2204 242.203 85.3079C242.804 85.976 243.627 86.4121 244.524 86.5383C245.11 86.6248 245.708 86.5907 246.28 86.4381C246.852 86.2855 247.385 86.0177 247.847 85.6517C248.77 84.9245 249.383 83.8831 249.567 82.7325C249.774 81.4836 249.478 80.2041 248.74 79.1679C247.915 78.0657 246.662 77.3827 245.465 77.3827M245.266 78.2029H245.432C246.388 78.2029 247.394 78.7563 248.055 79.6429C248.36 80.0669 248.578 80.546 248.695 81.0528C248.812 81.5596 248.827 82.0843 248.739 82.5968C248.601 83.5494 248.1 84.4146 247.338 85.0169C246.965 85.3101 246.535 85.5252 246.075 85.6489C245.614 85.7726 245.133 85.8022 244.66 85.7361C243.948 85.6392 243.296 85.291 242.824 84.756C242.279 84.1695 242.002 83.5497 242.002 82.9029V81.38C242.007 80.9474 242.1 80.5201 242.277 80.1241C242.454 79.7281 242.71 79.3715 243.031 79.076C243.326 78.7915 243.676 78.5677 244.059 78.4179C244.443 78.268 244.854 78.1949 245.266 78.2029Z" fill="#221F1F"/>
<path d="M258.067 77.556C257.656 77.4061 257.22 77.331 256.78 77.3343H256.514C255.645 77.3343 254.831 77.7083 254.105 78.4441C254.036 78.5134 253.971 78.5864 253.91 78.6627V77.7445C253.903 77.6398 253.856 77.5415 253.779 77.4696C253.701 77.3977 253.599 77.3577 253.493 77.3577C253.386 77.3577 253.284 77.3977 253.206 77.4696C253.129 77.5415 253.082 77.6398 253.076 77.7445V86.0979C253.082 86.2026 253.129 86.3009 253.206 86.3728C253.284 86.4446 253.386 86.4847 253.493 86.4847C253.599 86.4847 253.701 86.4446 253.779 86.3728C253.856 86.3009 253.903 86.2026 253.91 86.0979V80.8717C253.909 80.5275 253.978 80.1866 254.112 79.8689C254.247 79.5512 254.444 79.2632 254.693 79.0216C255.176 78.5063 255.842 78.1951 256.552 78.1531C256.962 78.1376 257.37 78.1995 257.755 78.3355C257.809 78.3593 257.868 78.3701 257.927 78.3672C258.037 78.3656 258.142 78.3217 258.22 78.2448C258.298 78.1679 258.342 78.0641 258.343 77.9556C258.346 77.8689 258.32 77.7835 258.271 77.7118C258.221 77.64 258.15 77.5855 258.067 77.556Z" fill="#221F1F"/>
<path d="M263.944 77.3978C263.35 77.394 262.762 77.5128 262.218 77.7466C261.674 77.9803 261.185 78.3238 260.784 78.7549C259.943 79.6275 259.474 80.785 259.474 81.9884C259.474 83.1919 259.943 84.3494 260.784 85.222C261.192 85.642 261.683 85.9763 262.226 86.2046C262.768 86.433 263.353 86.5507 263.943 86.5507C264.533 86.5507 265.118 86.433 265.661 86.2046C266.204 85.9763 266.694 85.642 267.102 85.222C267.943 84.3494 268.412 83.1919 268.412 81.9884C268.412 80.785 267.943 79.6275 267.102 78.7549C266.701 78.3238 266.213 77.9803 265.669 77.7466C265.125 77.5129 264.537 77.394 263.944 77.3978ZM263.944 85.7513C263.461 85.759 262.982 85.6653 262.538 85.4763C262.095 85.2872 261.698 85.0073 261.373 84.6551C260.689 83.9328 260.309 82.982 260.309 81.9945C260.309 81.0069 260.689 80.0561 261.373 79.3339C261.7 78.9831 262.097 78.7031 262.539 78.5115C262.982 78.3199 263.46 78.221 263.943 78.221C264.426 78.221 264.904 78.3199 265.347 78.5115C265.789 78.7031 266.186 78.9831 266.513 79.3339C267.197 80.0557 267.578 81.0067 267.578 81.9945C267.578 82.9822 267.197 83.9332 266.513 84.6551C266.188 85.0071 265.791 85.2869 265.348 85.476C264.905 85.665 264.427 85.7588 263.944 85.7513Z" fill="#221F1F"/>
<path d="M278.912 77.3767C278.857 77.3749 278.803 77.3839 278.753 77.4031C278.702 77.4224 278.656 77.4516 278.617 77.4889C278.578 77.5262 278.547 77.5709 278.526 77.6203C278.504 77.6697 278.494 77.7227 278.494 77.7763V83.0025C278.488 83.3692 278.405 83.7307 278.25 84.0643C278.096 84.398 277.873 84.6966 277.596 84.9416C277.308 85.2158 276.966 85.4292 276.591 85.5685C276.217 85.7078 275.817 85.7701 275.417 85.7516C275.017 85.7331 274.625 85.6342 274.265 85.4609C273.905 85.2876 273.585 85.0437 273.325 84.744C272.856 84.2291 272.599 83.5612 272.602 82.8698V77.7763C272.596 77.6716 272.549 77.5733 272.472 77.5014C272.394 77.4296 272.292 77.3895 272.185 77.3895C272.079 77.3895 271.976 77.4296 271.899 77.5014C271.821 77.5733 271.775 77.6716 271.768 77.7763V82.8698C271.765 83.7575 272.091 84.6158 272.686 85.2823C273.261 85.959 274.075 86.3946 274.964 86.5007C275.153 86.5283 275.344 86.5424 275.536 86.5429C276.405 86.5457 277.249 86.2587 277.931 85.7287C278.137 85.5683 278.324 85.3863 278.489 85.1858V86.1237C278.496 86.2284 278.543 86.3267 278.62 86.3986C278.698 86.4704 278.8 86.5105 278.906 86.5105C279.013 86.5105 279.115 86.4704 279.193 86.3986C279.27 86.3267 279.317 86.2284 279.323 86.1237V77.7763C279.324 77.7228 279.313 77.6699 279.292 77.6206C279.271 77.5714 279.24 77.5268 279.201 77.4895C279.162 77.4522 279.116 77.423 279.066 77.4036C279.015 77.3842 278.961 77.3751 278.907 77.3767" fill="#221F1F"/>
<path d="M291.023 72.8772C290.912 72.8788 290.807 72.9227 290.729 72.9996C290.652 73.0765 290.608 73.1803 290.606 73.2888V78.9523C290.467 78.7701 290.314 78.5992 290.147 78.4411C289.394 77.7289 288.386 77.3364 287.342 77.348H287.143C285.919 77.348 284.695 78.0174 283.87 79.1378C283.131 80.1723 282.835 81.4513 283.044 82.6993C283.201 83.8553 283.812 84.9042 284.747 85.62C285.506 86.222 286.449 86.5527 287.423 86.5579C287.644 86.5577 287.864 86.5401 288.081 86.5051C288.982 86.3794 289.808 85.9416 290.41 85.2702C290.484 85.1842 290.553 85.1028 290.614 85.0244V86.1116C290.62 86.2158 290.667 86.3138 290.744 86.3854C290.821 86.457 290.923 86.4968 291.029 86.4968C291.135 86.4968 291.238 86.457 291.315 86.3854C291.392 86.3138 291.438 86.2158 291.445 86.1116V73.2949C291.444 73.1866 291.4 73.083 291.322 73.0061C291.245 72.9293 291.14 72.8852 291.03 72.8832M290.605 81.3468V82.8697C290.605 83.5105 290.329 84.1348 289.785 84.7243C289.305 85.2532 288.653 85.5996 287.941 85.7029C287.468 85.7663 286.988 85.7354 286.528 85.6121C286.067 85.4888 285.637 85.2756 285.262 84.9852C284.495 84.389 283.988 83.5257 283.845 82.5726C283.675 81.5371 283.921 80.4769 284.531 79.6173C285.165 78.7427 286.194 78.1788 287.152 78.1788H287.316C288.152 78.165 288.96 78.4791 289.561 79.0518C289.883 79.3456 290.141 79.7003 290.32 80.0946C290.499 80.4889 290.596 80.9148 290.605 81.3468Z" fill="#221F1F"/>
<path d="M306.511 72.8123H306.378C306.006 72.8169 305.639 72.9 305.302 73.0561C304.966 73.2122 304.667 73.4375 304.426 73.717C304.18 73.9862 303.99 74.3011 303.868 74.6434C303.747 74.9857 303.696 75.3484 303.718 75.7104V77.3313H302.526C302.415 77.3313 302.31 77.3745 302.232 77.4514C302.153 77.5284 302.11 77.6327 302.11 77.7415C302.11 77.8502 302.153 77.9546 302.232 78.0315C302.31 78.1084 302.415 78.1516 302.526 78.1516H303.718V86.0979C303.724 86.2026 303.771 86.3009 303.849 86.3728C303.926 86.4447 304.029 86.4847 304.135 86.4847C304.241 86.4847 304.344 86.4447 304.421 86.3728C304.499 86.3009 304.546 86.2026 304.552 86.0979V78.1546H306.228C306.282 78.1535 306.336 78.1418 306.386 78.1202C306.436 78.0986 306.482 78.0675 306.52 78.0286C306.557 77.9898 306.587 77.9439 306.607 77.8938C306.627 77.8436 306.637 77.79 306.635 77.7362C306.634 77.6823 306.623 77.6292 306.601 77.5799C306.579 77.5305 306.547 77.4859 306.508 77.4486C306.468 77.4113 306.422 77.382 306.371 77.3624C306.32 77.3428 306.265 77.3332 306.211 77.3343H304.552V75.6757C304.53 75.1655 304.705 74.6659 305.042 74.2779C305.212 74.0843 305.421 73.927 305.655 73.8158C305.889 73.7046 306.144 73.6417 306.404 73.6311C306.689 73.6085 306.975 73.6511 307.241 73.7558C307.506 73.8604 307.743 74.0242 307.934 74.2342C307.987 74.2781 308.049 74.3091 308.116 74.3247C308.183 74.3403 308.253 74.3401 308.32 74.3241C308.387 74.308 308.449 74.2767 308.501 74.2325C308.554 74.1883 308.595 74.1326 308.621 74.0699C308.652 74.0016 308.661 73.9258 308.646 73.8525C308.632 73.7792 308.596 73.712 308.541 73.6597C308.284 73.3833 307.969 73.164 307.619 73.0166C307.268 72.8692 306.89 72.797 306.509 72.8048" fill="#221F1F"/>
<path d="M317.708 77.3767C317.654 77.3749 317.6 77.3839 317.549 77.4032C317.498 77.4225 317.452 77.4517 317.413 77.489C317.374 77.5263 317.344 77.571 317.323 77.6204C317.302 77.6698 317.291 77.7228 317.292 77.7763V83.0025C317.286 83.3693 317.202 83.731 317.048 84.0647C316.893 84.3984 316.669 84.6969 316.392 84.9416C316.104 85.2157 315.762 85.4288 315.387 85.5678C315.012 85.7069 314.613 85.7689 314.212 85.7501C313.812 85.7314 313.42 85.6322 313.061 85.4586C312.701 85.2851 312.381 85.0409 312.121 84.741C311.653 84.226 311.396 83.558 311.4 82.8668V77.7763C311.394 77.6716 311.347 77.5733 311.269 77.5014C311.192 77.4296 311.09 77.3895 310.983 77.3895C310.877 77.3895 310.774 77.4296 310.697 77.5014C310.619 77.5733 310.573 77.6716 310.566 77.7763V82.8698C310.562 83.7576 310.889 84.6159 311.484 85.2823C312.058 85.959 312.873 86.3946 313.761 86.5007C313.951 86.5284 314.143 86.5425 314.335 86.5429C315.204 86.5455 316.048 86.2585 316.73 85.7287C316.936 85.5679 317.123 85.386 317.289 85.1858V86.1237C317.289 86.2325 317.333 86.3368 317.411 86.4137C317.489 86.4906 317.595 86.5339 317.705 86.5339C317.815 86.5339 317.921 86.4906 317.999 86.4137C318.077 86.3368 318.121 86.2325 318.121 86.1237V77.7763C318.122 77.7228 318.111 77.6698 318.09 77.6204C318.069 77.571 318.038 77.5263 318 77.489C317.961 77.4517 317.915 77.4225 317.864 77.4032C317.813 77.3839 317.759 77.3749 317.705 77.3767" fill="#221F1F"/>
<path d="M325.649 85.6457C325.427 85.7481 325.177 85.7736 324.939 85.7181C324.685 85.6674 324.457 85.532 324.293 85.3347C324.129 85.1374 324.039 84.8904 324.039 84.6355V78.1879H325.617C325.727 78.1879 325.834 78.1446 325.912 78.0674C325.99 77.9902 326.034 77.8855 326.034 77.7763C326.034 77.6671 325.99 77.5624 325.912 77.4852C325.834 77.408 325.727 77.3646 325.617 77.3646H324.039V75.6306C324.039 75.5766 324.029 75.523 324.008 75.473C323.988 75.4229 323.957 75.3775 323.918 75.3393C323.88 75.3011 323.833 75.2709 323.783 75.2505C323.732 75.2301 323.677 75.2199 323.623 75.2205C323.513 75.222 323.408 75.2658 323.33 75.3423C323.252 75.4189 323.208 75.5223 323.206 75.6306V77.3646H321.913C321.802 77.3646 321.696 77.408 321.618 77.4852C321.54 77.5624 321.496 77.6671 321.496 77.7763C321.496 77.8855 321.54 77.9902 321.618 78.0674C321.696 78.1446 321.802 78.1879 321.913 78.1879H323.206V84.6551C323.21 85.0912 323.365 85.513 323.646 85.8496C323.928 86.1862 324.318 86.4172 324.752 86.5037C324.898 86.5338 325.047 86.5495 325.196 86.5504C325.466 86.5503 325.734 86.4943 325.981 86.3861C326.061 86.3691 326.133 86.3237 326.182 86.2585C326.231 86.1933 326.254 86.1126 326.247 86.0317C326.249 85.9611 326.233 85.891 326.2 85.8283C326.167 85.7656 326.118 85.7123 326.058 85.6736C325.998 85.6348 325.928 85.6119 325.857 85.6071C325.785 85.6022 325.714 85.6155 325.649 85.6457Z" fill="#221F1F"/>
<path d="M336.234 77.3767C336.18 77.3749 336.126 77.3839 336.075 77.4032C336.024 77.4225 335.978 77.4517 335.939 77.489C335.9 77.5263 335.87 77.571 335.849 77.6204C335.828 77.6698 335.817 77.7228 335.818 77.7763V83.0025C335.811 83.3691 335.728 83.7305 335.573 84.0642C335.419 84.3978 335.196 84.6965 334.919 84.9416C334.631 85.2158 334.29 85.4292 333.915 85.5685C333.54 85.7078 333.141 85.7701 332.741 85.7516C332.34 85.7331 331.949 85.6342 331.589 85.4609C331.229 85.2876 330.909 85.0437 330.648 84.744C330.18 84.2291 329.923 83.5612 329.926 82.8698V77.7763C329.92 77.6716 329.873 77.5733 329.795 77.5014C329.718 77.4296 329.615 77.3895 329.509 77.3895C329.403 77.3895 329.3 77.4296 329.223 77.5014C329.145 77.5733 329.098 77.6716 329.092 77.7763V82.8698C329.087 83.7577 329.414 84.6164 330.01 85.2823C330.584 85.959 331.399 86.3946 332.287 86.5007C332.477 86.5283 332.668 86.5425 332.86 86.5429C333.728 86.5457 334.572 86.2587 335.255 85.7287C335.46 85.5685 335.647 85.387 335.813 85.1873V86.1237C335.819 86.2284 335.866 86.3267 335.944 86.3986C336.021 86.4704 336.124 86.5105 336.23 86.5105C336.337 86.5105 336.439 86.4704 336.516 86.3986C336.594 86.3267 336.641 86.2284 336.647 86.1237V77.7763C336.647 77.7227 336.637 77.6697 336.616 77.6203C336.594 77.5709 336.563 77.5262 336.524 77.4889C336.485 77.4516 336.439 77.4224 336.388 77.4031C336.338 77.3839 336.284 77.3749 336.229 77.3767" fill="#221F1F"/>
<path d="M345.149 77.556C344.738 77.406 344.301 77.3309 343.862 77.3343H343.596C342.727 77.3343 341.913 77.7083 341.186 78.4441C341.117 78.513 341.052 78.586 340.992 78.6628V77.7445C340.985 77.6398 340.938 77.5415 340.861 77.4696C340.783 77.3978 340.681 77.3577 340.575 77.3577C340.468 77.3577 340.366 77.3978 340.288 77.4696C340.211 77.5415 340.164 77.6398 340.158 77.7445V86.0979C340.164 86.2026 340.211 86.3009 340.288 86.3728C340.366 86.4447 340.468 86.4847 340.575 86.4847C340.681 86.4847 340.783 86.4447 340.861 86.3728C340.938 86.3009 340.985 86.2026 340.992 86.0979V80.8717C340.99 80.5276 341.059 80.1867 341.193 79.8691C341.328 79.5514 341.525 79.2633 341.774 79.0216C342.257 78.506 342.923 78.1947 343.634 78.1531C344.043 78.1375 344.452 78.1994 344.837 78.3356C344.891 78.3594 344.95 78.3702 345.009 78.3672C345.119 78.3653 345.224 78.3212 345.301 78.2444C345.379 78.1676 345.423 78.064 345.425 77.9556C345.427 77.8689 345.402 77.7835 345.353 77.7118C345.303 77.64 345.232 77.5855 345.149 77.556Z" fill="#221F1F"/>
<path d="M354.062 78.5587C353.707 78.1403 353.265 77.8024 352.766 77.5682C352.266 77.334 351.721 77.2089 351.168 77.2017C351.125 77.2017 351.079 77.2017 351.032 77.2017C350.384 77.231 349.751 77.4064 349.182 77.7143C348.625 78.0307 348.143 78.4604 347.768 78.9749C347.027 79.9851 346.749 81.1824 346.94 82.5319C347.043 83.3651 347.363 84.158 347.867 84.8344C348.374 85.5354 349.088 86.0652 349.912 86.3513C350.351 86.4934 350.811 86.5671 351.274 86.5699C351.63 86.5688 351.986 86.5237 352.331 86.4357C353.131 86.2227 353.843 85.7669 354.365 85.1329C354.403 85.0968 354.433 85.0532 354.453 85.0049C354.473 84.9566 354.483 84.9046 354.481 84.8525C354.48 84.744 354.435 84.6405 354.358 84.5636C354.28 84.4868 354.175 84.4428 354.065 84.4408C354.002 84.4389 353.939 84.4516 353.882 84.4778C353.824 84.5039 353.774 84.5429 353.734 84.5916C353.428 84.9529 353.045 85.2435 352.612 85.4431C352.179 85.6426 351.707 85.7462 351.229 85.7466C350.874 85.7471 350.521 85.689 350.186 85.5747C349.527 85.3346 348.954 84.9107 348.536 84.3549C348.119 83.7823 347.856 83.1153 347.771 82.4158C347.741 82.2225 347.724 82.0276 347.719 81.8323H354.911L354.966 81.4794C355.039 80.9571 354.996 80.4256 354.841 79.9211C354.686 79.4165 354.422 78.9508 354.068 78.5557M351.119 78.0174C351.544 78.0206 351.963 78.1088 352.352 78.2765C352.74 78.4442 353.091 78.6879 353.381 78.993C353.892 79.5433 354.17 80.2659 354.157 81.012H347.804C347.898 80.4482 348.124 79.9137 348.464 79.4514C348.754 79.0246 349.143 78.6724 349.6 78.4245C350.048 78.175 350.551 78.0354 351.066 78.0174H351.119Z" fill="#221F1F"/>
<path d="M58.1087 53.0928L20.6423 61.7885C21.32 63.2462 21.6956 64.8226 21.7472 66.4251L59.2121 57.7294C58.5347 56.2716 58.1596 54.6953 58.1087 53.0928Z" fill="#D2D0CF"/>
<path d="M73.5158 26.3467C72.4366 27.5339 71.2015 28.574 69.8431 29.4393L101.81 69.5118C102.864 68.2919 104.152 67.2887 105.6 66.5594L73.5158 26.3467Z" fill="#D2D0CF"/>
<path d="M79.8559 52.6811C79.8544 54.519 79.2998 56.3153 78.2624 57.8428C77.2249 59.3703 75.7511 60.5604 74.0272 61.2627C72.3034 61.965 70.4069 62.1479 68.5776 61.7883C66.7483 61.4287 65.0682 60.5427 63.7499 59.2424C62.4315 57.9421 61.534 56.2859 61.1708 54.4831C60.8076 52.6802 60.9951 50.8118 61.7095 49.1139C62.4239 47.4161 63.6332 45.965 65.1844 44.9443C66.7357 43.9235 68.5593 43.3789 70.4246 43.3792C71.6638 43.3797 72.8906 43.6208 74.0352 44.0886C75.1798 44.5564 76.2197 45.2417 77.0954 46.1055C77.9712 46.9692 78.6657 47.9945 79.1394 49.1228C79.613 50.251 79.8565 51.4601 79.8559 52.6811Z" fill="#1F9BD7"/>
<path d="M74.8028 14.4979C74.8001 17.3622 73.9356 20.1613 72.3186 22.5415C70.7016 24.9217 68.4047 26.776 65.7183 27.8702C63.0319 28.9644 60.0765 29.2492 57.2258 28.6887C54.3752 28.1281 51.7572 26.7474 49.7028 24.721C47.6483 22.6947 46.2498 20.1136 45.6839 17.3042C45.1179 14.4948 45.4101 11.5831 46.5233 8.93726C47.6366 6.29141 49.521 4.03017 51.9383 2.43938C54.3556 0.848601 57.1973 -0.000296835 60.1042 7.78602e-08C62.0355 0.000791865 63.9478 0.376442 65.7317 1.1055C67.5157 1.83455 69.1364 2.90273 70.5013 4.24903C71.8662 5.59533 72.9486 7.19337 73.6867 8.95189C74.4247 10.7104 74.804 12.595 74.8028 14.4979Z" fill="#E2097F"/>
<path d="M120.625 77.3827C120.623 79.2206 120.069 81.0169 119.031 82.5443C117.994 84.0718 116.52 85.2619 114.796 85.9642C113.073 86.6665 111.176 86.8495 109.347 86.49C107.518 86.1305 105.838 85.2448 104.519 83.9446C103.201 82.6445 102.303 80.9884 101.94 79.1856C101.576 77.3829 101.764 75.5145 102.478 73.8166C103.192 72.1188 104.401 70.6676 105.952 69.6467C107.503 68.6257 109.327 68.0808 111.192 68.0808C112.431 68.0812 113.658 68.3221 114.803 68.7898C115.948 69.2575 116.988 69.9428 117.864 70.8066C118.74 71.6704 119.434 72.6957 119.908 73.8241C120.382 74.9524 120.625 76.1616 120.625 77.3827Z" fill="#00A099"/>
<path d="M18.8641 66.8368C18.8626 68.6748 18.308 70.4711 17.2705 71.9986C16.2331 73.5261 14.7592 74.7162 13.0354 75.4184C11.3116 76.1207 9.4151 76.3036 7.58577 75.944C5.75645 75.5844 4.07641 74.6985 2.75804 73.3982C1.43966 72.0979 0.542156 70.4416 0.178982 68.6388C-0.184192 66.836 0.00327311 64.9675 0.717678 63.2697C1.43208 61.5718 2.64135 60.1208 4.1926 59.1C5.74385 58.0793 7.56743 57.5346 9.4328 57.5349C10.672 57.5353 11.899 57.7762 13.0436 58.244C14.1883 58.7117 15.2282 59.397 16.1041 60.2608C16.9799 61.1246 17.6744 62.15 18.148 63.2783C18.6215 64.4066 18.8649 65.6158 18.8641 66.8368Z" fill="#952780"/>
<path d="M19.5879 59.9458L49.9277 29.1511C48.5939 28.247 47.389 27.1709 46.3453 25.9514L16.1218 56.6285C17.4863 57.5007 18.6644 58.6276 19.5894 59.9458" fill="#D2D0CF"/>
</g>
<defs>
<clipPath id="clip0_11_1530">
<rect width="355" height="91" fill="white"/>
</clipPath>
</defs>
</svg>
