<svg width="40" height="48" viewBox="0 0 40 48" fill="none" xmlns="http://www.w3.org/2000/svg">
<g clip-path="url(#clip0_6_55)">
<path d="M1.62924 44.2567C2.40577 45.1278 3.35931 45.7474 4.4429 46.1907C5.73814 46.724 7.08186 47.0842 8.47099 47.0888C15.5813 47.1157 22.6901 47.0988 29.7966 47.1042C31.0449 47.1042 32.2863 47.1088 33.5184 46.8317C35.0353 46.49 36.4868 45.9752 37.6558 44.9431C39.8584 42.9953 40.4895 40.5564 39.6314 37.752C39.0511 35.8549 37.9798 34.2118 36.7992 32.6465C35.6341 31.1073 34.3873 29.6227 33.1382 28.1451C32.0108 26.8113 30.8294 25.5223 29.675 24.2109C29.0139 23.4613 28.3436 22.714 27.6995 21.9505C27.3916 21.5881 27.2546 21.174 27.2569 20.6661C27.2854 17.58 27.2723 14.4939 27.2723 11.4063V10.8675H29.0909V7.14343H10.9091V10.8898H12.6792C12.6965 10.949 12.7088 11.0095 12.7161 11.0707C12.7161 14.418 12.7161 17.7644 12.7161 21.1101C12.713 21.2432 12.6681 21.372 12.5876 21.478C12.0196 22.1845 11.4493 22.891 10.856 23.5767C9.75315 24.8519 8.63261 26.1102 7.52131 27.3778C6.66012 28.3582 5.75122 29.3018 4.957 30.3346C3.84184 31.7907 2.75055 33.2737 1.76623 34.8206C0.609522 36.633 -0.263975 38.5455 0.076958 40.8196C0.273976 42.1379 0.762672 43.2754 1.63309 44.2567M17.1975 36.3252C15.7268 36.3121 14.3961 35.0653 14.4631 33.5423C14.3761 32.1678 15.6837 30.791 17.1806 30.7879C17.9135 30.789 18.6167 31.0776 19.1391 31.5916C19.6614 32.1056 19.9613 32.8041 19.9742 33.5369C19.9919 35.0261 18.7429 36.3413 17.1975 36.3252ZM25.4799 41.7593C23.3189 41.8509 21.672 40.0454 21.6673 38.0283C21.6705 37.5196 21.7764 37.0167 21.9788 36.55C22.1811 36.0832 22.4756 35.6622 22.8447 35.3121C23.2138 34.962 23.6498 34.69 24.1266 34.5126C24.6034 34.3352 25.1111 34.2559 25.6192 34.2796C27.5332 34.3519 29.2002 36.0242 29.2079 38.026C29.2156 40.0277 27.4963 41.837 25.4799 41.7601V41.7593ZM4.18278 38.176C4.99778 36.4306 6.10678 34.8714 7.31736 33.3891C8.42328 32.0392 9.57922 30.7325 10.7252 29.4195C11.925 28.0473 13.1702 26.7167 14.3423 25.3191C15.0072 24.5249 15.5836 23.6568 16.1401 22.7833C16.3232 22.4977 16.3894 22.0975 16.3894 21.7505C16.4071 18.3096 16.3994 14.8725 16.3994 11.4324V10.8937H23.5913V11.4324C23.5913 14.7148 23.6198 18.001 23.5759 21.2833C23.5598 22.3238 23.9123 23.1804 24.5387 23.9377C25.4961 25.0959 26.4973 26.2141 27.4786 27.3501C27.9157 27.8557 28.349 28.3621 28.8585 28.9501H28.3367C23.7768 28.9501 19.2177 28.9632 14.6586 28.9354C14.0806 28.9301 13.7404 29.1148 13.4503 29.5873C12.0827 31.8168 10.6597 34.0164 9.31217 36.2536C8.33323 37.8797 7.51823 39.5936 6.99644 41.4299C6.85021 41.9471 6.76556 42.4843 6.6532 43.0361C5.43723 42.6159 4.26051 42.1326 3.83954 40.688C3.58018 39.7884 3.81106 38.9749 4.18278 38.176Z" fill="#000003"/>
<path d="M22.6632 5.28174C24.1485 5.30714 25.4099 4.06577 25.3376 2.64586C25.4053 1.19132 24.1516 0.0538456 22.8094 -2.64945e-05C21.2787 -0.0577465 20.0866 1.27905 20.0712 2.5943C20.068 3.29163 20.3371 3.96266 20.8212 4.46459C21.3053 4.96651 21.9662 5.25969 22.6632 5.28174Z" fill="#000003"/>
<path d="M19.2192 19.8102C20.6815 19.8025 21.7805 18.7058 21.8359 17.2952C21.9028 15.6613 20.7184 14.52 19.1715 14.5077C17.7862 14.4961 16.6049 15.5405 16.5841 17.0897C16.5072 18.682 17.7531 19.8171 19.2177 19.8102" fill="#000003"/>
</g>
<defs>
<clipPath id="clip0_6_55">
<rect width="40" height="47.105" fill="white"/>
</clipPath>
</defs>
</svg>
