<svg width="40" height="48" viewBox="0 0 40 48" fill="none" xmlns="http://www.w3.org/2000/svg">
<path d="M39.3527 33.2791C36.0646 31.1431 32.7765 29.0119 29.4884 26.8856C29.1566 26.6725 29.0287 26.446 29.0312 26.0532C29.049 23.4703 29.0506 20.8873 29.036 18.3044C29.0312 16.8113 28.4369 15.5826 27.054 14.9785C26.2856 14.6449 26.0086 14.2314 25.9672 13.452C25.9312 12.7274 25.7638 12.0071 25.6481 11.2441H26.2241C27.9589 11.2441 29.6912 11.26 31.4235 11.2344C31.8315 11.2283 32.0324 11.3562 32.1944 11.7282C33.7479 15.2712 33.9868 18.896 32.9111 22.6026C32.8331 22.841 32.8021 23.0922 32.8197 23.3424C32.8524 23.6515 32.9952 23.9385 33.2221 24.1509C33.4489 24.3633 33.7447 24.487 34.0552 24.4993C34.7518 24.5377 35.2535 24.1723 35.4764 23.4374C36.3602 20.5799 36.5159 17.5468 35.9294 14.6138C33.9961 4.87745 24.6665 -1.46548 14.8827 0.292418C5.62009 1.95533 -0.928049 10.6371 0.107694 19.9612C0.700764 25.3268 3.2271 29.6245 7.5637 32.8437C8.309 33.3917 9.13345 33.3193 9.61144 32.6751C10.0986 32.0174 9.92563 31.2222 9.16877 30.6779C7.96564 29.8114 6.89123 28.779 5.97751 27.6114C5.78997 27.3679 5.62313 27.114 5.3887 26.7809C6.35807 26.7809 7.21906 26.7687 8.07761 26.7973C8.18843 26.7973 8.33701 26.9897 8.39059 27.1237C8.99462 28.6112 10.2636 29.4984 11.8114 29.4923C13.3337 29.4875 14.6124 28.5991 15.1756 27.1213C15.2779 26.8515 15.4149 26.7687 15.6895 26.7711C16.461 26.7864 17.2318 26.7809 18.0033 26.7711C18.6506 26.7608 19.0543 26.3991 19.0385 25.8614C19.0232 25.3451 18.6195 24.9931 18.0112 24.9852C17.2245 24.9749 16.4354 24.97 15.6499 24.9852C15.3844 24.9907 15.2663 24.9055 15.1762 24.6564C14.8109 23.6383 14.1356 22.7755 13.0944 22.5673C12.0379 22.3529 11.8918 21.7757 11.8863 20.9196C11.8863 20.2973 11.8254 19.675 11.7919 19.046H17.2526C17.2526 19.8418 17.2574 20.5987 17.2526 21.3507C17.2526 21.7696 17.409 22.0911 17.8006 22.264C18.4399 22.5466 19.0494 22.0576 19.0494 21.2642C19.0527 18.1004 19.0527 14.9341 19.0494 11.7654V11.2472C20.6009 11.2472 22.0793 11.2393 23.5596 11.2594C23.6679 11.2594 23.847 11.442 23.8683 11.5638C24.0272 12.4924 24.1508 13.4277 24.2975 14.3599C24.3359 14.6034 24.2689 14.7124 24.0351 14.8172C22.5737 15.4803 21.8151 16.622 21.8151 18.2362C21.809 23.5275 21.8069 28.8191 21.809 34.1108V34.7246C21.6476 34.5377 21.5654 34.4524 21.4929 34.3593C20.9831 33.6984 20.4783 33.0333 19.9786 32.3639C18.7218 30.69 16.5298 30.3332 14.8754 31.5309C13.2819 32.6878 12.9269 34.903 14.1015 36.5732C16.4458 39.9094 18.8095 43.2298 21.1562 46.5653C21.4156 46.9355 21.7316 47.0951 22.1871 47.0951C26.5791 47.0847 30.9736 47.0896 35.3656 47.0872C36.1163 47.0872 36.3191 46.9234 36.5353 46.1884C37.6556 42.3584 38.7781 38.5272 39.9025 34.6948C40.1132 33.9775 40.0048 33.7029 39.3545 33.2791M13.9882 3.25351C13.3793 4.34101 12.7704 5.45043 12.1329 6.54767C12.072 6.64814 11.8893 6.71999 11.7578 6.73034C10.126 6.81802 9.0208 7.62725 8.39059 9.12394C8.33396 9.25728 8.18843 9.44483 8.07761 9.4497C7.21906 9.47588 6.35807 9.46248 5.36922 9.46248C7.61119 6.29863 10.4779 4.26246 13.9882 3.25351ZM13.6077 10.3515C13.6024 10.8279 13.4102 11.2832 13.0725 11.6193C12.7348 11.9554 12.2785 12.1454 11.8021 12.1484C11.3256 12.1513 10.8671 11.967 10.5252 11.6351C10.1833 11.3032 9.9855 10.8503 9.97434 10.374C9.96338 9.36689 10.7854 8.52599 11.7803 8.51808C12.7753 8.51016 13.6028 9.3334 13.6077 10.3515ZM2.99633 15.255C3.34888 14.0049 3.77511 12.7798 4.20134 11.5522C4.24518 11.4207 4.45586 11.2636 4.59226 11.2612C5.80275 11.238 7.01325 11.249 8.21096 11.249C8.44235 11.6752 8.63719 12.1015 8.89659 12.4875C9.07926 12.7573 9.30577 13.0526 9.58586 13.1811C10.2465 13.4898 10.2727 13.9623 10.185 14.587C10.0632 15.4395 10.0352 16.3011 9.96338 17.2053H2.72415C2.81183 16.5379 2.82401 15.8742 2.99633 15.255ZM8.36806 24.6997C8.31874 24.8263 8.10745 24.9639 7.96923 24.9676C6.85129 24.9907 5.73395 24.9877 4.61479 24.9724C4.48935 24.9724 4.29694 24.8823 4.24518 24.777C3.36125 22.9812 2.85124 21.0247 2.74607 19.0259H9.97191C10.0103 19.5185 10.0407 20.0001 10.0821 20.48C10.1308 21.0889 10.2002 21.7008 10.2289 22.3128C10.2337 22.4461 10.143 22.6489 10.0352 22.7152C9.26967 23.1675 8.68149 23.8676 8.36806 24.6997ZM13.6046 25.8773C13.6087 26.1186 13.5646 26.3584 13.475 26.5825C13.3854 26.8067 13.252 27.0107 13.0827 27.1827C12.9133 27.3548 12.7114 27.4913 12.4886 27.5844C12.2659 27.6775 12.0269 27.7253 11.7855 27.725C11.5441 27.7246 11.3052 27.6762 11.0827 27.5825C10.8602 27.4888 10.6586 27.3517 10.4897 27.1793C10.3208 27.0068 10.188 26.8024 10.099 26.578C10.01 26.3536 9.96657 26.1138 9.9713 25.8724C9.98063 25.3963 10.1765 24.943 10.5166 24.6098C10.8568 24.2767 11.3142 24.0904 11.7904 24.091C12.2665 24.0917 12.7234 24.2792 13.0627 24.6133C13.402 24.9473 13.5966 25.4012 13.6046 25.8773ZM17.2136 17.201H11.7779C11.8248 16.4758 11.8997 15.7738 11.8997 15.0747C11.8997 14.3173 12.1073 13.9056 12.9604 13.7254C14.0893 13.4916 14.6879 12.7286 15.3193 11.2636H17.2166L17.2136 17.201ZM16.7874 9.46797C16.7406 9.46249 16.6934 9.46249 16.6467 9.46797C15.8436 9.53982 15.1604 9.52886 14.8547 8.51625C14.711 8.03826 14.1849 7.67597 13.7782 7.20346C14.5527 5.60509 15.4051 4.03473 17.2063 3.13234C17.2288 3.35093 17.2544 3.48185 17.2544 3.61337C17.2544 5.40415 17.2471 7.19311 17.2623 8.98389C17.2659 9.34131 17.1777 9.52642 16.7922 9.46492L16.7874 9.46797ZM19.0823 9.44178V3.09885C21.5904 4.55108 22.4684 6.95685 23.3464 9.43813L19.0823 9.44178ZM25.1147 9.19274C24.4693 7.07559 23.6077 5.06804 22.2309 3.29187C25.8417 4.28621 28.689 6.32481 30.9121 9.46248H29.2985C28.0569 9.46248 26.8129 9.47101 25.572 9.4497C25.4149 9.44422 25.1579 9.31635 25.1196 9.1897L25.1147 9.19274Z" fill="#000003"/>
</svg>
