<svg width="32" height="39" viewBox="0 0 32 39" fill="none" xmlns="http://www.w3.org/2000/svg">
<g clip-path="url(#clip0_7_126)">
<path d="M30.5328 6.35423C30.3332 4.27913 29.172 3.02572 27.374 2.21843C26.8461 1.98096 26.3033 1.76088 25.7504 1.59048C20.7256 0.0367617 15.63 -0.514927 10.4284 0.551688C8.17729 1.01147 5.9289 1.46827 3.892 2.61611C2.6749 3.30169 1.79325 4.2749 1.59622 5.65549C1.04404 9.55134 0.314774 13.4472 0.134952 17.3647C-0.118693 22.8525 0.063373 28.3627 0.063373 33.8614C0.063373 33.889 0.0850712 33.9146 0.147921 34.0601H2.67066C2.67066 34.9337 2.66268 35.6926 2.6734 36.4517C2.69435 37.9918 3.58473 38.967 4.97517 38.999C6.40501 39.0283 7.356 38.0414 7.38742 36.4733C7.40263 35.6904 7.38991 34.9084 7.38991 34.1324H24.6276C24.6276 34.9663 24.6101 35.7291 24.6296 36.4922C24.6705 38.024 25.5826 38.9876 26.974 38.9965C28.4009 39.0075 29.3234 38.0116 29.3434 36.4279C29.3518 35.6501 29.3434 34.8697 29.3434 34.0107H31.9886V32.8333C31.9886 28.6761 31.9614 24.5175 31.998 20.3606C32.0384 15.6331 30.9842 11.0273 30.5318 6.35373M9.65252 3.02522C11.8007 3.04857 13.948 3.03342 16.0969 3.03342C18.1829 3.03342 20.2682 3.04857 22.3558 3.02522C23.0409 3.01901 23.5257 3.215 23.5414 3.95919C23.5576 4.69022 23.0818 4.98283 22.4081 4.98482C18.1433 4.9888 13.8785 4.98813 9.61362 4.98283C8.94621 4.98283 8.45762 4.70066 8.47283 3.96615C8.4883 3.22493 8.96466 3.02 9.65352 3.02621L9.65252 3.02522ZM7.25997 26.844C7.19338 28.0363 6.11271 28.9921 4.90833 28.9278C3.64035 28.8595 2.737 27.8122 2.82255 26.5131C2.90385 25.2756 3.90148 24.4313 5.19739 24.5046C6.42172 24.5711 7.33255 25.6037 7.26097 26.845L7.25997 26.844ZM16.0024 18.9325C12.166 18.9325 8.32643 18.939 4.49007 18.9298C3.12308 18.9283 2.67889 18.4728 2.85497 17.1433C3.23739 14.2712 3.65066 11.4031 4.09477 8.53913C4.29878 7.21592 4.72826 6.89151 6.06856 6.88953C12.6993 6.8834 19.3306 6.8834 25.9627 6.88953C27.3065 6.89151 27.7167 7.19307 27.929 8.54733C28.3809 11.4105 28.7911 14.2797 29.1595 17.1548C29.3341 18.5058 28.8994 18.9293 27.5157 18.9308C23.6771 18.94 19.8397 18.9335 16.0034 18.9335L16.0024 18.9325ZM26.9698 28.9278C25.7547 28.9196 24.7545 27.9151 24.7545 26.7051C24.7533 25.4336 25.7494 24.4782 27.0516 24.4996C28.3153 24.5212 29.2139 25.4592 29.1997 26.7416C29.1872 27.9776 28.2093 28.9382 26.9708 28.9288L26.9698 28.9278Z" fill="#525151"/>
</g>
<defs>
<clipPath id="clip0_7_126">
<rect width="32" height="39" fill="white"/>
</clipPath>
</defs>
</svg>
