<svg width="21" height="21" viewBox="0 0 21 21" fill="none" xmlns="http://www.w3.org/2000/svg">
<g clip-path="url(#clip0_8_191)">
<path d="M16.276 10.9646C16.2467 12.2621 15.8747 13.9589 15.2241 15.6298C16.1533 16.0271 16.987 16.4616 17.6356 16.9232C19.0559 15.3492 19.919 13.2802 20.0124 10.9646H16.276ZM20.0124 10.0394C19.919 7.72333 19.0559 5.65281 17.6356 4.07883C16.987 4.53862 16.1536 4.97095 15.2241 5.37418C15.8435 7.04347 16.2137 8.71094 16.276 10.0394H20.0124ZM13.1572 19.6404C14.6085 19.3014 15.9058 18.5613 16.9872 17.5737C16.3989 17.1412 15.6898 16.738 14.8852 16.3992C14.4548 17.5737 13.8684 18.6859 13.1574 19.6404H13.1572ZM16.9872 3.43025C15.906 2.44264 14.6086 1.69857 13.1572 1.32645C13.839 2.258 14.4546 3.39714 14.9144 4.57172C15.7188 4.22888 16.4297 3.83147 16.987 3.43025H16.9872ZM10.9658 20.0437C11.2862 20.042 11.6057 20.0107 11.9203 19.9502C12.7872 18.8087 13.5274 17.449 14.0851 16.0602C13.035 15.6882 11.9536 15.4739 10.9663 15.4114L10.9658 20.0437ZM10.9658 10.9646V14.4512C12.0119 14.5156 13.2197 14.8252 14.3925 15.3201C14.9495 13.8358 15.2885 12.3554 15.3508 10.9646H10.9658ZM10.9658 10.0394H15.3506C15.2884 8.58618 14.9493 7.13696 14.3923 5.68392C13.2195 6.17664 12.0111 6.48638 10.9657 6.54892L10.9658 10.0394ZM10.9658 5.59043C11.9826 5.52805 13.093 5.28069 14.1139 4.91256C13.5273 3.49329 12.7578 2.19329 11.9202 1.04998C11.6055 0.989964 11.286 0.95928 10.9657 0.958326L10.9658 5.59043ZM10.0365 15.4116C9.05086 15.4739 7.96965 15.6882 6.91957 16.0603C7.47292 17.4492 8.2131 18.8089 9.08 19.9503C9.3953 20.0107 9.71547 20.042 10.0365 20.0438V15.4116ZM10.0365 0.958326C9.71552 0.959462 9.39534 0.990144 9.08 1.04998C8.24607 2.19329 7.47275 3.49329 6.88643 4.91256C7.9072 5.28069 9.01789 5.52805 10.0363 5.59043L10.0365 0.958326ZM5.64936 10.9646C5.71363 12.3554 6.05267 13.8358 6.60968 15.3201C7.78248 14.8252 8.98842 14.5156 10.0363 14.4512V10.9646H5.64936ZM10.0363 6.54876C8.98842 6.48638 7.78248 6.17664 6.60968 5.68375C6.05267 7.13629 5.71363 8.58618 5.64936 10.0394H10.0363V6.54876ZM4.01313 17.5737C5.09818 18.5613 6.3957 19.3014 7.84492 19.6404C7.13388 18.6859 6.54757 17.5737 6.11511 16.3992C5.31049 16.738 4.60344 17.1412 4.01313 17.5737ZM7.84476 1.32645C6.39603 1.69857 5.09718 2.44264 4.01296 3.43025C4.57014 3.83147 5.28118 4.22871 6.08581 4.57172C6.5474 3.39714 7.16685 2.25766 7.84476 1.32645ZM0.989628 10.9646C1.08121 13.2807 1.94812 15.3492 3.3682 16.9232C4.01296 16.4616 4.85023 16.0271 5.77591 15.6298C5.12732 13.9585 4.75714 12.2618 4.72401 10.9646H0.989628ZM4.72401 10.0394C4.78645 8.71094 5.15696 7.04347 5.77591 5.37418C4.85073 4.97095 4.01313 4.53862 3.3682 4.07883C1.94828 5.65281 1.08121 7.72333 0.989628 10.0394H4.72401ZM10.4999 0C16.3676 0 21 4.6321 21 10.499C21 16.3659 16.3676 21 10.4999 21C4.63225 21 0 16.3661 0 10.499C0 4.63194 4.63242 0 10.4999 0Z" fill="black"/>
</g>
<defs>
<clipPath id="clip0_8_191">
<rect width="21" height="21" fill="white"/>
</clipPath>
</defs>
</svg>
